<svg xmlns="http://www.w3.org/2000/svg" width="2048" height="1467" viewBox="0 0 2048 1467">
<path d="M 719 763 L 721 763 L 722 762 L 726 762 L 727 761 L 731 761 L 732 760 L 737 760 L 738 759 L 743 759 L 744 758 L 746 758 L 747 759 L 747 762 L 746 763 L 746 766 L 747 767 L 754 767 L 764 772 L 768 772 L 769 771 L 776 771 L 777 770 L 783 770 L 784 769 L 789 769 L 791 765 L 798 765 L 801 767 L 802 770 L 807 777 L 808 781 L 809 782 L 809 784 L 802 798 L 802 802 L 803 804 L 809 807 L 816 807 L 817 808 L 820 808 L 822 810 L 824 810 L 825 811 L 832 809 L 840 817 L 842 818 L 842 820 L 840 823 L 840 826 L 839 827 L 839 829 L 837 833 L 837 837 L 838 839 L 841 840 L 843 842 L 842 843 L 842 845 L 839 849 L 838 853 L 836 855 L 835 858 L 833 860 L 833 862 L 831 864 L 831 866 L 828 871 L 828 874 L 826 877 L 826 880 L 825 881 L 824 880 L 822 880 L 818 877 L 814 876 L 810 873 L 807 873 L 805 876 L 805 886 L 797 894 L 796 894 L 793 897 L 789 897 L 786 894 L 781 894 L 779 895 L 775 900 L 775 903 L 774 904 L 774 907 L 775 908 L 774 909 L 766 909 L 765 908 L 760 907 L 758 905 L 757 905 L 751 899 L 749 891 L 747 891 L 744 889 L 751 883 L 748 870 L 746 869 L 745 870 L 739 871 L 738 870 L 738 864 L 734 863 L 731 861 L 729 861 L 723 858 L 717 853 L 715 853 L 711 856 L 704 859 L 703 860 L 703 863 L 700 866 L 691 867 L 690 868 L 687 868 L 686 869 L 682 869 L 681 868 L 681 867 L 679 865 L 679 859 L 676 853 L 674 852 L 674 850 L 673 849 L 673 843 L 667 842 L 662 838 L 665 835 L 671 835 L 675 832 L 676 832 L 679 829 L 680 829 L 680 828 L 683 825 L 687 817 L 690 814 L 694 812 L 695 810 L 695 793 L 697 789 L 703 783 L 704 783 L 704 782 L 706 780 L 707 780 L 709 776 L 709 774 L 710 773 L 712 774 L 715 774 L 716 770 L 717 769 L 717 765 Z" fill="none" stroke="#d7e8c7" stroke-width="1.6" stroke-linejoin="round" stroke-linecap="round"/>
<path d="M 223 752 L 225 752 L 232 757 L 237 757 L 253 749 L 257 752 L 267 757 L 269 759 L 273 761 L 277 761 L 278 760 L 283 760 L 284 759 L 292 758 L 293 757 L 293 753 L 295 750 L 297 749 L 302 749 L 307 753 L 308 756 L 311 760 L 311 762 L 314 767 L 314 770 L 315 771 L 315 774 L 316 775 L 316 779 L 318 781 L 320 781 L 321 780 L 328 780 L 331 782 L 332 786 L 333 787 L 333 795 L 332 796 L 332 800 L 328 805 L 325 805 L 323 806 L 323 814 L 321 816 L 318 816 L 314 819 L 313 827 L 312 828 L 312 833 L 311 835 L 321 840 L 329 846 L 333 846 L 336 844 L 343 844 L 345 845 L 348 848 L 350 852 L 350 854 L 352 857 L 352 862 L 353 863 L 353 867 L 355 870 L 355 872 L 361 872 L 362 873 L 374 873 L 375 874 L 375 875 L 371 880 L 369 885 L 363 892 L 362 891 L 356 891 L 355 890 L 350 890 L 349 889 L 347 889 L 341 895 L 341 896 L 339 898 L 339 901 L 338 902 L 338 907 L 337 908 L 337 912 L 338 913 L 338 917 L 339 918 L 339 920 L 343 924 L 345 925 L 355 925 L 359 923 L 361 923 L 362 924 L 362 929 L 355 937 L 354 939 L 354 944 L 357 950 L 360 953 L 360 959 L 361 960 L 362 964 L 367 969 L 371 971 L 374 971 L 375 972 L 388 972 L 389 973 L 392 973 L 395 977 L 395 979 L 393 980 L 393 982 L 391 986 L 391 988 L 392 989 L 394 989 L 394 984 L 396 980 L 399 982 L 399 989 L 400 990 L 406 990 L 411 993 L 415 993 L 417 992 L 417 991 L 419 989 L 420 989 L 421 986 L 424 983 L 428 982 L 430 984 L 429 990 L 431 993 L 431 995 L 439 1003 L 443 1005 L 451 1014 L 454 1015 L 456 1017 L 456 1020 L 453 1024 L 453 1026 L 451 1029 L 451 1034 L 455 1036 L 458 1036 L 459 1037 L 462 1037 L 463 1038 L 467 1038 L 471 1041 L 471 1044 L 466 1051 L 466 1054 L 465 1055 L 465 1061 L 464 1062 L 464 1066 L 463 1067 L 463 1081 L 465 1085 L 469 1089 L 471 1089 L 475 1091 L 478 1091 L 479 1090 L 482 1090 L 484 1089 L 485 1091 L 487 1093 L 488 1093 L 492 1098 L 496 1096 L 499 1096 L 500 1095 L 503 1095 L 506 1093 L 508 1093 L 510 1095 L 513 1096 L 516 1099 L 517 1099 L 524 1104 L 523 1108 L 522 1109 L 518 1110 L 516 1115 L 512 1118 L 510 1118 L 506 1120 L 503 1120 L 495 1124 L 493 1124 L 489 1128 L 489 1135 L 490 1136 L 490 1138 L 487 1140 L 484 1140 L 482 1141 L 482 1145 L 483 1146 L 484 1151 L 486 1153 L 486 1154 L 490 1158 L 492 1159 L 492 1160 L 494 1161 L 503 1161 L 504 1162 L 504 1178 L 512 1187 L 513 1187 L 528 1201 L 529 1201 L 534 1205 L 537 1206 L 539 1208 L 542 1209 L 544 1211 L 554 1216 L 561 1223 L 561 1232 L 559 1234 L 558 1237 L 555 1240 L 549 1243 L 533 1243 L 532 1244 L 528 1244 L 524 1246 L 517 1246 L 516 1250 L 514 1252 L 514 1253 L 501 1269 L 501 1277 L 502 1278 L 503 1284 L 504 1285 L 504 1288 L 502 1292 L 500 1293 L 498 1292 L 494 1288 L 488 1288 L 484 1291 L 483 1291 L 472 1302 L 470 1306 L 470 1314 L 468 1316 L 464 1316 L 463 1317 L 459 1317 L 458 1318 L 451 1318 L 450 1319 L 447 1319 L 447 1330 L 448 1331 L 448 1338 L 449 1339 L 448 1345 L 443 1349 L 439 1350 L 437 1352 L 435 1352 L 431 1354 L 425 1360 L 424 1364 L 422 1367 L 420 1375 L 418 1378 L 418 1388 L 419 1389 L 420 1398 L 418 1399 L 414 1397 L 407 1396 L 405 1398 L 405 1400 L 404 1401 L 405 1412 L 406 1413 L 407 1418 L 406 1419 L 404 1419 L 403 1421 L 403 1425 L 402 1426 L 402 1432 L 403 1433 L 404 1438 L 406 1440 L 408 1444 L 408 1447 L 405 1450 L 405 1451 L 402 1455 L 402 1460 L 403 1461 L 402 1463 L 397 1463 L 391 1460 L 388 1460 L 385 1462 L 383 1458 L 383 1454 L 382 1452 L 381 1452 L 380 1450 L 378 1448 L 377 1448 L 373 1443 L 373 1442 L 378 1438 L 379 1438 L 380 1436 L 380 1424 L 383 1418 L 378 1413 L 378 1412 L 374 1407 L 373 1407 L 371 1405 L 367 1406 L 351 1392 L 356 1388 L 358 1389 L 361 1389 L 362 1390 L 366 1390 L 367 1378 L 363 1375 L 361 1371 L 360 1371 L 358 1369 L 358 1368 L 329 1368 L 328 1367 L 328 1359 L 327 1358 L 327 1355 L 324 1349 L 325 1333 L 321 1330 L 319 1330 L 316 1327 L 315 1325 L 315 1319 L 291 1319 L 290 1320 L 287 1320 L 285 1322 L 283 1322 L 279 1325 L 275 1326 L 274 1325 L 274 1323 L 271 1320 L 263 1320 L 260 1318 L 260 1316 L 261 1315 L 261 1310 L 260 1309 L 256 1309 L 254 1311 L 250 1312 L 249 1313 L 247 1313 L 246 1312 L 239 1312 L 238 1311 L 233 1311 L 228 1308 L 225 1308 L 224 1310 L 222 1311 L 221 1310 L 221 1303 L 220 1302 L 216 1302 L 212 1298 L 211 1295 L 201 1295 L 200 1294 L 200 1291 L 199 1290 L 196 1290 L 193 1292 L 189 1292 L 187 1290 L 187 1289 L 189 1287 L 191 1283 L 191 1255 L 187 1252 L 186 1252 L 183 1249 L 183 1248 L 179 1246 L 174 1246 L 173 1247 L 171 1246 L 171 1245 L 174 1241 L 174 1238 L 170 1235 L 166 1227 L 162 1223 L 160 1222 L 157 1222 L 156 1221 L 156 1218 L 157 1217 L 157 1213 L 156 1212 L 153 1212 L 152 1211 L 150 1211 L 149 1210 L 145 1210 L 144 1209 L 140 1209 L 137 1207 L 137 1197 L 140 1195 L 143 1195 L 143 1192 L 135 1194 L 129 1191 L 125 1187 L 125 1183 L 123 1182 L 109 1182 L 107 1181 L 106 1179 L 101 1174 L 96 1174 L 95 1175 L 92 1175 L 90 1176 L 88 1179 L 85 1179 L 84 1178 L 80 1178 L 79 1179 L 78 1178 L 73 1178 L 71 1180 L 69 1176 L 64 1174 L 62 1172 L 59 1171 L 55 1168 L 52 1168 L 47 1175 L 37 1180 L 35 1178 L 36 1172 L 38 1170 L 38 1168 L 37 1167 L 38 1165 L 44 1166 L 47 1163 L 50 1162 L 52 1160 L 52 1157 L 53 1156 L 57 1156 L 59 1154 L 72 1154 L 74 1152 L 74 1144 L 75 1143 L 78 1143 L 80 1141 L 80 1138 L 78 1135 L 80 1133 L 81 1133 L 81 1130 L 79 1128 L 79 1117 L 78 1116 L 77 1116 L 72 1112 L 70 1112 L 69 1111 L 65 1111 L 62 1116 L 61 1120 L 59 1121 L 59 1122 L 57 1123 L 53 1127 L 49 1125 L 46 1120 L 39 1120 L 37 1119 L 36 1120 L 28 1120 L 27 1121 L 25 1121 L 19 1116 L 14 1116 L 12 1117 L 9 1114 L 8 1114 L 5 1110 L 4 1103 L 7 1099 L 7 1094 L 6 1093 L 6 1090 L 8 1088 L 10 1088 L 13 1086 L 16 1086 L 20 1082 L 20 1081 L 23 1077 L 23 1073 L 22 1072 L 18 1071 L 13 1075 L 6 1068 L 6 1067 L 7 1066 L 9 1067 L 14 1067 L 14 1066 L 19 1060 L 19 1056 L 21 1054 L 26 1054 L 28 1052 L 33 1050 L 35 1048 L 42 1048 L 43 1049 L 46 1049 L 49 1051 L 50 1055 L 51 1055 L 53 1057 L 52 1058 L 52 1078 L 56 1081 L 60 1081 L 63 1075 L 66 1072 L 71 1071 L 73 1069 L 77 1068 L 83 1062 L 84 1062 L 88 1066 L 89 1068 L 95 1068 L 96 1067 L 99 1067 L 100 1068 L 108 1068 L 111 1066 L 116 1068 L 119 1066 L 119 1063 L 120 1062 L 122 1062 L 123 1061 L 128 1061 L 129 1060 L 130 1061 L 137 1062 L 141 1064 L 145 1064 L 146 1065 L 152 1065 L 153 1066 L 153 1069 L 155 1073 L 156 1073 L 157 1072 L 157 1070 L 155 1066 L 156 1065 L 160 1065 L 161 1064 L 163 1064 L 164 1061 L 166 1060 L 166 1058 L 165 1057 L 164 1057 L 157 1052 L 154 1052 L 150 1049 L 148 1049 L 147 1050 L 143 1050 L 140 1048 L 139 1042 L 137 1040 L 137 1037 L 136 1036 L 135 1029 L 133 1025 L 132 1016 L 131 1015 L 131 1012 L 130 1011 L 130 998 L 129 997 L 129 987 L 130 986 L 130 974 L 132 970 L 132 966 L 133 965 L 133 962 L 135 959 L 135 957 L 137 953 L 142 949 L 146 948 L 147 947 L 149 947 L 150 946 L 150 944 L 152 940 L 155 937 L 158 937 L 159 936 L 161 936 L 162 935 L 166 934 L 168 932 L 168 930 L 170 927 L 170 913 L 166 908 L 162 908 L 161 907 L 154 907 L 150 905 L 146 905 L 142 903 L 140 901 L 137 900 L 132 896 L 132 892 L 133 891 L 136 891 L 137 892 L 143 892 L 144 893 L 145 892 L 148 892 L 151 889 L 152 883 L 151 882 L 150 878 L 153 875 L 155 869 L 154 868 L 153 864 L 151 862 L 149 858 L 151 856 L 159 856 L 160 854 L 159 833 L 161 830 L 161 828 L 160 827 L 154 826 L 153 825 L 148 825 L 144 823 L 140 823 L 139 822 L 139 820 L 143 816 L 147 808 L 151 804 L 156 802 L 159 799 L 160 796 L 162 794 L 163 794 L 165 792 L 169 792 L 172 794 L 174 794 L 175 793 L 177 793 L 181 791 L 185 787 L 188 781 L 188 767 L 187 766 L 187 764 L 188 763 L 193 763 L 194 764 L 197 764 L 203 767 L 205 767 L 207 769 L 212 770 L 213 769 L 213 757 Z" fill="none" stroke="#d7e8c7" stroke-width="1.6" stroke-linejoin="round" stroke-linecap="round"/>
<path d="M 1366 890 L 1366 894 L 1361 899 L 1359 900 L 1356 900 L 1355 901 L 1346 901 L 1345 900 L 1343 900 L 1342 901 L 1342 908 L 1337 914 L 1335 914 L 1334 915 L 1325 915 L 1324 916 L 1321 916 L 1317 914 L 1311 909 L 1309 909 L 1308 908 L 1277 908 L 1274 911 L 1274 912 L 1270 915 L 1269 914 L 1267 914 L 1262 910 L 1260 910 L 1250 917 L 1250 924 L 1248 926 L 1246 926 L 1245 925 L 1242 925 L 1238 922 L 1235 921 L 1231 917 L 1230 917 L 1224 912 L 1222 912 L 1221 911 L 1214 911 L 1210 914 L 1207 915 L 1205 917 L 1199 920 L 1198 922 L 1198 927 L 1196 929 L 1190 932 L 1187 932 L 1186 933 L 1181 933 L 1178 931 L 1154 931 L 1153 932 L 1150 932 L 1148 933 L 1146 935 L 1140 938 L 1136 942 L 1136 945 L 1137 947 L 1146 957 L 1147 959 L 1147 962 L 1148 963 L 1148 965 L 1145 969 L 1145 972 L 1146 974 L 1145 975 L 1142 975 L 1138 977 L 1138 978 L 1130 987 L 1130 993 L 1131 995 L 1132 995 L 1136 998 L 1137 1002 L 1133 1006 L 1131 1007 L 1123 1008 L 1120 1011 L 1118 1016 L 1113 1022 L 1109 1029 L 1107 1030 L 1105 1032 L 1105 1033 L 1102 1035 L 1101 1037 L 1096 1037 L 1090 1032 L 1084 1031 L 1083 1030 L 1080 1030 L 1078 1028 L 1076 1028 L 1069 1020 L 1067 1016 L 1067 1014 L 1065 1012 L 1065 1010 L 1063 1006 L 1061 1004 L 1060 1001 L 1059 1001 L 1057 999 L 1057 998 L 1055 997 L 1050 997 L 1044 994 L 1043 995 L 1043 1002 L 1044 1003 L 1044 1011 L 1045 1012 L 1045 1018 L 1044 1020 L 1036 1027 L 1034 1027 L 1027 1031 L 1021 1032 L 1019 1034 L 1017 1034 L 1014 1036 L 1013 1038 L 1013 1041 L 1012 1042 L 1012 1047 L 1013 1048 L 1013 1054 L 1014 1055 L 1014 1060 L 1015 1061 L 1013 1063 L 1008 1063 L 1004 1065 L 999 1065 L 997 1066 L 995 1064 L 995 1062 L 993 1060 L 991 1055 L 988 1051 L 983 1052 L 982 1051 L 978 1051 L 976 1049 L 971 1049 L 969 1051 L 969 1052 L 966 1055 L 965 1058 L 963 1060 L 962 1063 L 960 1065 L 960 1067 L 959 1068 L 959 1074 L 957 1075 L 953 1080 L 953 1084 L 955 1087 L 956 1093 L 955 1094 L 954 1098 L 952 1100 L 950 1105 L 948 1107 L 945 1113 L 945 1119 L 944 1121 L 938 1126 L 937 1126 L 935 1129 L 935 1132 L 937 1136 L 936 1138 L 924 1137 L 921 1135 L 917 1135 L 916 1134 L 908 1134 L 907 1135 L 904 1135 L 903 1134 L 903 1130 L 902 1129 L 902 1127 L 900 1125 L 896 1125 L 894 1126 L 881 1138 L 877 1140 L 875 1140 L 874 1141 L 870 1141 L 869 1142 L 857 1142 L 856 1141 L 854 1141 L 846 1133 L 843 1133 L 842 1132 L 836 1133 L 835 1134 L 835 1143 L 833 1147 L 833 1151 L 832 1152 L 831 1161 L 829 1165 L 829 1182 L 830 1183 L 830 1186 L 831 1187 L 831 1191 L 828 1197 L 826 1198 L 822 1202 L 819 1203 L 819 1204 L 814 1208 L 814 1209 L 812 1211 L 811 1216 L 805 1222 L 801 1224 L 799 1224 L 796 1226 L 792 1226 L 791 1227 L 788 1227 L 787 1228 L 784 1228 L 783 1229 L 779 1229 L 777 1227 L 774 1226 L 773 1224 L 769 1221 L 769 1220 L 766 1219 L 762 1216 L 758 1215 L 756 1213 L 753 1212 L 746 1207 L 741 1205 L 738 1202 L 736 1202 L 735 1200 L 727 1196 L 724 1193 L 720 1191 L 719 1189 L 716 1188 L 715 1186 L 713 1186 L 709 1184 L 706 1184 L 705 1186 L 705 1190 L 703 1192 L 702 1195 L 699 1198 L 697 1199 L 695 1198 L 693 1195 L 689 1195 L 683 1198 L 675 1200 L 673 1202 L 668 1203 L 666 1205 L 664 1205 L 654 1210 L 653 1214 L 651 1216 L 650 1221 L 648 1222 L 646 1224 L 646 1225 L 644 1226 L 643 1228 L 641 1229 L 637 1235 L 637 1241 L 636 1242 L 632 1240 L 621 1229 L 620 1229 L 619 1227 L 617 1226 L 614 1226 L 611 1229 L 607 1230 L 606 1231 L 600 1231 L 599 1230 L 596 1230 L 595 1229 L 593 1229 L 589 1227 L 582 1227 L 580 1229 L 579 1229 L 572 1236 L 566 1236 L 564 1234 L 564 1232 L 565 1231 L 565 1223 L 564 1222 L 563 1218 L 557 1213 L 554 1212 L 547 1207 L 542 1205 L 539 1202 L 537 1202 L 536 1200 L 531 1198 L 530 1196 L 529 1196 L 526 1193 L 525 1193 L 522 1190 L 522 1189 L 521 1189 L 509 1177 L 509 1176 L 507 1174 L 508 1173 L 508 1160 L 507 1158 L 505 1156 L 503 1156 L 499 1158 L 498 1157 L 494 1156 L 489 1151 L 486 1145 L 488 1143 L 491 1143 L 494 1141 L 496 1141 L 496 1137 L 493 1134 L 492 1131 L 494 1129 L 495 1129 L 496 1127 L 504 1125 L 507 1123 L 514 1122 L 516 1120 L 517 1120 L 519 1118 L 520 1115 L 523 1112 L 526 1112 L 528 1104 L 531 1101 L 531 1100 L 536 1095 L 537 1095 L 538 1093 L 545 1092 L 546 1093 L 548 1093 L 550 1095 L 553 1096 L 557 1099 L 564 1099 L 565 1098 L 567 1098 L 569 1096 L 574 1095 L 579 1091 L 579 1090 L 581 1088 L 581 1085 L 582 1084 L 582 1078 L 581 1076 L 578 1073 L 576 1073 L 575 1072 L 568 1072 L 567 1071 L 565 1071 L 560 1067 L 560 1064 L 561 1062 L 566 1058 L 570 1057 L 570 1051 L 568 1047 L 568 1041 L 572 1037 L 587 1037 L 589 1036 L 589 1035 L 591 1033 L 592 1023 L 594 1021 L 594 1020 L 599 1016 L 608 1016 L 620 1024 L 625 1024 L 626 1021 L 628 1019 L 631 1019 L 636 1016 L 637 1011 L 642 1007 L 643 1005 L 642 1001 L 640 999 L 640 998 L 638 998 L 634 996 L 632 993 L 632 991 L 635 988 L 639 988 L 639 986 L 642 980 L 642 977 L 644 973 L 644 970 L 645 969 L 645 965 L 643 962 L 640 962 L 638 960 L 638 954 L 635 950 L 621 950 L 618 948 L 616 948 L 614 946 L 606 942 L 598 935 L 598 933 L 600 931 L 607 931 L 608 932 L 612 932 L 613 931 L 613 924 L 612 923 L 612 920 L 609 914 L 609 912 L 607 909 L 607 907 L 608 906 L 611 906 L 612 905 L 618 904 L 619 905 L 620 913 L 624 917 L 626 917 L 627 918 L 641 918 L 643 917 L 643 916 L 646 913 L 646 899 L 645 898 L 645 895 L 644 894 L 644 888 L 648 883 L 649 883 L 651 881 L 655 881 L 658 884 L 662 886 L 666 886 L 671 883 L 671 882 L 673 880 L 674 874 L 677 870 L 679 872 L 692 872 L 696 870 L 704 869 L 707 866 L 707 863 L 715 858 L 718 859 L 723 863 L 725 863 L 730 866 L 732 866 L 734 868 L 733 869 L 733 877 L 737 877 L 738 876 L 740 876 L 744 874 L 746 877 L 746 880 L 747 881 L 740 887 L 739 887 L 736 890 L 735 890 L 733 892 L 733 895 L 735 896 L 736 895 L 745 894 L 746 895 L 747 900 L 754 908 L 755 908 L 757 910 L 762 911 L 765 913 L 776 913 L 779 911 L 779 907 L 778 905 L 779 904 L 780 900 L 782 898 L 788 901 L 794 901 L 798 899 L 799 897 L 800 897 L 806 891 L 807 891 L 809 887 L 809 879 L 810 878 L 811 879 L 815 880 L 817 882 L 821 884 L 823 884 L 825 886 L 829 886 L 829 882 L 831 878 L 832 872 L 834 870 L 834 868 L 846 846 L 846 839 L 841 835 L 842 831 L 844 828 L 845 823 L 846 822 L 848 822 L 858 827 L 869 827 L 878 820 L 882 819 L 883 818 L 890 818 L 898 823 L 899 823 L 901 821 L 900 815 L 897 812 L 895 812 L 893 810 L 893 809 L 891 807 L 891 805 L 893 803 L 899 802 L 902 799 L 902 795 L 900 793 L 899 790 L 893 783 L 892 779 L 890 776 L 890 773 L 892 769 L 895 766 L 897 766 L 899 764 L 903 764 L 904 763 L 912 763 L 914 762 L 914 758 L 913 757 L 914 753 L 926 742 L 928 738 L 928 735 L 932 731 L 938 731 L 938 730 L 940 729 L 940 714 L 939 713 L 939 709 L 938 708 L 938 700 L 937 699 L 937 696 L 938 695 L 938 691 L 940 689 L 941 686 L 948 679 L 948 678 L 951 674 L 951 662 L 950 661 L 950 655 L 949 654 L 949 651 L 950 650 L 954 650 L 958 645 L 959 646 L 960 645 L 965 644 L 967 642 L 968 642 L 968 641 L 972 637 L 972 636 L 978 629 L 980 629 L 983 627 L 988 627 L 989 626 L 1003 625 L 1004 624 L 1012 622 L 1014 620 L 1017 619 L 1025 612 L 1031 609 L 1035 609 L 1036 608 L 1043 608 L 1045 609 L 1047 611 L 1049 615 L 1052 618 L 1052 619 L 1055 620 L 1057 622 L 1062 623 L 1065 625 L 1067 625 L 1071 627 L 1074 627 L 1078 630 L 1079 634 L 1081 636 L 1081 637 L 1075 644 L 1071 651 L 1071 653 L 1069 657 L 1069 664 L 1070 665 L 1070 667 L 1072 671 L 1079 677 L 1090 677 L 1096 674 L 1098 674 L 1099 675 L 1096 678 L 1096 679 L 1092 684 L 1086 685 L 1079 692 L 1073 704 L 1073 707 L 1072 708 L 1072 711 L 1071 713 L 1072 714 L 1082 714 L 1083 715 L 1082 723 L 1083 724 L 1083 727 L 1087 731 L 1089 732 L 1089 745 L 1090 746 L 1090 749 L 1093 753 L 1107 760 L 1111 764 L 1112 766 L 1112 770 L 1113 771 L 1114 777 L 1117 783 L 1119 785 L 1119 786 L 1121 788 L 1125 795 L 1125 797 L 1121 801 L 1120 803 L 1120 807 L 1123 811 L 1123 812 L 1124 812 L 1129 817 L 1130 820 L 1132 822 L 1134 822 L 1135 823 L 1143 822 L 1147 827 L 1149 827 L 1153 825 L 1158 821 L 1160 821 L 1165 817 L 1167 817 L 1175 811 L 1175 809 L 1176 808 L 1176 799 L 1184 791 L 1184 789 L 1185 788 L 1185 776 L 1186 775 L 1186 765 L 1187 764 L 1187 741 L 1186 740 L 1186 737 L 1185 736 L 1185 730 L 1184 729 L 1185 727 L 1189 723 L 1191 723 L 1195 721 L 1200 721 L 1201 720 L 1209 721 L 1210 722 L 1215 723 L 1216 725 L 1219 726 L 1220 728 L 1221 728 L 1223 730 L 1223 731 L 1224 731 L 1227 734 L 1227 735 L 1230 738 L 1230 739 L 1232 740 L 1232 741 L 1237 748 L 1237 750 L 1239 753 L 1239 758 L 1240 759 L 1245 759 L 1259 751 L 1267 751 L 1268 750 L 1271 750 L 1281 745 L 1284 745 L 1287 748 L 1288 751 L 1290 753 L 1290 755 L 1292 759 L 1292 762 L 1294 764 L 1294 767 L 1297 773 L 1297 776 L 1298 777 L 1299 782 L 1301 786 L 1308 793 L 1308 807 L 1309 808 L 1309 811 L 1319 825 L 1319 830 L 1322 832 L 1326 832 L 1327 833 L 1337 833 L 1338 834 L 1336 835 L 1335 837 L 1330 842 L 1323 843 L 1319 847 L 1319 855 L 1325 862 L 1327 862 L 1328 863 L 1328 865 L 1330 868 L 1334 869 L 1335 870 L 1338 870 L 1341 872 L 1344 872 L 1345 873 L 1348 873 L 1352 875 L 1355 875 L 1362 883 L 1363 886 Z" fill="none" stroke="#d7e8c7" stroke-width="1.6" stroke-linejoin="round" stroke-linecap="round"/>
<path d="M 1608 579 L 1609 580 L 1609 587 L 1608 588 L 1606 588 L 1605 589 L 1601 590 L 1597 597 L 1596 601 L 1593 604 L 1591 605 L 1588 605 L 1587 606 L 1587 609 L 1588 609 L 1592 612 L 1593 614 L 1593 617 L 1592 618 L 1592 622 L 1590 624 L 1589 628 L 1581 636 L 1579 637 L 1581 641 L 1581 646 L 1580 647 L 1580 649 L 1579 650 L 1579 654 L 1578 655 L 1579 657 L 1582 658 L 1584 660 L 1587 661 L 1594 666 L 1600 666 L 1603 664 L 1607 663 L 1611 660 L 1613 660 L 1614 659 L 1619 659 L 1620 660 L 1620 665 L 1618 667 L 1611 670 L 1606 674 L 1606 678 L 1607 678 L 1609 680 L 1611 680 L 1613 682 L 1612 684 L 1612 689 L 1614 691 L 1616 691 L 1617 692 L 1630 692 L 1634 695 L 1636 695 L 1637 697 L 1639 697 L 1641 699 L 1643 699 L 1645 701 L 1647 701 L 1648 702 L 1661 701 L 1664 703 L 1665 706 L 1667 708 L 1667 712 L 1666 714 L 1661 719 L 1660 719 L 1658 723 L 1658 738 L 1656 740 L 1654 740 L 1653 741 L 1651 741 L 1650 740 L 1645 740 L 1644 739 L 1641 739 L 1640 738 L 1637 738 L 1637 741 L 1633 746 L 1629 747 L 1628 748 L 1625 748 L 1622 750 L 1615 751 L 1612 753 L 1608 753 L 1607 754 L 1603 753 L 1598 748 L 1598 747 L 1595 746 L 1593 744 L 1587 744 L 1580 750 L 1576 752 L 1568 752 L 1566 753 L 1567 755 L 1567 764 L 1566 765 L 1566 769 L 1565 770 L 1565 772 L 1563 776 L 1559 780 L 1556 781 L 1553 784 L 1552 784 L 1547 788 L 1545 788 L 1544 789 L 1540 789 L 1539 790 L 1536 790 L 1535 791 L 1527 791 L 1526 792 L 1523 792 L 1521 794 L 1518 795 L 1518 796 L 1516 797 L 1512 801 L 1511 801 L 1509 804 L 1505 806 L 1503 806 L 1500 808 L 1493 809 L 1490 811 L 1487 811 L 1486 812 L 1483 812 L 1476 817 L 1472 825 L 1472 827 L 1467 830 L 1451 830 L 1445 835 L 1444 835 L 1441 832 L 1437 830 L 1435 830 L 1426 825 L 1424 825 L 1422 823 L 1418 823 L 1418 824 L 1413 828 L 1411 828 L 1410 829 L 1408 829 L 1407 830 L 1405 830 L 1401 832 L 1398 835 L 1397 839 L 1395 842 L 1395 844 L 1393 848 L 1388 852 L 1386 852 L 1385 853 L 1380 853 L 1379 854 L 1372 854 L 1371 855 L 1366 856 L 1363 859 L 1362 863 L 1358 870 L 1356 871 L 1353 871 L 1352 870 L 1345 869 L 1342 867 L 1335 866 L 1332 863 L 1332 860 L 1331 859 L 1327 858 L 1324 855 L 1324 854 L 1322 852 L 1322 850 L 1325 847 L 1333 845 L 1335 843 L 1336 843 L 1338 839 L 1342 835 L 1342 833 L 1341 831 L 1338 829 L 1326 829 L 1323 827 L 1323 825 L 1322 824 L 1322 822 L 1320 818 L 1314 811 L 1313 807 L 1312 806 L 1312 791 L 1311 789 L 1310 789 L 1304 783 L 1303 778 L 1301 776 L 1301 773 L 1298 767 L 1298 764 L 1296 760 L 1296 757 L 1294 754 L 1294 744 L 1293 743 L 1293 738 L 1292 736 L 1293 735 L 1297 735 L 1298 734 L 1298 729 L 1299 728 L 1299 725 L 1300 724 L 1300 714 L 1298 713 L 1295 713 L 1292 711 L 1293 710 L 1293 708 L 1297 704 L 1297 703 L 1301 698 L 1301 676 L 1302 675 L 1304 675 L 1308 677 L 1313 677 L 1316 675 L 1318 675 L 1320 674 L 1324 670 L 1326 666 L 1329 663 L 1333 663 L 1337 661 L 1340 665 L 1340 666 L 1341 666 L 1343 668 L 1350 668 L 1352 667 L 1364 656 L 1365 656 L 1365 655 L 1367 653 L 1368 653 L 1368 652 L 1370 650 L 1370 641 L 1369 640 L 1369 638 L 1370 637 L 1380 637 L 1382 636 L 1392 625 L 1397 625 L 1399 623 L 1400 623 L 1400 622 L 1402 620 L 1402 617 L 1403 616 L 1402 597 L 1404 595 L 1404 593 L 1408 591 L 1410 589 L 1410 586 L 1411 585 L 1413 587 L 1414 591 L 1417 591 L 1418 589 L 1420 588 L 1420 587 L 1424 584 L 1437 584 L 1438 585 L 1447 585 L 1447 575 L 1448 574 L 1448 572 L 1450 570 L 1452 574 L 1458 578 L 1461 578 L 1462 579 L 1468 579 L 1469 578 L 1476 578 L 1477 579 L 1482 579 L 1491 571 L 1492 571 L 1495 568 L 1496 568 L 1499 565 L 1500 565 L 1503 569 L 1503 571 L 1505 573 L 1507 577 L 1512 582 L 1520 583 L 1523 580 L 1527 573 L 1530 570 L 1530 569 L 1534 564 L 1540 564 L 1541 565 L 1546 565 L 1548 567 L 1551 567 L 1561 572 L 1562 574 L 1563 574 L 1570 580 L 1570 581 L 1572 583 L 1573 589 L 1576 589 L 1578 588 L 1578 587 L 1580 585 L 1581 585 L 1584 582 L 1585 582 L 1590 577 L 1596 577 L 1597 578 Z" fill="none" stroke="#d7e8c7" stroke-width="1.6" stroke-linejoin="round" stroke-linecap="round"/>
<path d="M 969 610 L 968 618 L 966 622 L 964 623 L 959 628 L 955 636 L 953 644 L 951 646 L 948 644 L 946 645 L 945 655 L 946 656 L 946 662 L 947 663 L 947 672 L 945 676 L 936 686 L 935 688 L 935 691 L 934 692 L 934 706 L 935 707 L 935 714 L 936 715 L 936 726 L 935 727 L 931 727 L 929 728 L 925 732 L 924 738 L 911 750 L 910 752 L 910 758 L 909 759 L 907 759 L 906 760 L 900 760 L 899 761 L 896 761 L 894 763 L 891 764 L 889 766 L 887 770 L 887 780 L 890 786 L 898 796 L 898 797 L 895 799 L 891 799 L 887 801 L 887 808 L 889 812 L 891 813 L 890 814 L 884 814 L 883 815 L 879 815 L 875 818 L 873 818 L 869 822 L 867 823 L 859 823 L 849 818 L 847 818 L 846 816 L 834 805 L 824 806 L 820 804 L 814 804 L 810 802 L 807 802 L 806 801 L 807 799 L 807 796 L 810 792 L 811 788 L 813 785 L 813 780 L 810 774 L 808 772 L 807 768 L 805 767 L 805 765 L 803 763 L 799 761 L 786 761 L 785 762 L 785 764 L 781 766 L 778 766 L 777 767 L 772 767 L 771 768 L 764 768 L 760 765 L 751 763 L 750 761 L 752 757 L 752 754 L 749 753 L 748 754 L 743 754 L 739 756 L 733 756 L 732 757 L 721 758 L 720 759 L 715 760 L 713 764 L 713 768 L 711 770 L 710 769 L 707 769 L 706 770 L 706 773 L 705 775 L 702 778 L 702 779 L 700 780 L 692 789 L 692 793 L 691 794 L 691 808 L 688 811 L 685 812 L 684 815 L 682 817 L 679 823 L 673 829 L 670 830 L 668 832 L 662 832 L 658 836 L 658 839 L 659 841 L 662 844 L 666 845 L 669 847 L 669 851 L 671 855 L 675 860 L 675 865 L 671 870 L 671 873 L 670 874 L 669 878 L 664 882 L 663 881 L 661 881 L 656 877 L 650 877 L 649 878 L 647 878 L 643 882 L 643 883 L 641 885 L 641 899 L 642 900 L 642 903 L 643 904 L 643 910 L 639 914 L 627 914 L 623 910 L 623 901 L 622 900 L 618 900 L 617 901 L 611 901 L 610 902 L 605 902 L 605 903 L 603 905 L 603 910 L 605 913 L 605 915 L 606 916 L 607 921 L 609 924 L 609 926 L 608 927 L 605 927 L 603 926 L 602 927 L 599 927 L 597 928 L 594 932 L 594 936 L 595 938 L 600 943 L 601 943 L 606 947 L 611 949 L 613 951 L 615 951 L 620 954 L 633 954 L 634 955 L 634 962 L 636 964 L 636 965 L 640 966 L 641 967 L 641 969 L 640 970 L 640 972 L 639 973 L 639 975 L 638 976 L 638 978 L 637 979 L 636 983 L 635 984 L 631 985 L 629 987 L 629 997 L 632 1000 L 636 1001 L 638 1003 L 638 1005 L 634 1008 L 633 1012 L 631 1014 L 624 1016 L 621 1020 L 615 1015 L 611 1013 L 609 1013 L 608 1012 L 599 1012 L 598 1013 L 596 1013 L 592 1015 L 592 1016 L 590 1018 L 589 1022 L 588 1023 L 588 1029 L 584 1034 L 582 1034 L 581 1033 L 572 1033 L 571 1034 L 569 1034 L 565 1038 L 564 1040 L 564 1046 L 565 1047 L 565 1051 L 566 1053 L 564 1055 L 561 1056 L 558 1059 L 557 1063 L 556 1064 L 556 1067 L 557 1068 L 557 1070 L 561 1074 L 563 1074 L 564 1075 L 570 1075 L 571 1076 L 574 1076 L 578 1079 L 578 1084 L 576 1086 L 576 1088 L 571 1092 L 563 1094 L 560 1096 L 553 1091 L 549 1090 L 548 1089 L 538 1089 L 537 1090 L 535 1090 L 528 1097 L 528 1098 L 526 1100 L 525 1100 L 522 1097 L 521 1097 L 516 1093 L 513 1092 L 512 1090 L 510 1089 L 506 1089 L 505 1090 L 502 1090 L 499 1092 L 493 1093 L 486 1085 L 483 1085 L 482 1086 L 472 1086 L 468 1082 L 468 1080 L 467 1079 L 467 1069 L 468 1068 L 468 1060 L 469 1059 L 469 1054 L 474 1048 L 474 1046 L 475 1045 L 475 1039 L 474 1037 L 470 1035 L 463 1034 L 460 1032 L 457 1032 L 455 1030 L 459 1023 L 459 1021 L 460 1020 L 460 1015 L 459 1013 L 454 1011 L 452 1009 L 452 1008 L 447 1003 L 445 1002 L 445 1001 L 444 1001 L 440 997 L 439 997 L 434 992 L 434 985 L 435 984 L 435 980 L 433 979 L 423 979 L 418 983 L 417 986 L 415 987 L 414 989 L 412 989 L 410 987 L 404 987 L 403 986 L 403 980 L 399 976 L 396 970 L 394 970 L 393 969 L 380 969 L 379 968 L 376 968 L 375 967 L 370 966 L 365 961 L 365 956 L 364 955 L 363 950 L 358 943 L 358 940 L 365 932 L 365 930 L 366 929 L 366 923 L 363 918 L 360 918 L 359 919 L 357 919 L 355 921 L 352 921 L 351 922 L 346 921 L 344 919 L 344 918 L 342 917 L 342 915 L 341 914 L 341 906 L 342 905 L 342 902 L 344 900 L 346 895 L 349 893 L 351 894 L 357 894 L 361 896 L 367 896 L 370 890 L 372 888 L 373 885 L 375 883 L 375 882 L 379 877 L 380 874 L 382 872 L 382 870 L 380 870 L 379 869 L 359 869 L 356 863 L 355 853 L 352 848 L 351 844 L 353 842 L 355 842 L 356 843 L 358 843 L 362 845 L 367 845 L 371 842 L 375 844 L 376 843 L 377 839 L 379 837 L 382 839 L 384 838 L 384 835 L 383 834 L 384 832 L 386 834 L 386 836 L 388 839 L 395 839 L 396 838 L 400 838 L 404 836 L 409 836 L 410 835 L 413 835 L 413 825 L 414 824 L 414 822 L 419 818 L 420 818 L 423 815 L 424 815 L 431 808 L 432 810 L 438 809 L 439 810 L 445 811 L 447 810 L 448 808 L 455 801 L 456 802 L 456 804 L 455 805 L 455 808 L 453 812 L 457 817 L 463 817 L 467 815 L 469 815 L 470 816 L 472 815 L 472 812 L 474 808 L 474 798 L 473 796 L 477 793 L 478 793 L 478 792 L 483 788 L 483 784 L 482 783 L 482 780 L 481 779 L 482 778 L 487 777 L 499 767 L 510 767 L 511 766 L 513 766 L 513 761 L 510 757 L 516 753 L 521 753 L 522 754 L 522 757 L 524 759 L 530 759 L 540 754 L 542 754 L 547 757 L 563 757 L 564 756 L 569 756 L 570 755 L 573 755 L 579 752 L 581 750 L 583 752 L 583 754 L 585 756 L 589 757 L 591 755 L 591 751 L 592 749 L 599 742 L 600 738 L 598 736 L 597 736 L 594 733 L 594 732 L 592 731 L 591 727 L 590 727 L 587 723 L 585 722 L 582 722 L 581 721 L 582 719 L 585 719 L 585 715 L 584 714 L 584 712 L 582 710 L 582 707 L 581 706 L 581 700 L 580 699 L 580 695 L 579 694 L 579 688 L 580 686 L 585 681 L 589 679 L 593 681 L 595 683 L 599 684 L 605 677 L 612 677 L 613 678 L 618 678 L 620 673 L 622 671 L 623 668 L 630 658 L 634 660 L 637 660 L 637 640 L 635 638 L 632 637 L 629 634 L 621 630 L 618 627 L 613 626 L 611 624 L 609 619 L 606 619 L 603 625 L 597 630 L 596 630 L 592 633 L 589 631 L 583 630 L 580 625 L 580 623 L 586 620 L 586 610 L 585 609 L 583 609 L 581 607 L 581 604 L 583 602 L 589 602 L 591 601 L 591 599 L 595 593 L 596 594 L 602 595 L 608 592 L 611 592 L 613 591 L 614 592 L 618 592 L 621 594 L 624 594 L 625 595 L 632 595 L 636 592 L 640 591 L 640 587 L 632 574 L 632 572 L 639 565 L 640 565 L 641 567 L 646 572 L 648 572 L 649 571 L 649 566 L 650 565 L 650 562 L 651 561 L 659 565 L 664 565 L 671 559 L 680 559 L 681 560 L 680 562 L 680 565 L 686 570 L 690 572 L 692 572 L 695 574 L 708 574 L 710 572 L 713 571 L 716 568 L 720 569 L 721 570 L 726 570 L 727 571 L 732 571 L 733 572 L 735 572 L 743 568 L 745 568 L 752 564 L 754 564 L 759 561 L 761 562 L 761 565 L 763 567 L 769 566 L 770 565 L 773 565 L 774 566 L 774 577 L 777 580 L 777 585 L 778 586 L 778 606 L 779 606 L 780 608 L 785 612 L 789 613 L 792 615 L 796 615 L 797 616 L 800 616 L 815 605 L 817 609 L 819 611 L 837 611 L 838 610 L 842 610 L 843 609 L 846 609 L 847 608 L 851 608 L 852 607 L 858 606 L 859 605 L 863 605 L 866 603 L 867 605 L 868 605 L 871 608 L 873 608 L 877 606 L 886 605 L 887 604 L 888 605 L 888 610 L 889 611 L 891 611 L 892 612 L 901 612 L 908 605 L 909 605 L 909 604 L 911 602 L 915 603 L 918 605 L 920 605 L 923 607 L 926 606 L 926 604 L 928 601 L 928 599 L 931 594 L 948 594 L 952 596 L 957 600 L 958 600 L 963 605 L 964 605 L 966 607 L 966 608 L 967 608 Z" fill="none" stroke="#d7e8c7" stroke-width="1.6" stroke-linejoin="round" stroke-linecap="round"/>
<path d="M 1168 559 L 1170 557 L 1174 557 L 1182 551 L 1185 551 L 1187 553 L 1191 554 L 1195 557 L 1198 558 L 1200 560 L 1204 561 L 1205 562 L 1209 562 L 1215 559 L 1221 562 L 1223 562 L 1226 564 L 1229 564 L 1231 563 L 1233 561 L 1233 557 L 1229 552 L 1230 541 L 1231 540 L 1237 540 L 1238 539 L 1238 536 L 1239 535 L 1239 530 L 1240 529 L 1240 526 L 1241 525 L 1241 522 L 1243 519 L 1243 517 L 1248 513 L 1252 516 L 1255 517 L 1257 519 L 1258 519 L 1261 516 L 1268 516 L 1275 506 L 1275 504 L 1272 498 L 1270 496 L 1269 493 L 1267 491 L 1262 480 L 1262 476 L 1263 475 L 1266 475 L 1272 478 L 1274 480 L 1274 481 L 1275 481 L 1280 486 L 1283 486 L 1285 487 L 1286 486 L 1291 486 L 1293 485 L 1295 487 L 1295 490 L 1297 492 L 1298 495 L 1305 500 L 1306 500 L 1309 503 L 1310 503 L 1312 506 L 1316 506 L 1317 505 L 1319 505 L 1321 503 L 1324 502 L 1326 500 L 1334 496 L 1339 496 L 1346 501 L 1347 505 L 1344 508 L 1342 508 L 1337 511 L 1336 513 L 1336 517 L 1340 525 L 1342 527 L 1343 530 L 1345 531 L 1347 536 L 1349 537 L 1350 540 L 1352 541 L 1353 544 L 1355 546 L 1357 550 L 1359 551 L 1363 556 L 1362 558 L 1356 559 L 1353 562 L 1353 567 L 1352 568 L 1352 570 L 1348 573 L 1347 575 L 1347 578 L 1348 578 L 1350 581 L 1352 581 L 1353 582 L 1363 582 L 1367 585 L 1368 585 L 1370 589 L 1373 589 L 1374 590 L 1384 589 L 1388 586 L 1389 586 L 1390 583 L 1392 581 L 1400 589 L 1400 594 L 1398 595 L 1397 597 L 1398 599 L 1399 615 L 1398 616 L 1398 618 L 1395 621 L 1390 621 L 1388 622 L 1383 628 L 1383 629 L 1379 633 L 1377 634 L 1374 634 L 1370 632 L 1367 633 L 1366 635 L 1366 648 L 1356 658 L 1355 658 L 1354 660 L 1350 662 L 1349 664 L 1346 665 L 1339 658 L 1333 658 L 1329 660 L 1326 660 L 1323 663 L 1322 666 L 1318 670 L 1314 672 L 1312 672 L 1311 673 L 1309 673 L 1308 672 L 1304 672 L 1303 671 L 1295 672 L 1294 671 L 1294 668 L 1293 667 L 1293 664 L 1292 663 L 1284 662 L 1280 660 L 1279 653 L 1277 650 L 1275 651 L 1269 650 L 1265 647 L 1264 647 L 1257 641 L 1250 641 L 1248 643 L 1245 643 L 1244 644 L 1239 645 L 1236 647 L 1230 648 L 1228 646 L 1228 643 L 1222 637 L 1221 637 L 1218 634 L 1215 633 L 1213 631 L 1213 629 L 1212 628 L 1213 627 L 1213 624 L 1214 623 L 1214 617 L 1213 616 L 1209 616 L 1208 617 L 1206 617 L 1199 623 L 1198 623 L 1195 621 L 1189 620 L 1188 619 L 1184 619 L 1183 618 L 1177 618 L 1175 615 L 1174 610 L 1165 610 L 1163 608 L 1161 604 L 1161 600 L 1160 599 L 1160 589 L 1164 586 L 1164 578 L 1171 567 L 1170 561 Z" fill="none" stroke="#d7e8c7" stroke-width="1.6" stroke-linejoin="round" stroke-linecap="round"/>
<path d="M 484 236 L 487 240 L 487 243 L 488 245 L 491 248 L 499 248 L 500 249 L 499 253 L 497 256 L 497 259 L 496 260 L 492 261 L 491 260 L 481 259 L 479 260 L 478 262 L 478 267 L 480 271 L 481 271 L 486 277 L 486 280 L 485 281 L 485 283 L 483 287 L 483 292 L 485 293 L 488 293 L 489 294 L 489 297 L 487 301 L 487 306 L 486 307 L 486 310 L 496 315 L 503 315 L 506 319 L 510 327 L 516 327 L 517 326 L 519 326 L 520 327 L 521 331 L 524 334 L 525 334 L 528 338 L 523 345 L 524 348 L 527 349 L 529 351 L 529 352 L 524 359 L 525 360 L 527 368 L 526 369 L 521 369 L 520 370 L 509 370 L 508 371 L 508 373 L 507 374 L 507 378 L 506 379 L 506 382 L 504 384 L 503 389 L 500 394 L 499 399 L 497 401 L 497 403 L 495 407 L 495 410 L 500 414 L 499 415 L 494 415 L 489 411 L 485 412 L 475 407 L 472 403 L 472 400 L 471 399 L 471 394 L 472 393 L 471 391 L 469 391 L 468 390 L 464 390 L 463 389 L 456 389 L 453 391 L 453 393 L 452 394 L 447 391 L 445 391 L 444 392 L 442 392 L 438 394 L 434 394 L 431 391 L 428 385 L 426 385 L 424 387 L 422 387 L 421 386 L 421 383 L 420 381 L 416 380 L 415 381 L 415 390 L 414 391 L 414 394 L 411 399 L 411 402 L 410 404 L 407 407 L 402 404 L 399 404 L 398 405 L 398 414 L 396 417 L 394 417 L 392 420 L 392 426 L 393 427 L 393 430 L 390 432 L 383 432 L 382 431 L 372 430 L 371 431 L 366 432 L 360 435 L 357 435 L 354 433 L 354 427 L 356 423 L 356 418 L 355 417 L 355 412 L 354 411 L 354 409 L 352 405 L 352 399 L 351 398 L 351 395 L 352 394 L 352 390 L 355 387 L 357 388 L 360 388 L 361 387 L 361 384 L 359 383 L 359 379 L 358 378 L 355 378 L 352 375 L 351 370 L 349 368 L 348 363 L 346 360 L 344 352 L 345 350 L 350 345 L 352 345 L 356 343 L 356 340 L 352 336 L 348 328 L 347 316 L 346 315 L 346 305 L 350 300 L 356 297 L 356 292 L 357 291 L 357 289 L 358 287 L 362 283 L 362 281 L 359 279 L 361 275 L 360 273 L 360 267 L 362 265 L 365 265 L 367 262 L 379 262 L 380 263 L 386 263 L 387 264 L 389 263 L 391 260 L 393 260 L 394 259 L 404 259 L 405 260 L 417 260 L 418 259 L 420 259 L 421 257 L 425 255 L 431 256 L 435 259 L 440 261 L 442 259 L 442 257 L 447 250 L 462 250 L 463 249 L 467 248 L 467 234 L 468 233 L 471 233 L 475 235 L 481 235 L 482 236 Z" fill="none" stroke="#d7e8c7" stroke-width="1.6" stroke-linejoin="round" stroke-linecap="round"/>
<path d="M 504 242 L 502 243 L 498 243 L 497 244 L 493 244 L 491 242 L 491 239 L 488 233 L 486 233 L 485 232 L 480 232 L 476 230 L 471 230 L 470 229 L 468 229 L 466 227 L 463 227 L 462 228 L 462 233 L 463 234 L 463 245 L 462 246 L 444 246 L 441 252 L 438 256 L 436 254 L 430 251 L 423 251 L 416 256 L 402 256 L 401 255 L 395 255 L 394 256 L 390 256 L 388 257 L 386 260 L 384 260 L 380 258 L 374 258 L 373 257 L 370 257 L 369 258 L 366 258 L 362 261 L 357 263 L 357 265 L 356 266 L 356 275 L 353 280 L 353 283 L 355 284 L 355 285 L 353 287 L 353 293 L 347 298 L 346 298 L 344 301 L 343 301 L 343 304 L 342 305 L 342 309 L 343 310 L 343 324 L 344 325 L 345 332 L 348 338 L 350 340 L 342 347 L 340 351 L 340 355 L 342 358 L 343 363 L 345 366 L 347 374 L 349 376 L 350 380 L 351 380 L 355 383 L 354 384 L 350 385 L 349 389 L 348 390 L 348 393 L 347 394 L 347 399 L 348 400 L 349 409 L 350 410 L 350 413 L 352 417 L 352 423 L 350 425 L 350 428 L 349 429 L 350 435 L 351 435 L 352 437 L 354 438 L 363 438 L 364 437 L 366 437 L 372 434 L 378 434 L 379 435 L 393 435 L 394 434 L 396 434 L 396 421 L 397 420 L 399 420 L 401 418 L 402 416 L 402 411 L 403 410 L 408 412 L 413 408 L 413 406 L 416 400 L 416 398 L 418 394 L 418 391 L 419 390 L 420 391 L 426 391 L 427 393 L 431 397 L 433 398 L 438 398 L 439 397 L 442 397 L 443 396 L 447 396 L 452 400 L 455 400 L 456 395 L 458 393 L 464 393 L 468 395 L 468 404 L 470 408 L 477 413 L 481 414 L 484 416 L 488 416 L 493 419 L 499 419 L 500 418 L 505 417 L 507 415 L 507 414 L 504 411 L 501 410 L 499 408 L 502 402 L 502 400 L 505 395 L 507 387 L 509 385 L 509 383 L 510 382 L 510 378 L 513 374 L 516 374 L 517 373 L 529 373 L 533 371 L 533 370 L 531 368 L 531 365 L 530 364 L 529 359 L 534 352 L 534 349 L 528 345 L 531 341 L 531 335 L 530 333 L 526 329 L 524 328 L 524 325 L 525 323 L 523 321 L 522 322 L 516 322 L 515 323 L 513 323 L 510 319 L 509 316 L 507 314 L 506 311 L 496 311 L 491 307 L 491 302 L 492 301 L 492 297 L 493 296 L 493 289 L 488 289 L 487 288 L 489 284 L 489 274 L 488 272 L 482 266 L 482 264 L 483 263 L 486 263 L 487 264 L 498 264 L 500 262 L 500 260 L 502 257 L 503 250 L 505 247 L 505 243 Z" fill="none" stroke="#d7e8c7" stroke-width="1.6" stroke-linejoin="round" stroke-linecap="round"/>
<path d="M 1047 221 L 1049 222 L 1052 230 L 1061 239 L 1062 241 L 1062 247 L 1061 249 L 1062 250 L 1064 250 L 1068 245 L 1074 245 L 1078 248 L 1082 250 L 1084 250 L 1085 251 L 1085 259 L 1086 260 L 1092 260 L 1095 262 L 1103 264 L 1109 267 L 1118 267 L 1120 269 L 1120 272 L 1121 273 L 1121 284 L 1122 285 L 1122 288 L 1126 290 L 1129 290 L 1133 294 L 1133 297 L 1134 298 L 1137 298 L 1140 292 L 1145 287 L 1153 283 L 1160 283 L 1162 286 L 1162 289 L 1164 293 L 1164 296 L 1166 299 L 1170 299 L 1171 298 L 1206 298 L 1208 297 L 1209 294 L 1211 293 L 1216 297 L 1220 297 L 1225 294 L 1231 300 L 1233 301 L 1241 302 L 1242 303 L 1257 303 L 1262 300 L 1262 296 L 1264 294 L 1266 294 L 1267 295 L 1267 299 L 1268 300 L 1268 305 L 1272 305 L 1273 304 L 1275 304 L 1278 301 L 1279 298 L 1283 294 L 1286 294 L 1287 293 L 1308 293 L 1310 294 L 1316 301 L 1316 303 L 1318 305 L 1319 312 L 1321 315 L 1321 318 L 1322 319 L 1322 321 L 1321 322 L 1319 322 L 1318 321 L 1314 321 L 1313 320 L 1307 320 L 1305 321 L 1304 323 L 1304 325 L 1305 326 L 1304 332 L 1301 338 L 1295 346 L 1292 352 L 1292 354 L 1291 355 L 1291 365 L 1292 366 L 1292 368 L 1294 370 L 1294 372 L 1298 377 L 1298 382 L 1297 384 L 1293 388 L 1291 392 L 1294 394 L 1300 395 L 1301 397 L 1297 400 L 1298 410 L 1296 412 L 1293 412 L 1290 414 L 1287 414 L 1287 417 L 1290 420 L 1293 421 L 1294 423 L 1295 423 L 1297 425 L 1295 427 L 1294 427 L 1290 432 L 1286 429 L 1282 428 L 1281 429 L 1281 435 L 1280 437 L 1277 439 L 1273 439 L 1271 442 L 1271 448 L 1274 451 L 1277 451 L 1280 455 L 1281 458 L 1286 460 L 1287 462 L 1284 465 L 1280 466 L 1276 469 L 1275 469 L 1272 473 L 1268 471 L 1261 471 L 1258 475 L 1258 482 L 1261 487 L 1261 489 L 1263 491 L 1264 494 L 1266 496 L 1267 499 L 1269 501 L 1271 505 L 1265 512 L 1264 511 L 1260 511 L 1257 514 L 1251 510 L 1244 510 L 1240 514 L 1239 518 L 1237 521 L 1237 524 L 1236 525 L 1236 530 L 1235 531 L 1234 535 L 1233 536 L 1226 536 L 1226 547 L 1225 548 L 1225 553 L 1228 558 L 1227 560 L 1217 555 L 1212 555 L 1208 558 L 1205 558 L 1203 556 L 1198 554 L 1196 552 L 1188 548 L 1179 548 L 1175 551 L 1174 551 L 1171 554 L 1167 554 L 1164 558 L 1164 561 L 1167 564 L 1167 566 L 1164 569 L 1164 570 L 1161 574 L 1160 584 L 1156 587 L 1156 597 L 1157 598 L 1157 604 L 1158 605 L 1158 608 L 1162 613 L 1166 613 L 1167 614 L 1169 614 L 1170 613 L 1172 616 L 1172 619 L 1174 622 L 1184 622 L 1185 623 L 1188 623 L 1191 625 L 1199 627 L 1200 626 L 1204 625 L 1204 624 L 1208 621 L 1209 622 L 1209 632 L 1210 634 L 1211 634 L 1212 636 L 1215 637 L 1216 639 L 1219 640 L 1225 646 L 1225 650 L 1227 651 L 1236 651 L 1237 650 L 1240 650 L 1246 647 L 1251 646 L 1254 644 L 1264 652 L 1268 654 L 1274 654 L 1275 655 L 1275 657 L 1277 661 L 1277 664 L 1281 665 L 1282 666 L 1287 666 L 1290 668 L 1290 670 L 1291 671 L 1291 675 L 1292 677 L 1296 677 L 1298 679 L 1298 694 L 1297 695 L 1297 697 L 1294 700 L 1294 701 L 1292 702 L 1288 709 L 1288 713 L 1289 715 L 1295 716 L 1297 718 L 1296 719 L 1296 722 L 1295 723 L 1295 730 L 1294 731 L 1289 731 L 1288 732 L 1288 738 L 1289 739 L 1288 741 L 1280 741 L 1274 744 L 1272 746 L 1270 746 L 1269 747 L 1258 747 L 1250 751 L 1249 753 L 1247 753 L 1243 755 L 1242 754 L 1242 749 L 1239 743 L 1235 738 L 1235 737 L 1231 733 L 1231 732 L 1230 732 L 1229 730 L 1226 728 L 1226 727 L 1224 725 L 1223 725 L 1217 720 L 1211 717 L 1207 717 L 1206 716 L 1194 717 L 1191 719 L 1186 720 L 1183 723 L 1182 723 L 1182 725 L 1181 726 L 1181 735 L 1182 736 L 1182 741 L 1183 742 L 1183 762 L 1182 763 L 1182 781 L 1181 782 L 1181 788 L 1172 797 L 1172 807 L 1171 809 L 1169 811 L 1162 814 L 1157 818 L 1155 818 L 1150 822 L 1148 822 L 1146 818 L 1135 819 L 1133 817 L 1130 811 L 1129 811 L 1125 807 L 1124 804 L 1129 799 L 1129 794 L 1126 788 L 1124 786 L 1124 785 L 1122 783 L 1118 776 L 1118 774 L 1116 770 L 1116 767 L 1115 766 L 1115 763 L 1114 761 L 1112 759 L 1112 758 L 1099 752 L 1097 750 L 1096 750 L 1094 747 L 1094 745 L 1093 744 L 1093 733 L 1092 732 L 1092 729 L 1091 729 L 1087 725 L 1086 723 L 1086 719 L 1087 717 L 1089 715 L 1090 715 L 1090 712 L 1088 711 L 1077 711 L 1076 710 L 1077 706 L 1078 705 L 1078 703 L 1079 702 L 1079 700 L 1081 698 L 1082 695 L 1089 688 L 1091 688 L 1092 687 L 1096 687 L 1096 685 L 1102 678 L 1102 672 L 1100 670 L 1096 670 L 1095 671 L 1089 672 L 1086 674 L 1083 674 L 1079 672 L 1075 668 L 1074 666 L 1074 664 L 1073 663 L 1073 658 L 1074 657 L 1075 652 L 1077 650 L 1079 645 L 1081 644 L 1081 643 L 1086 637 L 1086 634 L 1082 631 L 1082 629 L 1080 626 L 1074 623 L 1071 623 L 1068 621 L 1060 619 L 1051 611 L 1050 608 L 1048 606 L 1044 604 L 1035 604 L 1034 605 L 1031 605 L 1030 606 L 1028 606 L 1024 608 L 1022 610 L 1018 612 L 1014 616 L 1011 617 L 1009 619 L 1003 620 L 1002 621 L 992 622 L 991 623 L 984 623 L 983 624 L 979 624 L 975 626 L 967 636 L 966 636 L 961 640 L 960 639 L 960 635 L 962 631 L 964 630 L 965 628 L 967 626 L 968 626 L 971 622 L 971 619 L 972 618 L 972 615 L 973 614 L 974 609 L 965 601 L 965 599 L 966 598 L 968 598 L 968 597 L 970 595 L 970 589 L 969 588 L 969 586 L 967 582 L 967 577 L 968 576 L 968 560 L 967 559 L 967 557 L 964 551 L 962 549 L 956 552 L 951 556 L 950 555 L 950 552 L 962 546 L 962 532 L 963 531 L 963 524 L 964 523 L 964 519 L 965 518 L 965 515 L 967 511 L 967 508 L 966 507 L 966 505 L 964 501 L 960 499 L 958 499 L 949 490 L 946 489 L 944 487 L 942 487 L 940 485 L 940 472 L 939 471 L 937 463 L 936 463 L 934 461 L 934 460 L 933 460 L 930 457 L 932 455 L 933 455 L 936 451 L 936 448 L 935 447 L 934 442 L 930 436 L 930 433 L 933 430 L 933 422 L 931 420 L 930 415 L 928 412 L 929 411 L 934 411 L 934 410 L 937 407 L 938 405 L 938 402 L 939 401 L 939 397 L 938 396 L 937 391 L 935 388 L 935 386 L 937 383 L 937 381 L 939 377 L 939 371 L 938 370 L 938 366 L 937 365 L 937 363 L 936 362 L 936 360 L 934 356 L 933 346 L 932 345 L 934 336 L 937 332 L 938 328 L 937 326 L 936 326 L 934 324 L 934 323 L 933 323 L 930 320 L 930 315 L 931 314 L 931 311 L 932 310 L 932 304 L 930 300 L 929 300 L 926 297 L 924 297 L 920 294 L 921 286 L 923 283 L 923 281 L 931 273 L 933 273 L 937 276 L 939 276 L 940 277 L 942 277 L 946 279 L 955 279 L 956 280 L 959 280 L 963 284 L 964 284 L 966 287 L 969 287 L 971 284 L 971 280 L 970 280 L 969 278 L 964 273 L 965 272 L 967 273 L 979 273 L 979 268 L 980 267 L 980 264 L 981 263 L 981 260 L 982 259 L 985 258 L 987 256 L 989 256 L 994 252 L 996 252 L 998 250 L 1003 248 L 1005 246 L 1009 245 L 1011 243 L 1014 242 L 1018 239 L 1022 239 L 1024 240 L 1028 244 L 1029 244 L 1033 247 L 1036 246 L 1037 245 L 1037 243 L 1036 242 L 1036 236 L 1039 232 L 1041 227 L 1044 224 L 1044 223 Z" fill="none" stroke="#d7e8c7" stroke-width="1.6" stroke-linejoin="round" stroke-linecap="round"/>
<path d="M 1489 121 L 1494 121 L 1495 122 L 1502 122 L 1503 123 L 1509 123 L 1510 124 L 1534 124 L 1535 125 L 1540 125 L 1541 126 L 1543 126 L 1544 127 L 1546 127 L 1549 129 L 1553 130 L 1555 133 L 1557 133 L 1561 129 L 1563 128 L 1569 128 L 1570 129 L 1573 129 L 1577 131 L 1579 133 L 1581 133 L 1586 136 L 1596 137 L 1600 139 L 1602 141 L 1605 147 L 1606 152 L 1608 154 L 1610 154 L 1612 153 L 1613 151 L 1613 144 L 1612 143 L 1612 140 L 1613 139 L 1619 139 L 1621 137 L 1623 137 L 1634 126 L 1639 125 L 1640 123 L 1640 119 L 1639 118 L 1640 117 L 1644 117 L 1650 120 L 1658 120 L 1668 115 L 1675 115 L 1676 114 L 1676 106 L 1677 105 L 1678 105 L 1680 103 L 1683 103 L 1684 102 L 1687 102 L 1688 101 L 1693 101 L 1694 100 L 1697 100 L 1698 99 L 1710 99 L 1712 101 L 1714 101 L 1715 102 L 1721 102 L 1725 99 L 1728 98 L 1730 96 L 1732 96 L 1733 95 L 1733 86 L 1734 85 L 1739 85 L 1740 84 L 1742 84 L 1742 83 L 1749 75 L 1754 75 L 1757 79 L 1757 82 L 1761 82 L 1765 84 L 1767 86 L 1768 90 L 1770 93 L 1771 100 L 1774 104 L 1784 104 L 1785 103 L 1793 102 L 1794 101 L 1798 101 L 1799 100 L 1803 100 L 1804 99 L 1810 102 L 1814 102 L 1817 100 L 1818 97 L 1820 95 L 1822 91 L 1822 88 L 1824 85 L 1824 78 L 1825 77 L 1828 77 L 1828 72 L 1827 71 L 1827 68 L 1825 65 L 1825 62 L 1824 61 L 1826 58 L 1830 57 L 1832 58 L 1840 66 L 1842 70 L 1845 73 L 1845 74 L 1843 76 L 1842 81 L 1840 83 L 1840 85 L 1838 88 L 1838 90 L 1836 92 L 1836 95 L 1839 98 L 1842 99 L 1847 104 L 1846 118 L 1847 119 L 1847 121 L 1851 125 L 1855 126 L 1860 129 L 1867 130 L 1870 132 L 1886 132 L 1887 133 L 1890 133 L 1895 138 L 1896 142 L 1897 143 L 1900 143 L 1902 142 L 1903 143 L 1907 143 L 1909 144 L 1917 153 L 1917 154 L 1922 158 L 1928 159 L 1929 160 L 1933 160 L 1934 161 L 1938 161 L 1939 160 L 1942 160 L 1943 159 L 1947 161 L 1949 164 L 1952 164 L 1956 161 L 1962 161 L 1966 165 L 1966 169 L 1968 172 L 1977 172 L 1978 173 L 1982 174 L 1984 176 L 1986 180 L 1986 185 L 1987 186 L 1987 188 L 1989 189 L 1990 192 L 1992 193 L 1993 196 L 1996 199 L 1997 202 L 1999 203 L 1999 208 L 1995 211 L 1991 211 L 1990 212 L 1993 218 L 1993 220 L 1994 221 L 1994 228 L 1992 232 L 1992 235 L 1994 237 L 1994 238 L 1996 239 L 1997 241 L 1997 243 L 1996 244 L 1993 244 L 1992 247 L 1996 255 L 1997 261 L 2000 264 L 2002 264 L 2006 266 L 2006 269 L 2004 271 L 2003 275 L 2000 278 L 1999 278 L 1999 281 L 2000 281 L 2003 285 L 2003 288 L 2004 289 L 2004 296 L 2005 297 L 2005 300 L 2006 301 L 2006 304 L 2007 306 L 2010 309 L 2010 310 L 2012 311 L 2024 323 L 2024 326 L 2025 327 L 2025 332 L 2026 334 L 2028 336 L 2032 337 L 2034 339 L 2035 339 L 2038 342 L 2038 344 L 2040 346 L 2040 349 L 2041 350 L 2041 353 L 2042 354 L 2043 366 L 2044 367 L 2044 375 L 2043 376 L 2043 378 L 2041 380 L 2037 382 L 2037 385 L 2038 386 L 2040 386 L 2042 388 L 2043 393 L 2039 395 L 2037 400 L 2032 407 L 2032 413 L 2033 414 L 2033 416 L 2032 417 L 2032 419 L 2028 423 L 2028 433 L 2029 435 L 2030 435 L 2032 437 L 2032 438 L 2028 442 L 2027 444 L 2028 448 L 2030 451 L 2027 456 L 2027 464 L 2024 470 L 2022 472 L 2022 475 L 2024 477 L 2024 479 L 2025 480 L 2025 484 L 2023 486 L 2021 490 L 2021 495 L 2022 496 L 2022 499 L 2023 500 L 2023 505 L 2024 506 L 2024 513 L 2020 516 L 2016 516 L 2015 517 L 2015 524 L 2016 525 L 2016 530 L 2017 531 L 2017 542 L 2016 543 L 2016 547 L 2014 550 L 2014 553 L 2011 558 L 2010 563 L 2008 566 L 2008 569 L 2007 570 L 2007 581 L 2000 586 L 2000 592 L 1999 593 L 1999 601 L 1995 605 L 1993 606 L 1993 621 L 1992 622 L 1992 624 L 1990 626 L 1989 629 L 1987 630 L 1985 633 L 1981 635 L 1981 639 L 1982 640 L 1982 652 L 1983 654 L 1978 657 L 1974 658 L 1973 665 L 1972 666 L 1972 668 L 1969 674 L 1969 684 L 1970 685 L 1969 691 L 1965 693 L 1963 695 L 1961 695 L 1958 697 L 1956 701 L 1955 706 L 1953 709 L 1953 711 L 1951 713 L 1951 714 L 1948 717 L 1944 719 L 1941 725 L 1939 726 L 1939 727 L 1934 732 L 1934 733 L 1932 734 L 1932 735 L 1930 737 L 1929 737 L 1929 738 L 1927 740 L 1927 742 L 1925 743 L 1925 745 L 1924 746 L 1924 752 L 1929 759 L 1929 763 L 1928 764 L 1927 769 L 1925 771 L 1925 773 L 1922 777 L 1922 779 L 1918 786 L 1918 789 L 1917 790 L 1917 801 L 1914 806 L 1913 806 L 1911 804 L 1908 804 L 1906 806 L 1902 808 L 1895 808 L 1893 806 L 1885 805 L 1883 803 L 1882 800 L 1880 799 L 1874 804 L 1867 807 L 1865 805 L 1865 798 L 1862 792 L 1860 791 L 1851 791 L 1850 792 L 1848 791 L 1844 791 L 1838 785 L 1836 784 L 1833 784 L 1832 783 L 1826 783 L 1825 782 L 1819 782 L 1809 777 L 1807 775 L 1803 773 L 1803 767 L 1804 766 L 1804 763 L 1811 749 L 1811 745 L 1812 744 L 1813 734 L 1815 732 L 1815 731 L 1822 725 L 1821 724 L 1821 705 L 1820 704 L 1816 704 L 1815 705 L 1810 706 L 1807 708 L 1805 708 L 1802 710 L 1800 710 L 1798 712 L 1796 712 L 1789 716 L 1787 716 L 1780 720 L 1772 719 L 1766 714 L 1766 709 L 1767 708 L 1767 705 L 1769 703 L 1770 700 L 1777 693 L 1777 692 L 1779 690 L 1779 688 L 1781 684 L 1781 681 L 1783 678 L 1784 669 L 1785 668 L 1785 665 L 1786 664 L 1786 652 L 1779 646 L 1779 645 L 1771 636 L 1770 636 L 1766 633 L 1765 630 L 1761 630 L 1755 633 L 1750 634 L 1747 636 L 1746 635 L 1746 633 L 1748 631 L 1748 626 L 1746 624 L 1738 620 L 1730 620 L 1729 619 L 1727 619 L 1726 617 L 1727 616 L 1727 611 L 1728 610 L 1728 602 L 1729 601 L 1729 599 L 1727 596 L 1722 596 L 1720 597 L 1716 605 L 1715 610 L 1712 616 L 1711 616 L 1709 614 L 1707 610 L 1704 607 L 1702 606 L 1699 606 L 1698 607 L 1695 607 L 1693 609 L 1692 609 L 1690 612 L 1689 612 L 1682 619 L 1681 619 L 1679 621 L 1675 623 L 1668 623 L 1656 617 L 1653 613 L 1652 605 L 1647 602 L 1645 602 L 1643 600 L 1637 600 L 1631 603 L 1629 605 L 1625 606 L 1616 594 L 1616 592 L 1614 588 L 1614 582 L 1615 581 L 1615 578 L 1612 576 L 1607 576 L 1606 575 L 1602 575 L 1598 573 L 1589 572 L 1577 583 L 1574 579 L 1574 578 L 1573 578 L 1572 576 L 1568 572 L 1567 572 L 1564 569 L 1561 568 L 1557 565 L 1555 565 L 1552 563 L 1546 562 L 1545 561 L 1531 561 L 1528 564 L 1527 567 L 1524 570 L 1520 577 L 1518 579 L 1515 579 L 1507 570 L 1507 568 L 1505 564 L 1501 559 L 1499 559 L 1498 561 L 1497 561 L 1494 564 L 1490 566 L 1489 568 L 1488 568 L 1480 575 L 1461 575 L 1459 573 L 1458 573 L 1451 565 L 1448 565 L 1445 569 L 1445 571 L 1443 574 L 1443 580 L 1442 581 L 1440 581 L 1439 580 L 1423 580 L 1419 582 L 1417 584 L 1414 580 L 1410 580 L 1405 585 L 1404 587 L 1400 583 L 1400 582 L 1396 578 L 1394 577 L 1394 576 L 1391 573 L 1388 573 L 1387 575 L 1387 581 L 1383 585 L 1381 585 L 1380 586 L 1374 586 L 1369 581 L 1369 580 L 1367 579 L 1363 579 L 1362 578 L 1353 578 L 1352 577 L 1356 570 L 1356 566 L 1357 564 L 1359 562 L 1365 562 L 1366 561 L 1366 553 L 1365 551 L 1359 546 L 1359 544 L 1356 541 L 1355 538 L 1352 535 L 1352 534 L 1349 531 L 1348 528 L 1343 522 L 1341 518 L 1341 516 L 1340 515 L 1347 510 L 1349 510 L 1351 507 L 1351 501 L 1348 498 L 1348 497 L 1347 497 L 1342 493 L 1340 493 L 1339 492 L 1335 492 L 1334 493 L 1328 494 L 1326 496 L 1323 497 L 1321 499 L 1317 501 L 1314 501 L 1308 496 L 1304 494 L 1300 490 L 1297 482 L 1295 481 L 1291 481 L 1287 483 L 1283 483 L 1276 476 L 1276 475 L 1280 471 L 1281 471 L 1285 468 L 1287 468 L 1291 465 L 1291 459 L 1287 456 L 1286 456 L 1283 453 L 1282 451 L 1282 448 L 1277 448 L 1275 446 L 1275 444 L 1277 442 L 1281 442 L 1282 441 L 1284 441 L 1284 435 L 1285 434 L 1287 435 L 1293 435 L 1297 430 L 1300 430 L 1301 429 L 1301 422 L 1294 417 L 1295 416 L 1300 415 L 1303 413 L 1302 411 L 1302 407 L 1301 406 L 1301 402 L 1310 397 L 1310 395 L 1308 393 L 1305 393 L 1302 391 L 1299 391 L 1298 390 L 1298 389 L 1301 386 L 1301 384 L 1302 383 L 1302 377 L 1301 376 L 1300 372 L 1298 370 L 1295 364 L 1294 359 L 1295 358 L 1295 356 L 1298 350 L 1300 348 L 1301 345 L 1303 343 L 1307 335 L 1307 333 L 1308 332 L 1308 325 L 1309 324 L 1314 324 L 1315 325 L 1325 325 L 1327 323 L 1325 319 L 1325 315 L 1324 314 L 1324 311 L 1322 308 L 1321 302 L 1317 295 L 1311 288 L 1310 281 L 1311 280 L 1312 281 L 1327 281 L 1332 287 L 1345 287 L 1346 286 L 1351 286 L 1355 284 L 1355 280 L 1360 277 L 1365 276 L 1368 274 L 1376 272 L 1381 266 L 1390 266 L 1392 267 L 1395 271 L 1395 274 L 1394 275 L 1394 285 L 1395 286 L 1403 286 L 1404 287 L 1410 287 L 1409 276 L 1411 274 L 1414 273 L 1413 266 L 1415 264 L 1420 263 L 1421 262 L 1419 258 L 1420 256 L 1423 253 L 1424 253 L 1426 251 L 1430 249 L 1433 246 L 1434 246 L 1436 242 L 1436 239 L 1435 237 L 1433 236 L 1436 233 L 1436 230 L 1433 227 L 1436 224 L 1437 224 L 1440 221 L 1441 221 L 1444 218 L 1445 218 L 1445 215 L 1443 215 L 1440 212 L 1440 210 L 1441 209 L 1441 201 L 1438 198 L 1437 198 L 1434 195 L 1433 195 L 1429 191 L 1428 187 L 1432 184 L 1433 185 L 1437 185 L 1439 187 L 1444 188 L 1447 190 L 1455 190 L 1459 186 L 1459 180 L 1455 176 L 1454 172 L 1455 171 L 1457 171 L 1461 169 L 1464 166 L 1465 164 L 1465 161 L 1466 160 L 1466 157 L 1468 153 L 1468 149 L 1470 145 L 1473 142 L 1475 141 L 1483 141 L 1484 142 L 1488 142 L 1489 141 L 1489 139 L 1486 135 L 1486 131 L 1485 130 L 1486 129 L 1486 125 Z" fill="none" stroke="#d7e8c7" stroke-width="1.6" stroke-linejoin="round" stroke-linecap="round"/>
<path d="M 799 16 L 802 18 L 804 22 L 809 22 L 812 24 L 812 26 L 813 27 L 812 39 L 815 44 L 820 44 L 824 41 L 826 41 L 832 38 L 834 39 L 834 40 L 838 45 L 840 50 L 842 52 L 843 55 L 845 57 L 847 62 L 849 64 L 850 67 L 855 74 L 857 75 L 861 75 L 862 74 L 864 74 L 866 72 L 867 72 L 873 66 L 874 64 L 877 67 L 877 68 L 879 69 L 883 76 L 888 82 L 892 82 L 893 81 L 895 81 L 897 83 L 897 90 L 888 107 L 888 111 L 891 115 L 896 116 L 900 121 L 906 121 L 907 120 L 910 120 L 915 123 L 915 127 L 916 128 L 916 131 L 917 132 L 918 140 L 921 146 L 928 156 L 928 159 L 929 160 L 929 166 L 928 167 L 927 173 L 925 175 L 925 177 L 923 181 L 923 185 L 922 186 L 921 185 L 916 185 L 915 186 L 915 196 L 914 197 L 914 205 L 918 210 L 918 211 L 919 211 L 925 216 L 925 217 L 927 219 L 927 223 L 925 225 L 922 231 L 919 234 L 915 236 L 911 240 L 911 242 L 910 243 L 910 248 L 913 250 L 917 250 L 925 243 L 927 245 L 927 256 L 926 257 L 926 260 L 925 261 L 925 265 L 928 268 L 927 271 L 923 275 L 922 275 L 919 279 L 919 281 L 918 282 L 918 286 L 917 287 L 917 291 L 916 292 L 916 295 L 915 296 L 917 298 L 919 298 L 921 300 L 924 301 L 928 305 L 928 310 L 927 311 L 926 321 L 928 325 L 929 325 L 934 329 L 932 331 L 932 333 L 929 338 L 928 346 L 929 347 L 929 353 L 931 356 L 932 363 L 934 366 L 934 369 L 935 370 L 935 377 L 932 383 L 932 391 L 935 397 L 935 402 L 931 407 L 929 407 L 928 406 L 925 406 L 924 407 L 925 415 L 927 418 L 927 420 L 929 424 L 929 428 L 927 430 L 925 435 L 929 443 L 931 445 L 932 450 L 928 453 L 927 453 L 926 455 L 925 455 L 925 458 L 927 460 L 927 461 L 928 461 L 934 467 L 935 469 L 935 473 L 936 474 L 936 489 L 937 490 L 941 490 L 945 493 L 946 493 L 955 502 L 959 503 L 963 508 L 962 515 L 960 518 L 960 522 L 959 523 L 959 536 L 958 537 L 958 544 L 947 549 L 946 551 L 946 557 L 948 561 L 951 561 L 956 557 L 958 557 L 959 555 L 961 555 L 962 556 L 963 560 L 964 561 L 964 575 L 963 576 L 963 583 L 966 589 L 966 594 L 965 595 L 958 595 L 949 590 L 928 590 L 927 594 L 925 596 L 925 598 L 923 602 L 921 602 L 911 597 L 909 599 L 908 599 L 898 609 L 894 608 L 892 606 L 892 600 L 885 600 L 882 602 L 872 603 L 867 599 L 866 600 L 862 600 L 859 602 L 855 602 L 854 603 L 851 603 L 850 604 L 847 604 L 846 605 L 844 605 L 843 606 L 839 606 L 838 607 L 821 607 L 820 606 L 820 604 L 818 602 L 818 600 L 815 600 L 813 602 L 806 606 L 803 609 L 797 612 L 796 611 L 788 609 L 787 607 L 786 607 L 782 603 L 782 595 L 781 594 L 781 578 L 777 574 L 777 561 L 766 562 L 765 561 L 765 556 L 764 555 L 758 558 L 753 559 L 751 561 L 749 561 L 741 565 L 739 565 L 734 568 L 728 567 L 727 566 L 723 566 L 722 565 L 717 565 L 716 564 L 714 564 L 710 568 L 704 571 L 699 571 L 698 570 L 693 569 L 689 566 L 688 566 L 687 565 L 691 563 L 691 560 L 688 558 L 686 558 L 682 555 L 670 555 L 666 558 L 665 558 L 662 561 L 660 561 L 648 555 L 646 558 L 646 564 L 645 565 L 644 563 L 639 559 L 627 571 L 627 575 L 629 576 L 631 581 L 636 588 L 635 589 L 633 589 L 629 592 L 626 590 L 623 590 L 622 589 L 619 589 L 618 588 L 615 588 L 614 587 L 611 587 L 610 588 L 608 588 L 604 590 L 597 590 L 596 589 L 592 589 L 590 591 L 590 593 L 587 598 L 585 598 L 584 599 L 579 599 L 578 600 L 578 610 L 582 613 L 582 617 L 580 619 L 576 620 L 575 621 L 575 623 L 576 624 L 576 626 L 578 628 L 579 633 L 585 634 L 588 636 L 594 637 L 596 636 L 597 634 L 604 630 L 607 626 L 609 628 L 609 629 L 615 630 L 623 636 L 626 637 L 627 639 L 630 640 L 634 643 L 634 654 L 633 655 L 631 654 L 627 654 L 626 655 L 622 663 L 620 665 L 619 668 L 617 670 L 615 674 L 611 674 L 610 673 L 604 672 L 598 679 L 593 677 L 591 675 L 587 675 L 581 679 L 579 678 L 572 671 L 571 667 L 566 667 L 554 674 L 547 668 L 542 667 L 539 665 L 525 665 L 524 663 L 527 660 L 529 660 L 530 659 L 530 646 L 529 645 L 530 643 L 530 640 L 529 639 L 520 639 L 519 638 L 516 638 L 514 637 L 510 633 L 509 631 L 509 623 L 510 622 L 510 602 L 507 600 L 491 599 L 490 598 L 484 597 L 483 596 L 483 588 L 482 587 L 482 582 L 478 582 L 475 586 L 475 587 L 472 589 L 454 589 L 450 592 L 449 592 L 447 590 L 445 586 L 442 583 L 435 583 L 430 588 L 425 588 L 423 586 L 420 585 L 417 581 L 417 579 L 418 578 L 418 572 L 415 571 L 407 565 L 401 565 L 394 573 L 391 573 L 388 571 L 384 571 L 380 574 L 376 575 L 368 566 L 364 566 L 360 568 L 354 568 L 351 566 L 346 565 L 342 562 L 341 562 L 338 558 L 338 554 L 341 550 L 341 549 L 343 547 L 344 547 L 348 542 L 349 538 L 345 534 L 341 532 L 335 531 L 334 530 L 330 530 L 326 528 L 323 528 L 321 525 L 322 511 L 324 509 L 329 499 L 331 497 L 332 489 L 331 488 L 331 486 L 317 486 L 316 485 L 311 485 L 310 484 L 314 482 L 314 481 L 317 478 L 318 472 L 319 471 L 321 463 L 325 459 L 325 456 L 321 452 L 321 449 L 320 448 L 320 445 L 321 444 L 321 431 L 318 425 L 317 417 L 315 415 L 309 415 L 307 413 L 307 408 L 304 406 L 304 404 L 306 401 L 306 398 L 307 397 L 307 392 L 306 391 L 306 384 L 304 381 L 301 381 L 297 378 L 297 368 L 292 359 L 295 356 L 297 357 L 301 357 L 302 356 L 303 352 L 306 349 L 309 349 L 310 348 L 317 348 L 319 346 L 320 346 L 320 336 L 318 332 L 318 326 L 320 323 L 320 315 L 319 314 L 318 308 L 317 307 L 316 298 L 310 298 L 309 297 L 309 295 L 313 290 L 313 288 L 309 284 L 308 282 L 308 275 L 310 273 L 310 271 L 318 262 L 319 258 L 318 257 L 315 257 L 314 256 L 315 255 L 315 253 L 314 252 L 314 250 L 312 249 L 311 247 L 303 246 L 298 243 L 298 232 L 297 231 L 296 225 L 293 219 L 297 216 L 300 216 L 301 215 L 305 214 L 305 213 L 308 211 L 308 209 L 310 206 L 310 203 L 309 202 L 310 200 L 312 199 L 315 199 L 316 198 L 322 198 L 324 197 L 325 188 L 327 184 L 327 179 L 323 177 L 320 174 L 320 163 L 319 162 L 319 156 L 324 151 L 327 145 L 332 140 L 337 139 L 342 135 L 343 131 L 344 130 L 345 120 L 346 119 L 351 125 L 377 125 L 380 119 L 382 120 L 383 119 L 386 119 L 388 118 L 391 115 L 391 114 L 395 109 L 396 109 L 400 106 L 406 106 L 413 99 L 418 102 L 424 102 L 425 101 L 429 101 L 432 99 L 439 99 L 442 101 L 444 101 L 445 102 L 449 102 L 450 103 L 455 103 L 456 102 L 458 102 L 458 91 L 460 88 L 463 87 L 465 85 L 465 83 L 467 79 L 469 77 L 471 79 L 472 79 L 473 81 L 475 81 L 476 82 L 491 81 L 492 83 L 487 88 L 487 89 L 489 91 L 493 91 L 496 89 L 502 88 L 504 84 L 504 81 L 506 79 L 515 79 L 518 81 L 521 81 L 522 82 L 529 82 L 529 80 L 532 77 L 539 77 L 540 76 L 540 72 L 543 70 L 547 69 L 551 61 L 553 62 L 555 67 L 559 67 L 562 64 L 563 64 L 563 63 L 566 60 L 567 60 L 569 58 L 576 58 L 577 59 L 577 62 L 576 64 L 573 67 L 568 69 L 566 71 L 566 73 L 567 74 L 570 74 L 573 71 L 575 71 L 576 70 L 578 70 L 579 69 L 581 69 L 585 67 L 588 67 L 592 64 L 593 60 L 596 57 L 598 57 L 602 54 L 603 52 L 603 47 L 604 46 L 604 44 L 614 26 L 616 25 L 619 25 L 620 24 L 632 24 L 634 26 L 636 26 L 640 29 L 642 29 L 644 31 L 646 31 L 653 36 L 655 36 L 656 37 L 664 39 L 668 37 L 670 35 L 671 32 L 674 28 L 674 26 L 676 24 L 678 20 L 684 19 L 686 17 L 689 17 L 690 16 L 695 15 L 702 9 L 702 6 L 705 3 L 707 3 L 715 8 L 716 12 L 718 15 L 718 22 L 719 23 L 719 28 L 720 29 L 725 29 L 727 27 L 731 26 L 733 22 L 735 20 L 737 20 L 738 21 L 738 25 L 737 26 L 737 34 L 740 37 L 746 40 L 751 40 L 753 39 L 753 38 L 756 35 L 758 35 L 763 39 L 763 40 L 768 46 L 770 46 L 770 45 L 772 44 L 774 40 L 774 34 L 775 33 L 776 34 L 783 34 L 786 31 L 786 28 L 785 27 L 785 22 L 784 21 L 785 20 L 789 21 L 791 20 L 795 16 Z" fill="none" stroke="#d7e8c7" stroke-width="1.6" stroke-linejoin="round" stroke-linecap="round"/>
<path d="M 1988 174 L 1987 174 L 1986 172 L 1982 169 L 1980 169 L 1979 168 L 1971 168 L 1970 167 L 1969 162 L 1965 158 L 1962 158 L 1961 157 L 1956 157 L 1955 158 L 1953 158 L 1951 160 L 1950 158 L 1949 158 L 1945 155 L 1942 155 L 1938 157 L 1933 157 L 1930 155 L 1926 155 L 1922 153 L 1921 151 L 1912 141 L 1908 140 L 1907 139 L 1905 139 L 1904 138 L 1900 138 L 1898 134 L 1893 130 L 1891 130 L 1890 129 L 1883 129 L 1882 128 L 1872 128 L 1871 127 L 1864 126 L 1861 124 L 1859 124 L 1858 123 L 1854 122 L 1851 119 L 1851 117 L 1850 116 L 1850 114 L 1851 113 L 1851 102 L 1849 100 L 1849 99 L 1848 99 L 1845 96 L 1841 94 L 1841 92 L 1845 84 L 1845 82 L 1848 78 L 1848 76 L 1849 75 L 1849 71 L 1845 67 L 1844 64 L 1842 63 L 1841 60 L 1838 57 L 1837 57 L 1833 54 L 1826 54 L 1825 55 L 1823 55 L 1820 58 L 1820 61 L 1821 62 L 1821 65 L 1822 66 L 1822 69 L 1823 71 L 1820 73 L 1821 81 L 1819 84 L 1818 90 L 1816 92 L 1816 94 L 1812 98 L 1809 96 L 1797 96 L 1796 97 L 1792 97 L 1789 99 L 1785 99 L 1784 100 L 1777 100 L 1774 96 L 1773 89 L 1772 88 L 1772 86 L 1770 82 L 1767 81 L 1765 79 L 1761 79 L 1760 78 L 1760 75 L 1757 72 L 1755 71 L 1749 71 L 1748 72 L 1746 72 L 1738 81 L 1735 81 L 1732 79 L 1729 79 L 1729 92 L 1725 95 L 1723 95 L 1718 99 L 1710 95 L 1701 95 L 1700 96 L 1692 96 L 1691 97 L 1686 97 L 1683 99 L 1680 99 L 1674 102 L 1672 105 L 1672 110 L 1671 111 L 1664 112 L 1657 116 L 1653 117 L 1646 113 L 1638 113 L 1636 114 L 1635 116 L 1636 117 L 1636 120 L 1634 122 L 1631 123 L 1621 133 L 1620 133 L 1618 135 L 1616 136 L 1613 136 L 1611 135 L 1608 138 L 1608 141 L 1607 142 L 1606 141 L 1605 137 L 1604 137 L 1602 135 L 1600 134 L 1597 134 L 1596 133 L 1591 133 L 1590 132 L 1585 131 L 1571 124 L 1562 124 L 1557 127 L 1555 127 L 1554 126 L 1552 126 L 1550 124 L 1548 124 L 1547 123 L 1545 123 L 1541 121 L 1537 121 L 1536 120 L 1508 120 L 1507 119 L 1501 119 L 1500 118 L 1497 118 L 1496 117 L 1486 117 L 1484 119 L 1483 121 L 1483 124 L 1482 125 L 1482 135 L 1483 136 L 1482 137 L 1474 137 L 1473 138 L 1471 138 L 1468 141 L 1468 142 L 1466 143 L 1465 149 L 1463 152 L 1462 161 L 1459 165 L 1458 165 L 1454 168 L 1452 168 L 1451 170 L 1448 172 L 1448 175 L 1455 182 L 1455 184 L 1453 186 L 1449 186 L 1448 185 L 1443 184 L 1437 181 L 1427 181 L 1425 183 L 1425 192 L 1426 194 L 1428 196 L 1428 197 L 1429 197 L 1432 200 L 1436 202 L 1438 205 L 1436 209 L 1436 214 L 1438 216 L 1438 217 L 1428 225 L 1428 228 L 1431 231 L 1427 234 L 1427 237 L 1432 241 L 1427 246 L 1424 247 L 1423 249 L 1421 249 L 1419 251 L 1418 251 L 1418 252 L 1415 256 L 1415 259 L 1410 263 L 1410 265 L 1409 266 L 1409 269 L 1410 270 L 1405 274 L 1405 281 L 1404 282 L 1399 282 L 1398 281 L 1398 277 L 1399 276 L 1399 269 L 1397 267 L 1397 266 L 1396 266 L 1393 263 L 1385 261 L 1384 262 L 1378 263 L 1370 270 L 1367 270 L 1366 271 L 1364 271 L 1362 273 L 1359 273 L 1358 274 L 1354 275 L 1349 282 L 1344 282 L 1343 283 L 1334 283 L 1330 278 L 1316 278 L 1310 275 L 1307 275 L 1306 276 L 1306 286 L 1307 287 L 1307 289 L 1306 290 L 1283 290 L 1282 291 L 1278 292 L 1278 293 L 1275 296 L 1275 298 L 1273 300 L 1271 298 L 1271 292 L 1267 290 L 1263 290 L 1260 292 L 1260 293 L 1258 295 L 1258 297 L 1256 299 L 1244 299 L 1243 298 L 1237 298 L 1236 297 L 1234 297 L 1232 295 L 1232 294 L 1231 294 L 1228 291 L 1222 291 L 1221 292 L 1217 293 L 1213 289 L 1211 288 L 1208 289 L 1206 291 L 1206 293 L 1202 295 L 1189 295 L 1188 294 L 1173 294 L 1172 295 L 1169 295 L 1167 292 L 1166 285 L 1164 281 L 1160 279 L 1154 279 L 1153 280 L 1147 281 L 1143 284 L 1142 284 L 1139 287 L 1138 287 L 1138 288 L 1136 290 L 1135 290 L 1132 287 L 1128 286 L 1125 283 L 1125 272 L 1124 271 L 1123 266 L 1121 264 L 1114 264 L 1113 263 L 1109 263 L 1106 261 L 1101 260 L 1098 258 L 1092 257 L 1089 255 L 1089 247 L 1083 246 L 1081 244 L 1075 241 L 1067 241 L 1066 242 L 1065 241 L 1065 238 L 1064 236 L 1055 227 L 1054 223 L 1053 222 L 1053 219 L 1052 219 L 1050 217 L 1045 217 L 1041 220 L 1041 221 L 1035 229 L 1034 233 L 1032 235 L 1032 240 L 1031 241 L 1029 239 L 1028 239 L 1027 237 L 1025 237 L 1024 236 L 1016 236 L 1015 237 L 1013 237 L 1012 239 L 1010 239 L 1000 244 L 998 246 L 988 251 L 986 253 L 984 253 L 981 256 L 979 256 L 977 258 L 976 268 L 975 269 L 969 269 L 968 268 L 958 268 L 957 269 L 957 271 L 960 275 L 959 276 L 957 275 L 949 275 L 948 274 L 943 274 L 935 270 L 931 267 L 929 263 L 930 261 L 930 254 L 931 253 L 931 245 L 930 244 L 929 240 L 928 239 L 924 239 L 919 243 L 918 243 L 915 246 L 914 245 L 914 243 L 918 239 L 921 238 L 921 237 L 923 236 L 925 233 L 926 233 L 928 228 L 930 226 L 930 222 L 931 221 L 930 219 L 930 216 L 925 210 L 921 208 L 920 206 L 918 205 L 918 195 L 919 194 L 919 190 L 920 189 L 924 191 L 926 191 L 927 190 L 927 181 L 928 180 L 928 178 L 930 176 L 930 174 L 931 173 L 931 171 L 933 167 L 933 159 L 932 158 L 932 156 L 931 155 L 930 151 L 924 143 L 923 139 L 921 136 L 921 133 L 920 132 L 920 127 L 918 123 L 918 120 L 914 117 L 903 117 L 899 113 L 897 112 L 894 112 L 892 109 L 894 105 L 894 103 L 896 102 L 896 100 L 899 96 L 900 90 L 901 89 L 901 84 L 900 83 L 899 79 L 897 78 L 890 78 L 887 74 L 887 73 L 884 70 L 882 66 L 877 61 L 871 61 L 870 63 L 864 69 L 863 69 L 861 71 L 858 71 L 856 69 L 854 64 L 852 62 L 851 59 L 846 52 L 841 42 L 838 39 L 837 35 L 835 33 L 832 33 L 818 40 L 816 38 L 816 35 L 817 34 L 817 25 L 815 21 L 811 18 L 807 18 L 803 13 L 799 13 L 798 12 L 796 13 L 791 13 L 788 17 L 784 16 L 783 15 L 781 15 L 780 17 L 781 18 L 781 29 L 780 30 L 776 30 L 773 28 L 769 28 L 768 29 L 768 31 L 770 34 L 770 39 L 769 40 L 767 38 L 767 37 L 762 32 L 760 31 L 753 31 L 749 36 L 743 34 L 741 32 L 741 27 L 742 26 L 742 17 L 739 17 L 738 16 L 732 17 L 726 24 L 723 25 L 722 24 L 722 17 L 721 16 L 721 11 L 719 9 L 718 5 L 711 0 L 701 0 L 699 2 L 698 7 L 695 10 L 691 11 L 689 13 L 683 14 L 680 16 L 677 16 L 675 17 L 672 21 L 670 27 L 665 34 L 659 34 L 651 30 L 649 28 L 645 27 L 643 25 L 632 20 L 626 20 L 625 21 L 614 21 L 612 22 L 610 24 L 605 34 L 603 36 L 602 40 L 600 42 L 600 45 L 599 46 L 599 51 L 597 53 L 593 54 L 589 58 L 589 61 L 584 64 L 582 64 L 581 63 L 581 56 L 577 55 L 576 54 L 568 54 L 564 56 L 558 62 L 556 60 L 554 56 L 551 56 L 547 59 L 547 60 L 545 62 L 545 64 L 543 66 L 541 66 L 537 69 L 537 71 L 535 73 L 530 73 L 525 78 L 522 78 L 519 76 L 515 76 L 514 75 L 504 75 L 501 78 L 500 78 L 500 84 L 499 85 L 497 85 L 496 84 L 496 83 L 498 81 L 498 77 L 486 77 L 485 78 L 477 78 L 474 75 L 473 75 L 472 73 L 468 73 L 463 77 L 462 79 L 462 82 L 460 84 L 456 86 L 455 90 L 454 91 L 454 97 L 455 98 L 454 99 L 448 99 L 445 97 L 439 96 L 438 95 L 433 95 L 432 96 L 428 96 L 427 97 L 424 97 L 423 98 L 420 98 L 417 96 L 410 96 L 408 97 L 408 98 L 404 102 L 396 103 L 394 105 L 393 105 L 391 107 L 391 108 L 383 116 L 376 115 L 375 119 L 373 121 L 353 121 L 347 113 L 344 113 L 343 114 L 343 116 L 342 117 L 342 119 L 340 123 L 340 129 L 339 130 L 339 132 L 334 136 L 329 137 L 324 142 L 321 148 L 316 153 L 315 153 L 316 177 L 319 180 L 321 180 L 323 182 L 322 183 L 322 187 L 321 188 L 321 193 L 317 195 L 305 196 L 305 208 L 300 212 L 297 212 L 296 213 L 288 215 L 288 219 L 291 224 L 292 229 L 294 232 L 294 236 L 295 237 L 294 246 L 296 248 L 298 248 L 299 249 L 307 250 L 311 253 L 311 258 L 310 259 L 310 262 L 311 263 L 308 266 L 305 272 L 305 286 L 308 289 L 305 294 L 305 300 L 306 301 L 311 301 L 312 302 L 312 304 L 314 308 L 314 311 L 315 312 L 315 315 L 316 316 L 316 321 L 315 322 L 315 326 L 314 327 L 314 331 L 315 332 L 315 336 L 316 337 L 316 343 L 312 345 L 306 345 L 305 346 L 303 346 L 297 353 L 292 353 L 288 358 L 288 360 L 290 363 L 290 365 L 292 367 L 292 369 L 293 370 L 293 379 L 296 383 L 302 386 L 302 400 L 299 406 L 301 410 L 303 411 L 303 414 L 305 418 L 311 418 L 314 420 L 314 425 L 315 426 L 316 431 L 318 434 L 318 438 L 317 439 L 317 442 L 316 443 L 316 450 L 318 453 L 318 455 L 320 457 L 316 464 L 316 467 L 315 468 L 315 471 L 314 472 L 313 476 L 309 480 L 303 483 L 298 484 L 297 485 L 297 488 L 299 488 L 300 489 L 327 489 L 328 490 L 328 493 L 326 496 L 326 498 L 323 501 L 318 511 L 318 529 L 319 531 L 321 531 L 325 533 L 335 534 L 345 539 L 336 549 L 335 551 L 335 554 L 334 555 L 336 563 L 341 567 L 345 568 L 353 572 L 359 572 L 360 571 L 364 571 L 366 570 L 369 573 L 370 576 L 374 579 L 379 579 L 380 578 L 382 578 L 386 575 L 389 577 L 396 577 L 404 568 L 414 575 L 414 584 L 415 586 L 417 587 L 417 588 L 420 589 L 422 591 L 424 591 L 425 592 L 431 592 L 436 588 L 437 588 L 438 586 L 439 586 L 442 589 L 442 590 L 446 595 L 453 595 L 457 592 L 475 592 L 478 590 L 479 591 L 479 600 L 480 601 L 485 601 L 486 602 L 493 602 L 494 603 L 501 603 L 502 604 L 505 604 L 507 606 L 507 612 L 506 613 L 506 634 L 507 636 L 514 642 L 524 643 L 525 644 L 527 656 L 526 657 L 524 657 L 521 660 L 521 667 L 523 669 L 529 669 L 530 668 L 533 668 L 534 669 L 541 670 L 548 674 L 552 678 L 555 678 L 559 675 L 565 673 L 567 671 L 569 673 L 571 677 L 574 680 L 578 682 L 576 684 L 576 701 L 578 705 L 578 710 L 580 714 L 578 716 L 578 726 L 584 726 L 586 728 L 586 729 L 588 730 L 588 732 L 590 734 L 590 735 L 595 740 L 589 746 L 589 748 L 587 750 L 584 747 L 578 747 L 576 749 L 572 751 L 569 751 L 565 753 L 547 753 L 545 751 L 540 750 L 539 751 L 536 751 L 534 753 L 530 754 L 527 756 L 526 755 L 526 751 L 521 748 L 517 749 L 516 750 L 513 750 L 507 754 L 507 756 L 506 757 L 506 759 L 508 761 L 507 763 L 499 763 L 498 764 L 496 764 L 494 765 L 484 774 L 476 774 L 476 777 L 477 778 L 477 781 L 479 784 L 479 786 L 468 795 L 469 799 L 470 800 L 470 807 L 469 808 L 469 811 L 468 812 L 463 812 L 462 813 L 459 813 L 458 812 L 458 809 L 459 808 L 459 799 L 458 798 L 452 798 L 444 806 L 434 805 L 433 804 L 433 802 L 432 802 L 430 800 L 428 800 L 426 802 L 426 807 L 424 809 L 424 810 L 420 812 L 417 815 L 414 816 L 414 817 L 411 819 L 410 821 L 410 831 L 409 832 L 400 833 L 396 835 L 391 835 L 388 831 L 387 828 L 383 827 L 382 828 L 380 828 L 379 829 L 379 831 L 378 832 L 376 832 L 374 834 L 374 836 L 373 837 L 371 837 L 369 839 L 365 841 L 359 840 L 358 839 L 356 839 L 352 837 L 350 838 L 347 842 L 345 840 L 335 840 L 332 842 L 330 842 L 327 839 L 319 835 L 316 832 L 316 829 L 317 828 L 317 822 L 322 819 L 324 819 L 327 815 L 327 810 L 329 808 L 331 808 L 335 804 L 335 801 L 336 800 L 336 797 L 337 796 L 337 786 L 333 778 L 329 777 L 328 776 L 322 776 L 321 777 L 320 776 L 320 774 L 318 770 L 318 767 L 314 759 L 313 755 L 311 753 L 310 750 L 309 750 L 307 747 L 303 745 L 297 745 L 296 746 L 294 746 L 291 748 L 289 753 L 287 755 L 285 755 L 284 756 L 279 756 L 278 757 L 274 757 L 270 754 L 267 753 L 265 751 L 262 750 L 260 748 L 254 745 L 252 745 L 236 753 L 233 753 L 226 748 L 222 748 L 217 751 L 215 751 L 212 753 L 210 753 L 209 754 L 209 763 L 208 764 L 203 763 L 201 761 L 198 761 L 197 760 L 182 760 L 181 762 L 184 767 L 184 770 L 185 771 L 185 777 L 181 785 L 176 789 L 174 789 L 173 790 L 170 788 L 164 788 L 162 789 L 159 792 L 158 792 L 158 793 L 153 799 L 151 799 L 144 805 L 140 813 L 137 816 L 136 816 L 135 818 L 135 823 L 137 826 L 139 827 L 143 827 L 144 828 L 148 828 L 149 829 L 153 829 L 155 831 L 155 844 L 156 845 L 156 852 L 155 853 L 148 853 L 145 857 L 146 861 L 151 869 L 150 872 L 148 873 L 147 875 L 147 883 L 148 884 L 147 887 L 146 888 L 137 888 L 136 887 L 129 888 L 129 892 L 127 896 L 127 899 L 128 900 L 132 901 L 134 903 L 137 904 L 140 907 L 142 907 L 143 908 L 145 908 L 149 910 L 156 910 L 157 911 L 162 911 L 165 913 L 167 917 L 167 921 L 166 922 L 166 925 L 165 926 L 164 930 L 161 932 L 157 932 L 156 933 L 154 933 L 148 938 L 148 940 L 145 944 L 139 946 L 135 950 L 134 950 L 130 958 L 129 965 L 127 969 L 127 976 L 126 977 L 126 1008 L 127 1009 L 127 1016 L 128 1017 L 128 1020 L 129 1021 L 129 1025 L 130 1026 L 131 1033 L 133 1037 L 134 1043 L 136 1045 L 137 1051 L 141 1054 L 150 1054 L 151 1055 L 153 1055 L 159 1058 L 160 1060 L 159 1061 L 145 1061 L 141 1059 L 134 1058 L 131 1056 L 127 1056 L 123 1058 L 118 1058 L 116 1060 L 116 1062 L 115 1063 L 114 1062 L 109 1062 L 105 1065 L 104 1065 L 101 1063 L 94 1063 L 92 1064 L 88 1060 L 87 1058 L 83 1057 L 81 1058 L 77 1062 L 76 1062 L 74 1065 L 70 1066 L 68 1068 L 66 1068 L 65 1069 L 61 1070 L 61 1071 L 59 1073 L 59 1075 L 58 1076 L 56 1076 L 55 1075 L 55 1061 L 57 1059 L 57 1054 L 56 1054 L 53 1051 L 53 1047 L 52 1046 L 49 1046 L 48 1045 L 34 1044 L 30 1046 L 28 1048 L 25 1049 L 23 1051 L 20 1049 L 18 1050 L 16 1052 L 16 1056 L 14 1060 L 12 1062 L 10 1061 L 6 1061 L 1 1067 L 1 1069 L 10 1078 L 10 1079 L 15 1079 L 16 1080 L 12 1083 L 10 1083 L 7 1085 L 4 1085 L 2 1086 L 1 1088 L 1 1091 L 3 1094 L 3 1098 L 0 1100 L 0 1107 L 1 1108 L 1 1112 L 2 1114 L 4 1116 L 5 1116 L 7 1118 L 7 1119 L 8 1119 L 10 1121 L 17 1120 L 24 1125 L 28 1125 L 29 1124 L 38 1123 L 41 1125 L 43 1125 L 47 1129 L 49 1129 L 52 1131 L 54 1131 L 59 1127 L 60 1127 L 64 1123 L 68 1115 L 69 1116 L 71 1116 L 75 1120 L 75 1129 L 76 1131 L 73 1134 L 75 1138 L 74 1139 L 71 1139 L 70 1141 L 70 1149 L 69 1150 L 58 1150 L 54 1152 L 50 1152 L 48 1154 L 48 1158 L 47 1159 L 45 1159 L 41 1162 L 34 1162 L 33 1164 L 33 1166 L 34 1167 L 31 1170 L 31 1180 L 32 1182 L 33 1182 L 35 1184 L 38 1184 L 43 1181 L 47 1180 L 49 1178 L 50 1178 L 54 1173 L 56 1173 L 66 1180 L 66 1185 L 71 1185 L 75 1182 L 76 1182 L 78 1184 L 80 1184 L 82 1182 L 84 1182 L 85 1183 L 89 1184 L 94 1179 L 98 1178 L 107 1186 L 119 1186 L 120 1187 L 120 1189 L 123 1192 L 124 1192 L 126 1194 L 129 1195 L 133 1198 L 133 1211 L 135 1211 L 136 1212 L 140 1212 L 141 1213 L 144 1213 L 145 1214 L 148 1214 L 149 1215 L 152 1215 L 153 1216 L 153 1221 L 152 1222 L 152 1224 L 156 1226 L 159 1226 L 164 1232 L 165 1235 L 167 1237 L 169 1241 L 163 1248 L 163 1249 L 161 1251 L 161 1253 L 162 1254 L 164 1254 L 165 1253 L 167 1253 L 168 1252 L 170 1252 L 174 1250 L 178 1250 L 187 1258 L 187 1272 L 188 1273 L 188 1278 L 187 1279 L 186 1284 L 182 1288 L 182 1291 L 185 1295 L 187 1295 L 190 1297 L 194 1296 L 196 1298 L 198 1298 L 199 1299 L 208 1299 L 209 1301 L 213 1305 L 215 1305 L 218 1307 L 218 1314 L 219 1315 L 225 1315 L 227 1313 L 228 1313 L 229 1314 L 232 1314 L 233 1315 L 240 1315 L 241 1316 L 244 1316 L 245 1317 L 251 1317 L 253 1315 L 255 1315 L 256 1314 L 257 1315 L 257 1321 L 258 1322 L 259 1322 L 261 1324 L 269 1324 L 271 1328 L 272 1328 L 274 1330 L 280 1329 L 284 1326 L 286 1326 L 289 1324 L 291 1324 L 295 1322 L 304 1322 L 305 1323 L 311 1323 L 312 1324 L 312 1328 L 314 1330 L 314 1331 L 316 1333 L 322 1336 L 321 1338 L 321 1341 L 320 1342 L 320 1349 L 321 1350 L 321 1353 L 323 1356 L 323 1359 L 324 1360 L 324 1366 L 323 1367 L 323 1371 L 324 1372 L 355 1372 L 363 1380 L 363 1384 L 362 1385 L 360 1385 L 359 1384 L 355 1384 L 354 1385 L 352 1385 L 347 1390 L 346 1394 L 348 1396 L 351 1397 L 362 1408 L 363 1408 L 365 1410 L 371 1410 L 373 1412 L 374 1415 L 375 1415 L 378 1419 L 377 1420 L 377 1432 L 376 1434 L 372 1438 L 370 1438 L 369 1440 L 369 1444 L 371 1448 L 379 1456 L 380 1458 L 380 1463 L 382 1465 L 392 1465 L 393 1466 L 408 1466 L 408 1463 L 406 1459 L 406 1456 L 410 1452 L 411 1449 L 413 1447 L 413 1444 L 411 1442 L 406 1432 L 406 1425 L 407 1423 L 410 1421 L 410 1411 L 409 1410 L 408 1402 L 410 1400 L 411 1401 L 414 1401 L 420 1404 L 422 1404 L 423 1403 L 423 1401 L 424 1400 L 424 1394 L 423 1393 L 423 1388 L 422 1387 L 421 1381 L 423 1379 L 424 1373 L 426 1370 L 426 1368 L 428 1365 L 428 1363 L 430 1362 L 430 1361 L 436 1356 L 440 1355 L 445 1352 L 447 1352 L 447 1351 L 451 1348 L 452 1346 L 452 1333 L 451 1332 L 451 1323 L 452 1322 L 456 1322 L 457 1321 L 465 1321 L 466 1320 L 472 1319 L 474 1317 L 474 1308 L 476 1304 L 485 1295 L 486 1295 L 488 1293 L 492 1292 L 497 1297 L 503 1297 L 503 1296 L 506 1294 L 507 1292 L 507 1281 L 506 1280 L 506 1277 L 505 1276 L 505 1271 L 510 1265 L 510 1264 L 512 1263 L 512 1262 L 516 1258 L 517 1255 L 521 1250 L 523 1249 L 529 1249 L 532 1247 L 536 1247 L 537 1246 L 543 1246 L 544 1247 L 553 1246 L 557 1243 L 558 1243 L 562 1238 L 565 1240 L 573 1240 L 577 1238 L 583 1231 L 588 1231 L 589 1232 L 592 1232 L 593 1233 L 595 1233 L 599 1235 L 608 1235 L 614 1232 L 616 1230 L 617 1232 L 618 1232 L 629 1243 L 630 1243 L 634 1246 L 639 1246 L 640 1244 L 642 1243 L 642 1241 L 641 1240 L 642 1234 L 652 1225 L 652 1224 L 654 1222 L 654 1220 L 656 1217 L 656 1215 L 659 1212 L 663 1211 L 665 1209 L 667 1209 L 674 1205 L 676 1205 L 682 1202 L 687 1201 L 689 1199 L 690 1199 L 694 1202 L 700 1202 L 702 1201 L 702 1200 L 706 1197 L 708 1193 L 708 1191 L 710 1189 L 717 1193 L 721 1197 L 722 1197 L 733 1205 L 736 1206 L 738 1208 L 741 1209 L 748 1214 L 753 1216 L 755 1218 L 759 1219 L 761 1221 L 766 1223 L 767 1225 L 769 1226 L 771 1229 L 772 1229 L 776 1232 L 788 1232 L 792 1230 L 796 1230 L 797 1229 L 803 1228 L 805 1226 L 807 1226 L 812 1222 L 812 1221 L 814 1219 L 815 1214 L 818 1211 L 818 1210 L 824 1205 L 825 1205 L 832 1198 L 834 1194 L 834 1182 L 832 1178 L 832 1170 L 833 1169 L 833 1166 L 834 1165 L 835 1156 L 837 1153 L 837 1149 L 838 1148 L 838 1142 L 839 1141 L 839 1137 L 840 1136 L 843 1136 L 851 1144 L 853 1144 L 856 1146 L 871 1146 L 872 1145 L 874 1145 L 875 1144 L 877 1144 L 878 1143 L 880 1143 L 884 1141 L 886 1139 L 887 1139 L 887 1138 L 889 1137 L 890 1135 L 892 1134 L 897 1129 L 899 1131 L 899 1133 L 900 1134 L 900 1139 L 902 1141 L 906 1139 L 908 1139 L 909 1138 L 915 1138 L 916 1139 L 920 1139 L 921 1140 L 924 1140 L 925 1141 L 941 1141 L 942 1140 L 942 1136 L 939 1131 L 947 1124 L 948 1122 L 949 1114 L 951 1110 L 955 1105 L 955 1103 L 958 1099 L 958 1097 L 959 1096 L 959 1087 L 958 1086 L 957 1081 L 960 1078 L 961 1078 L 965 1075 L 965 1073 L 963 1071 L 963 1069 L 966 1063 L 968 1061 L 969 1058 L 974 1053 L 975 1054 L 978 1054 L 979 1055 L 986 1055 L 987 1056 L 987 1058 L 992 1065 L 994 1070 L 997 1070 L 998 1069 L 1003 1069 L 1004 1068 L 1009 1068 L 1010 1067 L 1014 1067 L 1016 1066 L 1018 1064 L 1018 1058 L 1017 1057 L 1017 1052 L 1016 1051 L 1016 1041 L 1018 1038 L 1022 1037 L 1023 1036 L 1025 1036 L 1028 1034 L 1033 1033 L 1035 1031 L 1040 1029 L 1047 1023 L 1048 1019 L 1049 1018 L 1049 1015 L 1048 1014 L 1048 1007 L 1047 1006 L 1047 1001 L 1048 1000 L 1053 1001 L 1058 1006 L 1059 1009 L 1062 1013 L 1062 1015 L 1064 1017 L 1064 1019 L 1066 1023 L 1072 1030 L 1075 1031 L 1077 1033 L 1086 1035 L 1093 1040 L 1095 1040 L 1096 1041 L 1101 1041 L 1105 1038 L 1106 1038 L 1119 1022 L 1123 1014 L 1125 1012 L 1127 1012 L 1128 1011 L 1136 1009 L 1140 1004 L 1140 997 L 1139 995 L 1134 991 L 1134 989 L 1136 987 L 1136 986 L 1143 979 L 1146 979 L 1150 976 L 1150 972 L 1149 971 L 1152 965 L 1151 959 L 1150 958 L 1149 954 L 1143 947 L 1143 946 L 1140 944 L 1146 939 L 1154 935 L 1158 935 L 1159 934 L 1173 934 L 1174 935 L 1177 935 L 1180 937 L 1188 937 L 1191 935 L 1196 934 L 1198 932 L 1199 932 L 1201 930 L 1201 926 L 1202 924 L 1205 921 L 1208 920 L 1210 918 L 1216 915 L 1220 915 L 1224 917 L 1232 924 L 1235 925 L 1236 927 L 1241 928 L 1244 930 L 1249 930 L 1250 929 L 1255 928 L 1256 926 L 1253 920 L 1258 916 L 1262 915 L 1264 917 L 1266 917 L 1267 918 L 1273 918 L 1275 917 L 1280 911 L 1302 911 L 1303 912 L 1307 912 L 1311 915 L 1312 915 L 1315 918 L 1317 918 L 1319 920 L 1325 920 L 1326 919 L 1331 919 L 1332 918 L 1337 918 L 1338 917 L 1340 917 L 1344 913 L 1345 911 L 1345 908 L 1347 904 L 1360 904 L 1366 901 L 1369 897 L 1369 894 L 1370 893 L 1369 887 L 1366 883 L 1365 880 L 1361 875 L 1361 873 L 1363 870 L 1363 868 L 1365 866 L 1366 862 L 1369 859 L 1372 859 L 1373 858 L 1380 858 L 1381 857 L 1384 857 L 1385 856 L 1389 856 L 1391 855 L 1395 851 L 1396 851 L 1399 845 L 1400 840 L 1404 835 L 1408 834 L 1411 832 L 1414 832 L 1420 828 L 1423 828 L 1434 834 L 1436 834 L 1443 839 L 1447 839 L 1449 838 L 1453 834 L 1467 834 L 1468 833 L 1470 833 L 1474 831 L 1479 820 L 1481 818 L 1487 815 L 1493 814 L 1494 813 L 1500 812 L 1501 811 L 1504 811 L 1510 808 L 1514 804 L 1515 804 L 1519 800 L 1520 800 L 1521 798 L 1524 797 L 1526 795 L 1540 794 L 1541 793 L 1545 793 L 1548 791 L 1550 791 L 1552 789 L 1556 787 L 1559 784 L 1563 782 L 1566 779 L 1568 775 L 1568 773 L 1570 770 L 1570 766 L 1571 765 L 1571 757 L 1572 756 L 1577 756 L 1578 755 L 1580 755 L 1590 747 L 1594 749 L 1596 751 L 1597 754 L 1598 754 L 1602 757 L 1611 757 L 1612 756 L 1619 755 L 1622 753 L 1625 753 L 1626 752 L 1629 752 L 1632 750 L 1634 750 L 1636 749 L 1640 745 L 1640 743 L 1641 742 L 1643 743 L 1646 743 L 1647 744 L 1656 744 L 1657 743 L 1659 743 L 1662 738 L 1662 724 L 1668 718 L 1668 717 L 1670 716 L 1670 714 L 1671 713 L 1671 708 L 1670 707 L 1670 705 L 1666 700 L 1666 699 L 1662 698 L 1661 697 L 1656 697 L 1655 698 L 1648 698 L 1646 696 L 1642 695 L 1640 693 L 1635 691 L 1633 689 L 1631 689 L 1630 688 L 1617 688 L 1616 687 L 1617 681 L 1616 679 L 1612 676 L 1612 675 L 1617 671 L 1622 671 L 1623 670 L 1623 664 L 1624 663 L 1624 659 L 1625 658 L 1625 657 L 1623 655 L 1612 655 L 1606 658 L 1602 661 L 1596 662 L 1592 660 L 1590 658 L 1587 657 L 1582 653 L 1585 647 L 1585 640 L 1584 639 L 1587 636 L 1588 636 L 1588 635 L 1592 631 L 1595 625 L 1595 623 L 1596 622 L 1596 611 L 1595 610 L 1595 608 L 1599 604 L 1602 598 L 1602 596 L 1606 592 L 1611 592 L 1613 595 L 1614 599 L 1616 600 L 1617 603 L 1619 604 L 1621 608 L 1624 610 L 1630 609 L 1638 604 L 1641 604 L 1644 606 L 1646 606 L 1648 608 L 1648 611 L 1650 614 L 1650 616 L 1653 620 L 1664 626 L 1667 626 L 1668 627 L 1675 627 L 1676 626 L 1681 625 L 1683 623 L 1684 623 L 1685 621 L 1687 620 L 1694 613 L 1697 612 L 1699 610 L 1701 610 L 1705 614 L 1706 617 L 1708 619 L 1711 620 L 1713 622 L 1715 622 L 1716 620 L 1716 617 L 1718 614 L 1719 608 L 1721 606 L 1721 604 L 1724 600 L 1725 601 L 1725 604 L 1724 605 L 1724 609 L 1723 610 L 1723 619 L 1722 620 L 1722 622 L 1723 623 L 1733 623 L 1734 624 L 1739 625 L 1744 628 L 1743 632 L 1742 633 L 1742 635 L 1740 637 L 1740 641 L 1741 642 L 1743 642 L 1746 640 L 1751 639 L 1753 637 L 1759 636 L 1761 634 L 1762 634 L 1764 637 L 1765 637 L 1770 641 L 1770 642 L 1774 646 L 1774 647 L 1778 651 L 1779 651 L 1782 655 L 1782 663 L 1781 664 L 1781 669 L 1780 670 L 1780 674 L 1778 677 L 1777 684 L 1775 686 L 1774 690 L 1767 697 L 1763 705 L 1763 709 L 1762 710 L 1762 712 L 1763 713 L 1763 716 L 1764 718 L 1769 722 L 1772 722 L 1773 723 L 1783 723 L 1786 721 L 1788 721 L 1792 718 L 1794 718 L 1799 715 L 1801 715 L 1808 711 L 1810 711 L 1816 708 L 1817 709 L 1818 723 L 1812 728 L 1811 731 L 1809 733 L 1808 745 L 1806 748 L 1806 750 L 1804 753 L 1804 755 L 1802 757 L 1801 762 L 1799 765 L 1799 775 L 1804 779 L 1808 781 L 1810 781 L 1812 783 L 1816 784 L 1818 786 L 1823 786 L 1824 787 L 1833 787 L 1835 788 L 1841 794 L 1843 794 L 1844 795 L 1859 795 L 1860 796 L 1860 799 L 1861 800 L 1860 808 L 1862 810 L 1864 810 L 1865 811 L 1869 811 L 1870 810 L 1872 810 L 1876 807 L 1877 807 L 1878 805 L 1879 805 L 1881 808 L 1885 808 L 1886 809 L 1888 809 L 1892 811 L 1896 811 L 1897 812 L 1905 811 L 1908 809 L 1910 809 L 1912 811 L 1916 810 L 1920 805 L 1920 800 L 1921 799 L 1921 789 L 1923 787 L 1923 785 L 1931 770 L 1931 768 L 1933 764 L 1933 758 L 1931 754 L 1928 751 L 1928 747 L 1931 743 L 1931 742 L 1935 738 L 1935 737 L 1937 736 L 1938 734 L 1942 730 L 1942 729 L 1944 728 L 1945 725 L 1954 717 L 1954 716 L 1957 712 L 1957 710 L 1958 709 L 1958 707 L 1959 706 L 1959 704 L 1961 700 L 1964 698 L 1968 697 L 1972 694 L 1972 692 L 1974 689 L 1974 684 L 1973 683 L 1972 678 L 1974 675 L 1976 666 L 1979 660 L 1981 660 L 1982 659 L 1986 658 L 1986 645 L 1985 644 L 1985 638 L 1987 636 L 1988 636 L 1988 635 L 1990 634 L 1991 632 L 1992 632 L 1993 629 L 1995 627 L 1996 621 L 1997 620 L 1997 613 L 1996 612 L 1996 609 L 1998 608 L 2002 604 L 2002 602 L 2003 601 L 2003 589 L 2007 586 L 2008 586 L 2011 582 L 2011 576 L 2010 575 L 2010 573 L 2012 570 L 2014 562 L 2016 559 L 2017 554 L 2019 551 L 2019 548 L 2020 547 L 2020 542 L 2021 541 L 2021 533 L 2020 532 L 2020 526 L 2019 525 L 2019 521 L 2021 519 L 2024 519 L 2024 518 L 2026 517 L 2028 514 L 2028 508 L 2027 507 L 2027 501 L 2026 500 L 2026 494 L 2025 493 L 2025 491 L 2029 486 L 2029 478 L 2026 474 L 2030 468 L 2030 459 L 2033 455 L 2033 447 L 2031 445 L 2036 441 L 2036 435 L 2035 434 L 2035 432 L 2032 430 L 2032 425 L 2035 423 L 2036 419 L 2037 418 L 2037 413 L 2036 412 L 2036 409 L 2039 405 L 2041 400 L 2044 397 L 2045 397 L 2047 394 L 2047 389 L 2044 385 L 2044 383 L 2046 382 L 2047 380 L 2047 360 L 2046 359 L 2046 353 L 2044 349 L 2043 343 L 2041 339 L 2037 335 L 2036 335 L 2034 333 L 2032 333 L 2029 330 L 2029 326 L 2028 325 L 2028 322 L 2026 318 L 2025 318 L 2024 316 L 2022 315 L 2010 303 L 2009 301 L 2009 295 L 2008 294 L 2007 285 L 2006 284 L 2005 280 L 2006 279 L 2007 274 L 2009 272 L 2009 270 L 2010 269 L 2010 264 L 2009 262 L 2002 260 L 2000 257 L 1998 248 L 2001 245 L 2001 240 L 1999 236 L 1996 233 L 1996 232 L 1998 230 L 1998 219 L 1996 217 L 1996 216 L 2002 211 L 2002 209 L 2003 208 L 2003 203 L 1999 196 L 1996 193 L 1996 192 L 1993 189 L 1992 186 L 1990 184 L 1990 181 L 1989 180 Z" fill="none" stroke="#d7e8c7" stroke-width="1.6" stroke-linejoin="round" stroke-linecap="round"/>
<path d="M 384.9 991.6 L 379.2 1001.6 L 366.7 1007.4 L 363.5 1018.1 L 352.5 1019.7 L 341.7 1023.5 L 330.5 1016.6 L 322.0 1014.8 L 316.3 1026.6 L 312.8 1037.4 L 305.5 1031.9 L 300.4 1021.8 L 288.3 1025.3 L 285.2 1035.6 L 289.9 1045.6 L 279.4 1053.5 L 268.8 1058.0 L 274.8 1065.7 L 286.9 1066.7 L 287.9 1077.2 L 275.9 1078.5 L 267.0 1079.6 L 257.2 1071.3 L 245.2 1075.4 L 244.8 1088.7 L 236.0 1095.5 L 223.1 1096.3 L 214.8 1093.2 L 211.2 1081.0 L 217.2 1068.9 L 218.4 1056.4 L 208.6 1049.5 L 203.5 1037.9 L 210.3 1027.6 L 204.2 1017.3 L 197.4 1024.4 L 187.0 1030.5 L 189.9 1041.6 L 180.3 1048.9 L 172.1 1051.9" fill="none" stroke="#d7e8c7" stroke-width="1.6" stroke-linecap="round" stroke-linejoin="round" stroke-dasharray="7 7"/>
<path d="M 157.2 1082.0 L 151.2 1092.8 L 138.5 1095.0 L 127.5 1100.1 L 122.6 1111.9 L 126.8 1124.5 L 134.9 1132.3 L 148.0 1134.1 L 158.2 1134.4 L 163.3 1145.1 L 172.8 1154.2 L 176.6 1165.8 L 166.2 1170.1 L 164.5 1185.3 L 151.0 1189.5" fill="none" stroke="#d7e8c7" stroke-width="1.6" stroke-linecap="round" stroke-linejoin="round" stroke-dasharray="7 7"/>
</svg>
