<svg xmlns="http://www.w3.org/2000/svg" aria-label="Sachsenkarte mit DMO-Regionen" id="sachsenMap" role="img" viewBox="0 0 1400 1100">
<defs>
<filter height="160%" id="softGlow" width="160%" x="-30%" y="-30%">
<feGaussianBlur result="blur" stdDeviation="3"></feGaussianBlur>
<feColorMatrix in="blur" result="glow" type="matrix" values="1 0 0 0 0
                    0 1 0 0 0
                    0 0 1 0 0
                    0 0 0 0.45 0"></feColorMatrix>
<feMerge>
<feMergeNode in="glow"></feMergeNode>
<feMergeNode in="SourceGraphic"></feMergeNode>
</feMerge>
</filter>
</defs>
<!-- Region: Sächsische Schweiz (aus deinem Snippet) -->
<g class="region" data-name="Sächsische Schweiz" data-url="https://www.saechsische-schweiz.de/" id="saechsisch">
 <path class="hit" d="M 1608 580 L 1590 578 L 1580 586 L 1578 589 L 1573 590 L 1569 580 L 1562 575 L 1561 573 L 1551 568 L 1548 568 L 1546 566 L 1541 566 L 1540 565 L 1534 565 L 1524 580 L 1520 584 L 1512 583 L 1506 577 L 1500 566 L 1482 580 L 1477 580 L 1476 579 L 1462 580 L 1458 579 L 1453 576 L 1450 571 L 1448 575 L 1448 585 L 1447 586 L 1424 585 L 1417 592 L 1414 592 L 1411 586 L 1411 589 L 1408 592 L 1405 593 L 1405 595 L 1403 597 L 1404 616 L 1401 623 L 1397 626 L 1392 626 L 1380 638 L 1370 638 L 1371 650 L 1365 657 L 1352 668 L 1343 669 L 1339 666 L 1337 662 L 1333 664 L 1329 664 L 1325 670 L 1318 676 L 1313 678 L 1308 678 L 1302 676 L 1302 698 L 1294 708 L 1293 711 L 1298 712 L 1301 714 L 1301 724 L 1299 729 L 1299 734 L 1297 736 L 1293 736 L 1295 744 L 1295 754 L 1297 757 L 1299 767 L 1301 770 L 1302 776 L 1304 778 L 1305 783 L 1313 791 L 1313 806 L 1315 811 L 1321 818 L 1324 827 L 1326 828 L 1338 828 L 1343 833 L 1343 835 L 1336 844 L 1333 846 L 1327 847 L 1323 850 L 1325 855 L 1327 857 L 1331 858 L 1335 865 L 1342 866 L 1345 868 L 1353 870 L 1358 869 L 1362 859 L 1366 855 L 1372 853 L 1379 853 L 1388 851 L 1392 848 L 1397 835 L 1401 831 L 1413 827 L 1418 822 L 1422 822 L 1424 824 L 1441 831 L 1444 834 L 1451 829 L 1467 829 L 1471 827 L 1475 817 L 1481 812 L 1505 805 L 1509 803 L 1511 800 L 1523 791 L 1544 788 L 1559 779 L 1562 776 L 1565 769 L 1566 764 L 1566 755 L 1565 753 L 1568 751 L 1576 751 L 1587 743 L 1593 743 L 1598 746 L 1603 752 L 1607 753 L 1633 745 L 1635 743 L 1637 737 L 1651 740 L 1657 738 L 1657 723 L 1659 719 L 1666 712 L 1666 708 L 1663 703 L 1661 702 L 1648 703 L 1639 698 L 1637 698 L 1636 696 L 1634 696 L 1630 693 L 1617 693 L 1614 692 L 1611 689 L 1612 682 L 1605 678 L 1605 674 L 1611 669 L 1619 665 L 1619 660 L 1611 661 L 1600 667 L 1594 667 L 1579 658 L 1577 655 L 1580 646 L 1580 641 L 1578 637 L 1588 628 L 1592 617 L 1591 612 L 1586 609 L 1586 606 L 1595 601 L 1596 597 L 1601 589 L 1608 587 Z"/>
  <path class="flaeche" d="M 1608 580 L 1590 578 L 1580 586 L 1578 589 L 1573 590 L 1569 580 L 1562 575 L 1561 573 L 1551 568 L 1548 568 L 1546 566 L 1541 566 L 1540 565 L 1534 565 L 1524 580 L 1520 584 L 1512 583 L 1506 577 L 1500 566 L 1482 580 L 1477 580 L 1476 579 L 1462 580 L 1458 579 L 1453 576 L 1450 571 L 1448 575 L 1448 585 L 1447 586 L 1424 585 L 1417 592 L 1414 592 L 1411 586 L 1411 589 L 1408 592 L 1405 593 L 1405 595 L 1403 597 L 1404 616 L 1401 623 L 1397 626 L 1392 626 L 1380 638 L 1370 638 L 1371 650 L 1365 657 L 1352 668 L 1343 669 L 1339 666 L 1337 662 L 1333 664 L 1329 664 L 1325 670 L 1318 676 L 1313 678 L 1308 678 L 1302 676 L 1302 698 L 1294 708 L 1293 711 L 1298 712 L 1301 714 L 1301 724 L 1299 729 L 1299 734 L 1297 736 L 1293 736 L 1295 744 L 1295 754 L 1297 757 L 1299 767 L 1301 770 L 1302 776 L 1304 778 L 1305 783 L 1313 791 L 1313 806 L 1315 811 L 1321 818 L 1324 827 L 1326 828 L 1338 828 L 1343 833 L 1343 835 L 1336 844 L 1333 846 L 1327 847 L 1323 850 L 1325 855 L 1327 857 L 1331 858 L 1335 865 L 1342 866 L 1345 868 L 1353 870 L 1358 869 L 1362 859 L 1366 855 L 1372 853 L 1379 853 L 1388 851 L 1392 848 L 1397 835 L 1401 831 L 1413 827 L 1418 822 L 1422 822 L 1424 824 L 1441 831 L 1444 834 L 1451 829 L 1467 829 L 1471 827 L 1475 817 L 1481 812 L 1505 805 L 1509 803 L 1511 800 L 1523 791 L 1544 788 L 1559 779 L 1562 776 L 1565 769 L 1566 764 L 1566 755 L 1565 753 L 1568 751 L 1576 751 L 1587 743 L 1593 743 L 1598 746 L 1603 752 L 1607 753 L 1633 745 L 1635 743 L 1637 737 L 1651 740 L 1657 738 L 1657 723 L 1659 719 L 1666 712 L 1666 708 L 1663 703 L 1661 702 L 1648 703 L 1639 698 L 1637 698 L 1636 696 L 1634 696 L 1630 693 L 1617 693 L 1614 692 L 1611 689 L 1612 682 L 1605 678 L 1605 674 L 1611 669 L 1619 665 L 1619 660 L 1611 661 L 1600 667 L 1594 667 L 1579 658 L 1577 655 L 1580 646 L 1580 641 L 1578 637 L 1588 628 L 1592 617 L 1591 612 L 1586 609 L 1586 606 L 1595 601 L 1596 597 L 1601 589 L 1608 587 Z"/>
</g>
<!-- Region: Erzgebirge -->
<g class="region" data-name="Erzgebirge" data-url="https://www.erzgebirge-tourismus.de/" id="erzgebirge">
<path class="hit" d="M 968 610 L 958 601 L 948 595 L 931 595 L 926 607 L 923 608 L 911 603 L 901 613 L 889 612 L 887 610 L 887 605 L 871 609 L 866 604 L 863 606 L 859 606 L 837 612 L 819 612 L 816 609 L 815 606 L 800 617 L 797 617 L 785 613 L 777 606 L 777 586 L 776 585 L 776 580 L 773 577 L 773 566 L 763 568 L 760 565 L 760 562 L 735 573 L 721 571 L 716 569 L 708 575 L 695 575 L 686 571 L 679 565 L 680 560 L 671 560 L 664 566 L 659 566 L 651 562 L 650 571 L 648 573 L 646 573 L 639 566 L 633 572 L 633 574 L 641 587 L 640 592 L 638 592 L 632 596 L 625 596 L 613 592 L 602 596 L 595 594 L 591 602 L 582 604 L 582 607 L 587 610 L 587 620 L 585 622 L 581 623 L 583 629 L 589 630 L 592 632 L 601 626 L 606 618 L 609 618 L 613 625 L 618 626 L 638 640 L 638 660 L 634 661 L 630 659 L 618 679 L 605 678 L 599 685 L 597 685 L 589 680 L 585 682 L 580 688 L 582 706 L 586 715 L 586 719 L 582 720 L 582 721 L 587 722 L 592 727 L 593 731 L 601 738 L 600 742 L 593 749 L 592 755 L 589 758 L 585 757 L 581 751 L 579 753 L 569 757 L 547 758 L 540 755 L 530 760 L 524 760 L 521 757 L 521 753 L 516 754 L 511 757 L 514 761 L 514 766 L 513 767 L 499 768 L 487 778 L 482 779 L 484 784 L 484 788 L 478 794 L 474 796 L 475 798 L 475 808 L 472 816 L 457 818 L 452 812 L 455 802 L 445 812 L 438 810 L 432 811 L 431 809 L 424 816 L 415 822 L 414 835 L 413 836 L 404 837 L 395 840 L 388 840 L 384 833 L 385 838 L 383 840 L 378 838 L 377 843 L 375 845 L 372 843 L 367 846 L 362 846 L 355 843 L 352 844 L 356 853 L 357 863 L 359 868 L 379 868 L 383 870 L 383 872 L 367 897 L 361 897 L 357 895 L 349 894 L 347 895 L 342 906 L 342 914 L 343 917 L 346 920 L 351 921 L 355 920 L 357 918 L 363 917 L 367 923 L 366 932 L 359 940 L 359 943 L 364 950 L 366 956 L 366 961 L 370 965 L 376 967 L 396 969 L 400 976 L 404 980 L 404 986 L 410 986 L 412 988 L 414 988 L 417 983 L 423 978 L 433 978 L 436 980 L 435 992 L 445 1000 L 454 1010 L 459 1012 L 461 1015 L 461 1020 L 456 1030 L 463 1033 L 470 1034 L 474 1036 L 476 1039 L 475 1048 L 470 1054 L 469 1068 L 468 1069 L 468 1079 L 469 1082 L 472 1085 L 486 1084 L 493 1092 L 499 1091 L 506 1088 L 510 1088 L 525 1099 L 535 1089 L 538 1088 L 548 1088 L 560 1095 L 571 1091 L 575 1088 L 575 1086 L 577 1084 L 577 1079 L 574 1077 L 561 1075 L 556 1070 L 555 1067 L 557 1059 L 565 1053 L 563 1046 L 564 1038 L 569 1033 L 572 1032 L 584 1033 L 587 1029 L 587 1023 L 589 1018 L 592 1014 L 596 1012 L 608 1011 L 615 1014 L 621 1019 L 624 1015 L 631 1013 L 633 1008 L 637 1005 L 636 1002 L 632 1001 L 628 997 L 628 987 L 631 984 L 635 983 L 640 969 L 640 967 L 636 966 L 633 962 L 633 955 L 620 955 L 613 952 L 600 944 L 593 936 L 593 932 L 597 927 L 603 925 L 608 926 L 604 913 L 602 910 L 602 905 L 605 901 L 622 899 L 624 901 L 624 910 L 627 913 L 639 913 L 642 910 L 642 904 L 640 899 L 640 885 L 647 877 L 650 876 L 656 876 L 664 881 L 668 878 L 670 870 L 674 865 L 674 860 L 669 853 L 668 847 L 662 845 L 658 841 L 657 836 L 662 831 L 668 831 L 673 828 L 678 823 L 684 812 L 690 808 L 691 790 L 694 785 L 704 775 L 705 770 L 707 768 L 711 769 L 712 768 L 712 764 L 715 759 L 721 757 L 739 755 L 749 752 L 753 754 L 751 762 L 760 764 L 764 767 L 771 767 L 784 764 L 784 762 L 786 760 L 799 760 L 806 765 L 806 767 L 808 768 L 808 770 L 814 780 L 814 785 L 808 796 L 807 801 L 810 801 L 814 803 L 820 803 L 824 805 L 834 804 L 847 817 L 859 822 L 868 822 L 873 817 L 875 817 L 879 814 L 890 813 L 886 808 L 886 801 L 888 799 L 895 798 L 897 796 L 889 786 L 886 780 L 886 770 L 888 766 L 896 760 L 909 758 L 910 750 L 923 738 L 924 732 L 929 727 L 935 726 L 935 715 L 933 706 L 933 692 L 935 686 L 944 676 L 946 672 L 946 663 L 944 655 L 945 645 L 948 643 L 951 645 L 952 644 L 954 636 L 958 628 L 965 622 L 967 618 Z"/>
  <path class="flaeche" d="M 968 610 L 958 601 L 948 595 L 931 595 L 926 607 L 923 608 L 911 603 L 901 613 L 889 612 L 887 610 L 887 605 L 871 609 L 866 604 L 863 606 L 859 606 L 837 612 L 819 612 L 816 609 L 815 606 L 800 617 L 797 617 L 785 613 L 777 606 L 777 586 L 776 585 L 776 580 L 773 577 L 773 566 L 763 568 L 760 565 L 760 562 L 735 573 L 721 571 L 716 569 L 708 575 L 695 575 L 686 571 L 679 565 L 680 560 L 671 560 L 664 566 L 659 566 L 651 562 L 650 571 L 648 573 L 646 573 L 639 566 L 633 572 L 633 574 L 641 587 L 640 592 L 638 592 L 632 596 L 625 596 L 613 592 L 602 596 L 595 594 L 591 602 L 582 604 L 582 607 L 587 610 L 587 620 L 585 622 L 581 623 L 583 629 L 589 630 L 592 632 L 601 626 L 606 618 L 609 618 L 613 625 L 618 626 L 638 640 L 638 660 L 634 661 L 630 659 L 618 679 L 605 678 L 599 685 L 597 685 L 589 680 L 585 682 L 580 688 L 582 706 L 586 715 L 586 719 L 582 720 L 582 721 L 587 722 L 592 727 L 593 731 L 601 738 L 600 742 L 593 749 L 592 755 L 589 758 L 585 757 L 581 751 L 579 753 L 569 757 L 547 758 L 540 755 L 530 760 L 524 760 L 521 757 L 521 753 L 516 754 L 511 757 L 514 761 L 514 766 L 513 767 L 499 768 L 487 778 L 482 779 L 484 784 L 484 788 L 478 794 L 474 796 L 475 798 L 475 808 L 472 816 L 457 818 L 452 812 L 455 802 L 445 812 L 438 810 L 432 811 L 431 809 L 424 816 L 415 822 L 414 835 L 413 836 L 404 837 L 395 840 L 388 840 L 384 833 L 385 838 L 383 840 L 378 838 L 377 843 L 375 845 L 372 843 L 367 846 L 362 846 L 355 843 L 352 844 L 356 853 L 357 863 L 359 868 L 379 868 L 383 870 L 383 872 L 367 897 L 361 897 L 357 895 L 349 894 L 347 895 L 342 906 L 342 914 L 343 917 L 346 920 L 351 921 L 355 920 L 357 918 L 363 917 L 367 923 L 366 932 L 359 940 L 359 943 L 364 950 L 366 956 L 366 961 L 370 965 L 376 967 L 396 969 L 400 976 L 404 980 L 404 986 L 410 986 L 412 988 L 414 988 L 417 983 L 423 978 L 433 978 L 436 980 L 435 992 L 445 1000 L 454 1010 L 459 1012 L 461 1015 L 461 1020 L 456 1030 L 463 1033 L 470 1034 L 474 1036 L 476 1039 L 475 1048 L 470 1054 L 469 1068 L 468 1069 L 468 1079 L 469 1082 L 472 1085 L 486 1084 L 493 1092 L 499 1091 L 506 1088 L 510 1088 L 525 1099 L 535 1089 L 538 1088 L 548 1088 L 560 1095 L 571 1091 L 575 1088 L 575 1086 L 577 1084 L 577 1079 L 574 1077 L 561 1075 L 556 1070 L 555 1067 L 557 1059 L 565 1053 L 563 1046 L 564 1038 L 569 1033 L 572 1032 L 584 1033 L 587 1029 L 587 1023 L 589 1018 L 592 1014 L 596 1012 L 608 1011 L 615 1014 L 621 1019 L 624 1015 L 631 1013 L 633 1008 L 637 1005 L 636 1002 L 632 1001 L 628 997 L 628 987 L 631 984 L 635 983 L 640 969 L 640 967 L 636 966 L 633 962 L 633 955 L 620 955 L 613 952 L 600 944 L 593 936 L 593 932 L 597 927 L 603 925 L 608 926 L 604 913 L 602 910 L 602 905 L 605 901 L 622 899 L 624 901 L 624 910 L 627 913 L 639 913 L 642 910 L 642 904 L 640 899 L 640 885 L 647 877 L 650 876 L 656 876 L 664 881 L 668 878 L 670 870 L 674 865 L 674 860 L 669 853 L 668 847 L 662 845 L 658 841 L 657 836 L 662 831 L 668 831 L 673 828 L 678 823 L 684 812 L 690 808 L 691 790 L 694 785 L 704 775 L 705 770 L 707 768 L 711 769 L 712 768 L 712 764 L 715 759 L 721 757 L 739 755 L 749 752 L 753 754 L 751 762 L 760 764 L 764 767 L 771 767 L 784 764 L 784 762 L 786 760 L 799 760 L 806 765 L 806 767 L 808 768 L 808 770 L 814 780 L 814 785 L 808 796 L 807 801 L 810 801 L 814 803 L 820 803 L 824 805 L 834 804 L 847 817 L 859 822 L 868 822 L 873 817 L 875 817 L 879 814 L 890 813 L 886 808 L 886 801 L 888 799 L 895 798 L 897 796 L 889 786 L 886 780 L 886 770 L 888 766 L 896 760 L 909 758 L 910 750 L 923 738 L 924 732 L 929 727 L 935 726 L 935 715 L 933 706 L 933 692 L 935 686 L 944 676 L 946 672 L 946 663 L 944 655 L 945 645 L 948 643 L 951 645 L 952 644 L 954 636 L 958 628 L 965 622 L 967 618 Z"/>
</g>
<!-- Region: Oberlausitz (aus deinem Snippet) -->
<g class="region" data-name="Oberlausitz" data-url="https://www.oberlausitz.com/" id="oberlausitz">
<!-- Klick-/Hover-Hitarea (breiter Stroke) -->
<path class="hit" d="M 1489 122 L 1487 125 L 1486 130 L 1490 141 L 1488 143 L 1483 142 L 1473 143 L 1469 149 L 1469 153 L 1465 166 L 1461 170 L 1455 172 L 1456 176 L 1460 180 L 1460 186 L 1455 191 L 1447 191 L 1444 189 L 1439 188 L 1437 186 L 1432 185 L 1429 187 L 1430 191 L 1442 201 L 1441 212 L 1446 215 L 1446 218 L 1434 227 L 1437 230 L 1437 233 L 1434 236 L 1436 237 L 1437 242 L 1434 247 L 1421 256 L 1420 258 L 1422 262 L 1420 264 L 1414 266 L 1415 273 L 1410 276 L 1410 281 L 1411 282 L 1411 287 L 1410 288 L 1395 287 L 1393 285 L 1394 271 L 1390 267 L 1381 267 L 1377 272 L 1356 280 L 1356 284 L 1351 287 L 1332 288 L 1327 282 L 1312 282 L 1311 281 L 1312 288 L 1318 295 L 1322 302 L 1323 308 L 1326 315 L 1326 319 L 1328 323 L 1325 326 L 1309 325 L 1308 335 L 1296 356 L 1295 361 L 1303 377 L 1303 383 L 1299 390 L 1308 392 L 1311 395 L 1311 397 L 1302 402 L 1304 413 L 1302 415 L 1295 417 L 1302 422 L 1302 429 L 1300 431 L 1297 431 L 1293 436 L 1285 435 L 1285 441 L 1276 444 L 1277 447 L 1282 447 L 1284 453 L 1292 459 L 1292 465 L 1287 469 L 1280 472 L 1277 476 L 1283 482 L 1287 482 L 1291 480 L 1297 481 L 1301 490 L 1314 500 L 1317 500 L 1328 493 L 1335 491 L 1342 492 L 1349 497 L 1352 501 L 1352 507 L 1349 511 L 1347 511 L 1341 515 L 1347 527 L 1353 534 L 1354 537 L 1356 538 L 1357 541 L 1360 544 L 1360 546 L 1367 553 L 1367 561 L 1365 563 L 1359 563 L 1358 564 L 1357 570 L 1353 577 L 1367 578 L 1374 585 L 1383 584 L 1386 581 L 1386 575 L 1388 572 L 1391 572 L 1404 586 L 1410 579 L 1414 579 L 1417 583 L 1423 579 L 1439 579 L 1442 580 L 1442 574 L 1444 569 L 1448 564 L 1451 564 L 1461 574 L 1480 574 L 1498 560 L 1499 558 L 1501 558 L 1506 564 L 1508 570 L 1515 578 L 1519 577 L 1527 564 L 1531 560 L 1545 560 L 1557 564 L 1568 571 L 1575 578 L 1577 582 L 1589 571 L 1598 572 L 1607 575 L 1612 575 L 1616 578 L 1615 588 L 1617 594 L 1625 605 L 1627 605 L 1637 599 L 1643 599 L 1653 605 L 1654 613 L 1656 616 L 1668 622 L 1675 622 L 1679 620 L 1690 611 L 1692 608 L 1699 605 L 1704 606 L 1710 614 L 1712 615 L 1715 605 L 1719 597 L 1722 595 L 1727 595 L 1730 599 L 1727 618 L 1738 619 L 1746 623 L 1749 626 L 1749 631 L 1747 633 L 1747 635 L 1758 630 L 1765 629 L 1767 633 L 1771 635 L 1780 646 L 1787 652 L 1787 664 L 1785 669 L 1784 678 L 1782 681 L 1780 690 L 1768 705 L 1767 714 L 1772 718 L 1780 719 L 1810 705 L 1816 703 L 1820 703 L 1822 705 L 1822 724 L 1823 725 L 1814 734 L 1812 749 L 1806 760 L 1804 767 L 1804 773 L 1819 781 L 1836 783 L 1844 790 L 1849 791 L 1851 790 L 1860 790 L 1862 791 L 1865 795 L 1866 805 L 1867 806 L 1874 803 L 1880 798 L 1883 800 L 1885 804 L 1893 805 L 1895 807 L 1902 807 L 1908 803 L 1911 803 L 1914 805 L 1916 801 L 1917 786 L 1928 763 L 1928 759 L 1923 752 L 1924 743 L 1926 742 L 1928 737 L 1940 725 L 1943 719 L 1950 714 L 1957 697 L 1968 691 L 1969 688 L 1968 674 L 1972 665 L 1973 658 L 1982 654 L 1980 635 L 1985 632 L 1991 624 L 1992 621 L 1992 606 L 1998 601 L 1999 586 L 2006 581 L 2007 566 L 2013 553 L 2016 542 L 2016 531 L 2014 524 L 2014 517 L 2016 515 L 2020 515 L 2023 513 L 2023 506 L 2020 495 L 2020 490 L 2024 484 L 2024 480 L 2021 475 L 2021 472 L 2026 464 L 2026 456 L 2029 451 L 2026 444 L 2031 438 L 2027 433 L 2027 423 L 2032 417 L 2031 407 L 2038 395 L 2042 393 L 2041 388 L 2036 385 L 2036 382 L 2041 379 L 2043 375 L 2043 367 L 2039 346 L 2035 340 L 2028 337 L 2025 334 L 2023 323 L 2006 306 L 2003 296 L 2002 285 L 1998 281 L 1998 278 L 2002 275 L 2003 271 L 2005 269 L 2005 266 L 2000 265 L 1996 261 L 1995 255 L 1991 247 L 1994 243 L 1996 243 L 1996 241 L 1991 235 L 1991 232 L 1993 228 L 1993 221 L 1989 213 L 1991 210 L 1995 210 L 1998 208 L 1998 203 L 1996 202 L 1991 193 L 1986 188 L 1985 180 L 1983 176 L 1977 173 L 1968 173 L 1965 169 L 1965 165 L 1962 162 L 1956 162 L 1952 165 L 1949 165 L 1947 162 L 1943 160 L 1938 162 L 1934 162 L 1922 159 L 1916 154 L 1909 145 L 1902 143 L 1897 144 L 1895 142 L 1894 138 L 1890 134 L 1870 133 L 1867 131 L 1860 130 L 1851 126 L 1846 121 L 1845 118 L 1846 104 L 1835 95 L 1835 92 L 1837 90 L 1839 83 L 1841 81 L 1844 73 L 1839 66 L 1830 58 L 1826 59 L 1825 61 L 1828 68 L 1829 77 L 1825 78 L 1825 85 L 1823 88 L 1823 91 L 1818 100 L 1814 103 L 1810 103 L 1804 100 L 1784 105 L 1774 105 L 1770 100 L 1769 93 L 1766 86 L 1761 83 L 1757 83 L 1754 76 L 1749 76 L 1742 85 L 1734 86 L 1734 95 L 1732 97 L 1730 97 L 1721 103 L 1715 103 L 1710 100 L 1698 100 L 1693 102 L 1683 103 L 1677 106 L 1677 114 L 1675 116 L 1668 116 L 1658 121 L 1650 121 L 1644 118 L 1640 118 L 1641 123 L 1638 126 L 1634 127 L 1623 138 L 1621 138 L 1619 140 L 1613 140 L 1614 151 L 1610 155 L 1608 155 L 1605 152 L 1604 147 L 1600 140 L 1596 138 L 1586 137 L 1573 130 L 1563 129 L 1557 134 L 1555 134 L 1553 131 L 1540 126 L 1510 125 L 1509 124 Z"/>
  <path class="flaeche" d="M 1489 122 L 1487 125 L 1486 130 L 1490 141 L 1488 143 L 1483 142 L 1473 143 L 1469 149 L 1469 153 L 1465 166 L 1461 170 L 1455 172 L 1456 176 L 1460 180 L 1460 186 L 1455 191 L 1447 191 L 1444 189 L 1439 188 L 1437 186 L 1432 185 L 1429 187 L 1430 191 L 1442 201 L 1441 212 L 1446 215 L 1446 218 L 1434 227 L 1437 230 L 1437 233 L 1434 236 L 1436 237 L 1437 242 L 1434 247 L 1421 256 L 1420 258 L 1422 262 L 1420 264 L 1414 266 L 1415 273 L 1410 276 L 1410 281 L 1411 282 L 1411 287 L 1410 288 L 1395 287 L 1393 285 L 1394 271 L 1390 267 L 1381 267 L 1377 272 L 1356 280 L 1356 284 L 1351 287 L 1332 288 L 1327 282 L 1312 282 L 1311 281 L 1312 288 L 1318 295 L 1322 302 L 1323 308 L 1326 315 L 1326 319 L 1328 323 L 1325 326 L 1309 325 L 1308 335 L 1296 356 L 1295 361 L 1303 377 L 1303 383 L 1299 390 L 1308 392 L 1311 395 L 1311 397 L 1302 402 L 1304 413 L 1302 415 L 1295 417 L 1302 422 L 1302 429 L 1300 431 L 1297 431 L 1293 436 L 1285 435 L 1285 441 L 1276 444 L 1277 447 L 1282 447 L 1284 453 L 1292 459 L 1292 465 L 1287 469 L 1280 472 L 1277 476 L 1283 482 L 1287 482 L 1291 480 L 1297 481 L 1301 490 L 1314 500 L 1317 500 L 1328 493 L 1335 491 L 1342 492 L 1349 497 L 1352 501 L 1352 507 L 1349 511 L 1347 511 L 1341 515 L 1347 527 L 1353 534 L 1354 537 L 1356 538 L 1357 541 L 1360 544 L 1360 546 L 1367 553 L 1367 561 L 1365 563 L 1359 563 L 1358 564 L 1357 570 L 1353 577 L 1367 578 L 1374 585 L 1383 584 L 1386 581 L 1386 575 L 1388 572 L 1391 572 L 1404 586 L 1410 579 L 1414 579 L 1417 583 L 1423 579 L 1439 579 L 1442 580 L 1442 574 L 1444 569 L 1448 564 L 1451 564 L 1461 574 L 1480 574 L 1498 560 L 1499 558 L 1501 558 L 1506 564 L 1508 570 L 1515 578 L 1519 577 L 1527 564 L 1531 560 L 1545 560 L 1557 564 L 1568 571 L 1575 578 L 1577 582 L 1589 571 L 1598 572 L 1607 575 L 1612 575 L 1616 578 L 1615 588 L 1617 594 L 1625 605 L 1627 605 L 1637 599 L 1643 599 L 1653 605 L 1654 613 L 1656 616 L 1668 622 L 1675 622 L 1679 620 L 1690 611 L 1692 608 L 1699 605 L 1704 606 L 1710 614 L 1712 615 L 1715 605 L 1719 597 L 1722 595 L 1727 595 L 1730 599 L 1727 618 L 1738 619 L 1746 623 L 1749 626 L 1749 631 L 1747 633 L 1747 635 L 1758 630 L 1765 629 L 1767 633 L 1771 635 L 1780 646 L 1787 652 L 1787 664 L 1785 669 L 1784 678 L 1782 681 L 1780 690 L 1768 705 L 1767 714 L 1772 718 L 1780 719 L 1810 705 L 1816 703 L 1820 703 L 1822 705 L 1822 724 L 1823 725 L 1814 734 L 1812 749 L 1806 760 L 1804 767 L 1804 773 L 1819 781 L 1836 783 L 1844 790 L 1849 791 L 1851 790 L 1860 790 L 1862 791 L 1865 795 L 1866 805 L 1867 806 L 1874 803 L 1880 798 L 1883 800 L 1885 804 L 1893 805 L 1895 807 L 1902 807 L 1908 803 L 1911 803 L 1914 805 L 1916 801 L 1917 786 L 1928 763 L 1928 759 L 1923 752 L 1924 743 L 1926 742 L 1928 737 L 1940 725 L 1943 719 L 1950 714 L 1957 697 L 1968 691 L 1969 688 L 1968 674 L 1972 665 L 1973 658 L 1982 654 L 1980 635 L 1985 632 L 1991 624 L 1992 621 L 1992 606 L 1998 601 L 1999 586 L 2006 581 L 2007 566 L 2013 553 L 2016 542 L 2016 531 L 2014 524 L 2014 517 L 2016 515 L 2020 515 L 2023 513 L 2023 506 L 2020 495 L 2020 490 L 2024 484 L 2024 480 L 2021 475 L 2021 472 L 2026 464 L 2026 456 L 2029 451 L 2026 444 L 2031 438 L 2027 433 L 2027 423 L 2032 417 L 2031 407 L 2038 395 L 2042 393 L 2041 388 L 2036 385 L 2036 382 L 2041 379 L 2043 375 L 2043 367 L 2039 346 L 2035 340 L 2028 337 L 2025 334 L 2023 323 L 2006 306 L 2003 296 L 2002 285 L 1998 281 L 1998 278 L 2002 275 L 2003 271 L 2005 269 L 2005 266 L 2000 265 L 1996 261 L 1995 255 L 1991 247 L 1994 243 L 1996 243 L 1996 241 L 1991 235 L 1991 232 L 1993 228 L 1993 221 L 1989 213 L 1991 210 L 1995 210 L 1998 208 L 1998 203 L 1996 202 L 1991 193 L 1986 188 L 1985 180 L 1983 176 L 1977 173 L 1968 173 L 1965 169 L 1965 165 L 1962 162 L 1956 162 L 1952 165 L 1949 165 L 1947 162 L 1943 160 L 1938 162 L 1934 162 L 1922 159 L 1916 154 L 1909 145 L 1902 143 L 1897 144 L 1895 142 L 1894 138 L 1890 134 L 1870 133 L 1867 131 L 1860 130 L 1851 126 L 1846 121 L 1845 118 L 1846 104 L 1835 95 L 1835 92 L 1837 90 L 1839 83 L 1841 81 L 1844 73 L 1839 66 L 1830 58 L 1826 59 L 1825 61 L 1828 68 L 1829 77 L 1825 78 L 1825 85 L 1823 88 L 1823 91 L 1818 100 L 1814 103 L 1810 103 L 1804 100 L 1784 105 L 1774 105 L 1770 100 L 1769 93 L 1766 86 L 1761 83 L 1757 83 L 1754 76 L 1749 76 L 1742 85 L 1734 86 L 1734 95 L 1732 97 L 1730 97 L 1721 103 L 1715 103 L 1710 100 L 1698 100 L 1693 102 L 1683 103 L 1677 106 L 1677 114 L 1675 116 L 1668 116 L 1658 121 L 1650 121 L 1644 118 L 1640 118 L 1641 123 L 1638 126 L 1634 127 L 1623 138 L 1621 138 L 1619 140 L 1613 140 L 1614 151 L 1610 155 L 1608 155 L 1605 152 L 1604 147 L 1600 140 L 1596 138 L 1586 137 L 1573 130 L 1563 129 L 1557 134 L 1555 134 L 1553 131 L 1540 126 L 1510 125 L 1509 124 Z"/>
</g>


<!-- Region: Leipzig -->
<g class="region" data-name="Leipzig Region" data-url="https://www.leipzig.travel/" id="leipzig">
<!-- breite unsichtbare Klickfläche -->
<path class="hit" d="M626,455.7l-4.6-3.8c-.9-.8-2.2-1-3.3-.6l-1.4.5c-.6.2-1.3.2-1.9,0l-4-1c-.9-.2-1.8,0-2.6.4l-3.3,1.9c-1,.6-1.6,1.5-1.7,2.6h0c-.2,2.2-2.5,3.6-4.6,2.9l-3.3-1.2c-1-.3-2.1-.2-3,.3l-6.3,3.8c-1.1.6-2.4.7-3.5,0l-6.1-3.4c-.7-.4-1.5-.5-2.2-.4l-10.1,1.6h-.4l-12,.5h-.3l-27.3,3.5-14.8,2.5c-.6,0-1.3,0-1.8-.2l-10.8-4.2c-1.2-.5-2-1.6-2.2-2.8l-1.9-16.6c0-.3,0-.6-.2-.9l-4.4-11.5c-.4-1.1-1.5-2-2.7-2.2l-7.8-1.3c-.7,0-1.4,0-2,.3l-15.2,6.9c-.6.3-1.3.4-2,.3l-13.2-2.2c-.6,0-1.2,0-1.8.2l-6.9,2.6c-.9.3-1.9.3-2.7,0l-7.4-3.5c-.5-.2-.9-.5-1.2-.9l-2.9-3.5c-.8-1-2-1.4-3.3-1.2l-10.3,1.8h-.7l-13.3-.5h-.9l-8.8,2c-1.2.3-2.2,1.1-2.5,2.3l-1.9,5.6c-.3,1-.2,2,.3,2.9l2.4,4c1.2,1.9.2,4.5-2,5.1-3.5,1.1-7.8,2.4-8.2,2.4-.6,0-11.4.7-13.6.8s-.5,0-.8,0l-5.7-.9c-1.2-.2-2.4.2-3.2,1.1l-5.3,6.1c-.8,1-1.1,2.3-.6,3.5l2.7,7.1c.5,1.2.2,2.5-.6,3.5l-1.8,2.1c-1.3,1.5-1.1,3.9.6,5.1l2.7,2c.8.6,1.9.8,2.9.6l10.8-2.5h.9l11.1.3c.9,0,1.7.4,2.4,1,1.8,1.8,5.4,5.5,5.5,5.8s1.5,5,2.4,7.7,0,2.7-1,3.6l-5,4.6c-.3.3-.5.6-.7.9l-4.3,8c-.6,1.2-1.9,1.9-3.3,1.8l-5.1-.3c-.6,0-1.3,0-1.9.4l-6.1,3.3c-.9.5-1.9.5-2.9.2l-1.8-.7c-.8-.3-1.7-.3-2.4,0h0c-2,.7-4.2,0-5.2-1.8l-6.4-10.9c-.4-1-1.3-1.7-2.4-1.8l-27.9-2c-.3,0-.6-.2-.9-.4s-.3-.6-.3-.9l1.2-12.9c.1-.6-.1-1.2-.4-1.8l-18.2-27.8c-.4-.5-.9-1-1.5-1.1l-13.7-4c-.4,0-.6-.4-.8-.7l-4.8-10.8c-.6-1.4-2.2-2-3.6-1.4l-16.1,6.8h-.9l-22.3-7.8c-.2,0-.3,0-.4-.2l-13.7-12.3c-.8-.7-1.9-.9-2.9-.5l-17.6,7h-1.2l-25.4-17c-.4-.2-.6-.7-.6-1.1l.6-12.5c.1-1.1-.5-2.1-1.5-2.6l-11.1-5.9c-.4-.2-.7-.7-.7-1.2l2.5-48.5c0-.4-.1-.9-.2-1.2l-4.9-11.1c-.1-.1-.1-.3-.1-.4l-.7-14.6c0-.6-.2-1.1-.6-1.6l-7.5-9.2-.2-.5-3.2-18.7c0-.1-.1-.3-.1-.4l-5.4-16.4c-.2-.6.1-1.2.7-1.5,8.6-4.5,15.2-17.8,16.4-20.4.2-.4.3-.8.3-1.2l-.4-25.2c0-.7-.3-1.3-.7-1.8l-7.1-7.8c-.4-.4-.4-.9-.2-1.4l7.7-16.4c.5-1.1.2-2.4-.7-3.2l-10.8-9.5c-.1-.1-.2-.3-.3-.4l-8.6-19.5c-.2-.5,0-1,.3-1.4l12.9-12.6c.2-.2.6-.4.9-.4l8.6.6c.7.1,1.4-.2,2-.7s.9-1.2.9-1.9l.6-12.4c0-.4-.1-.9-.2-1.2l-3.7-8.5c-.1-.2-.1-.3-.1-.5v-14.8c0-.3.1-.6.4-.9l20-20.3c.3-.3.6-.4,1-.4l20.2,1.4c.8,0,1.5-.2,2.1-.7l18.2-16.8c.2-.2.4-.3.7-.3l20.9-2.8h.6l15.8,5.6c1.3.5,2.7,0,3.3-1.3l9-16.8c.3-.6,1.1-.8,1.7-.5l13.3,6.8c.9.4,1.9.4,2.7,0l9.9-6c.3-.2.6-.2,1-.2l13.2,3.3c.7.2,1.5,0,2.1-.3l24.3-15.8c.2,0,.4-.2.6-.2l21.1-.3c.9,0,1.7-.5,2.2-1.2l19-27.6c.3-.5,1-.7,1.5-.4l27.3,10.9c.9.4,1.9.2,2.6-.3l24.7-17.8c.3-.2.7-.3,1.1-.2l46.2,14.4c.2,0,.4.2.6.4l5.6,6.4c.5.6,1.3.9,2.1,1h0c.8,0,1.5-.3,2.1-.9l17.6-20.2c.5-.5,1.2-.6,1.8,0l8.2,7c.3.2.4.6.4.9v6c0,.8.3,1.6,1,2.1l6.2,5.4c1,.9,2.5.9,3.5.1l5.9-4.6c.3-.2.6-.3,1-.2s.7.3.8.6l16,25.8c.8,1.3,2.5,1.7,3.8.9l10-6c.5-.3,1.1-.2,1.5.2l14.7,15c.4.4.5,1,.2,1.4l-5.3,10.6c-.4.8-.4,1.7,0,2.5l4.9,9.2c.5.9,1.4,1.5,2.4,1.5h10.3c.7,0,1.2.5,1.2,1.2l.6,11.2c0,.6.3,1.2.6,1.6l10.8,12.9c.2.3.3.7.3,1.1l-4,19.4c0,.5-.4.8-.9,1l-4.5,1.2c-1.2.3-2,1.3-2,2.5l-.6,11.6c0,.9.3,1.8,1.1,2.3l8.6,6.6c.3.2.4.5.5.9l.5,4.8c0,.4,0,.8-.4,1.1l-11.4,9.9c-.6.5-.9,1.2-1,1.9,0,.8.2,1.5.8,2l3.3,3.4c.8.8,2,1.1,3,.6l2.9-1.2c.3-.1.7-.1,1,0,.3.2.6.4.7.8l4.5,17.1s-.2-.1-.3-.1c-.9,0-1.7.4-2.2,1.1l-8.4,12.4c-.6.9-.6,2.2,0,3.1l6.4,8.2c.3.4.3,1,0,1.4l-2.9,3.5c-.5.6-.7,1.3-.6,2.1,0,.7.5,1.4,1.1,1.8,3.3,2.1,8.5,6.8,6.4,14.6l-2.5,17.7c0,.5,0,1,.2,1.4l6.1,13.7c.2.3,0,.7,0,1-.2.3-.5.5-.9.5-.8,0-1.5.4-2,1s-.7,1.5-.5,2.2l3.7,14.2v.7l-2.7,6.5c-.2.4-.6.7-1,.7h-2.9c-.8,0-1.5.3-2,.9s-.7,1.4-.6,2.1l4.7,26c0,.3,0,.7-.2.9l-3.2,3.7c-.8,1-.8,2.4,0,3.4l5.8,6.7.2.5,2,15.7c0,.8.5,1.5,1.2,1.9l15,9.2c.2.1.4.4.5.6l4.5,14.9v.5l-2.7,15.4c0,.3-.3.6-.6.8l-8.2,4c-.8.4-1.4,1.2-1.5,2.2v2.4c0,.9.2,1.7,1,2.2.7.5,1.6.6,2.5.3l4.9-1.9h.9c.3.2.5.4.5.8l5,28.4c0,.5-.2,1-.6,1.2l-2.9,1.3c-.6.3-1.1.8-1.3,1.4l-1.9,4.7c-.3.7-.2,1.5,0,2.2h0v-.2Z"></path>
<!-- sichtbare Fläche -->
<path class="flaeche" d="M626,455.7l-4.6-3.8c-.9-.8-2.2-1-3.3-.6l-1.4.5c-.6.2-1.3.2-1.9,0l-4-1c-.9-.2-1.8,0-2.6.4l-3.3,1.9c-1,.6-1.6,1.5-1.7,2.6h0c-.2,2.2-2.5,3.6-4.6,2.9l-3.3-1.2c-1-.3-2.1-.2-3,.3l-6.3,3.8c-1.1.6-2.4.7-3.5,0l-6.1-3.4c-.7-.4-1.5-.5-2.2-.4l-10.1,1.6h-.4l-12,.5h-.3l-27.3,3.5-14.8,2.5c-.6,0-1.3,0-1.8-.2l-10.8-4.2c-1.2-.5-2-1.6-2.2-2.8l-1.9-16.6c0-.3,0-.6-.2-.9l-4.4-11.5c-.4-1.1-1.5-2-2.7-2.2l-7.8-1.3c-.7,0-1.4,0-2,.3l-15.2,6.9c-.6.3-1.3.4-2,.3l-13.2-2.2c-.6,0-1.2,0-1.8.2l-6.9,2.6c-.9.3-1.9.3-2.7,0l-7.4-3.5c-.5-.2-.9-.5-1.2-.9l-2.9-3.5c-.8-1-2-1.4-3.3-1.2l-10.3,1.8h-.7l-13.3-.5h-.9l-8.8,2c-1.2.3-2.2,1.1-2.5,2.3l-1.9,5.6c-.3,1-.2,2,.3,2.9l2.4,4c1.2,1.9.2,4.5-2,5.1-3.5,1.1-7.8,2.4-8.2,2.4-.6,0-11.4.7-13.6.8s-.5,0-.8,0l-5.7-.9c-1.2-.2-2.4.2-3.2,1.1l-5.3,6.1c-.8,1-1.1,2.3-.6,3.5l2.7,7.1c.5,1.2.2,2.5-.6,3.5l-1.8,2.1c-1.3,1.5-1.1,3.9.6,5.1l2.7,2c.8.6,1.9.8,2.9.6l10.8-2.5h.9l11.1.3c.9,0,1.7.4,2.4,1,1.8,1.8,5.4,5.5,5.5,5.8s1.5,5,2.4,7.7,0,2.7-1,3.6l-5,4.6c-.3.3-.5.6-.7.9l-4.3,8c-.6,1.2-1.9,1.9-3.3,1.8l-5.1-.3c-.6,0-1.3,0-1.9.4l-6.1,3.3c-.9.5-1.9.5-2.9.2l-1.8-.7c-.8-.3-1.7-.3-2.4,0h0c-2,.7-4.2,0-5.2-1.8l-6.4-10.9c-.4-1-1.3-1.7-2.4-1.8l-27.9-2c-.3,0-.6-.2-.9-.4s-.3-.6-.3-.9l1.2-12.9c.1-.6-.1-1.2-.4-1.8l-18.2-27.8c-.4-.5-.9-1-1.5-1.1l-13.7-4c-.4,0-.6-.4-.8-.7l-4.8-10.8c-.6-1.4-2.2-2-3.6-1.4l-16.1,6.8h-.9l-22.3-7.8c-.2,0-.3,0-.4-.2l-13.7-12.3c-.8-.7-1.9-.9-2.9-.5l-17.6,7h-1.2l-25.4-17c-.4-.2-.6-.7-.6-1.1l.6-12.5c.1-1.1-.5-2.1-1.5-2.6l-11.1-5.9c-.4-.2-.7-.7-.7-1.2l2.5-48.5c0-.4-.1-.9-.2-1.2l-4.9-11.1c-.1-.1-.1-.3-.1-.4l-.7-14.6c0-.6-.2-1.1-.6-1.6l-7.5-9.2-.2-.5-3.2-18.7c0-.1-.1-.3-.1-.4l-5.4-16.4c-.2-.6.1-1.2.7-1.5,8.6-4.5,15.2-17.8,16.4-20.4.2-.4.3-.8.3-1.2l-.4-25.2c0-.7-.3-1.3-.7-1.8l-7.1-7.8c-.4-.4-.4-.9-.2-1.4l7.7-16.4c.5-1.1.2-2.4-.7-3.2l-10.8-9.5c-.1-.1-.2-.3-.3-.4l-8.6-19.5c-.2-.5,0-1,.3-1.4l12.9-12.6c.2-.2.6-.4.9-.4l8.6.6c.7.1,1.4-.2,2-.7s.9-1.2.9-1.9l.6-12.4c0-.4-.1-.9-.2-1.2l-3.7-8.5c-.1-.2-.1-.3-.1-.5v-14.8c0-.3.1-.6.4-.9l20-20.3c.3-.3.6-.4,1-.4l20.2,1.4c.8,0,1.5-.2,2.1-.7l18.2-16.8c.2-.2.4-.3.7-.3l20.9-2.8h.6l15.8,5.6c1.3.5,2.7,0,3.3-1.3l9-16.8c.3-.6,1.1-.8,1.7-.5l13.3,6.8c.9.4,1.9.4,2.7,0l9.9-6c.3-.2.6-.2,1-.2l13.2,3.3c.7.2,1.5,0,2.1-.3l24.3-15.8c.2,0,.4-.2.6-.2l21.1-.3c.9,0,1.7-.5,2.2-1.2l19-27.6c.3-.5,1-.7,1.5-.4l27.3,10.9c.9.4,1.9.2,2.6-.3l24.7-17.8c.3-.2.7-.3,1.1-.2l46.2,14.4c.2,0,.4.2.6.4l5.6,6.4c.5.6,1.3.9,2.1,1h0c.8,0,1.5-.3,2.1-.9l17.6-20.2c.5-.5,1.2-.6,1.8,0l8.2,7c.3.2.4.6.4.9v6c0,.8.3,1.6,1,2.1l6.2,5.4c1,.9,2.5.9,3.5.1l5.9-4.6c.3-.2.6-.3,1-.2s.7.3.8.6l16,25.8c.8,1.3,2.5,1.7,3.8.9l10-6c.5-.3,1.1-.2,1.5.2l14.7,15c.4.4.5,1,.2,1.4l-5.3,10.6c-.4.8-.4,1.7,0,2.5l4.9,9.2c.5.9,1.4,1.5,2.4,1.5h10.3c.7,0,1.2.5,1.2,1.2l.6,11.2c0,.6.3,1.2.6,1.6l10.8,12.9c.2.3.3.7.3,1.1l-4,19.4c0,.5-.4.8-.9,1l-4.5,1.2c-1.2.3-2,1.3-2,2.5l-.6,11.6c0,.9.3,1.8,1.1,2.3l8.6,6.6c.3.2.4.5.5.9l.5,4.8c0,.4,0,.8-.4,1.1l-11.4,9.9c-.6.5-.9,1.2-1,1.9,0,.8.2,1.5.8,2l3.3,3.4c.8.8,2,1.1,3,.6l2.9-1.2c.3-.1.7-.1,1,0,.3.2.6.4.7.8l4.5,17.1s-.2-.1-.3-.1c-.9,0-1.7.4-2.2,1.1l-8.4,12.4c-.6.9-.6,2.2,0,3.1l6.4,8.2c.3.4.3,1,0,1.4l-2.9,3.5c-.5.6-.7,1.3-.6,2.1,0,.7.5,1.4,1.1,1.8,3.3,2.1,8.5,6.8,6.4,14.6l-2.5,17.7c0,.5,0,1,.2,1.4l6.1,13.7c.2.3,0,.7,0,1-.2.3-.5.5-.9.5-.8,0-1.5.4-2,1s-.7,1.5-.5,2.2l3.7,14.2v.7l-2.7,6.5c-.2.4-.6.7-1,.7h-2.9c-.8,0-1.5.3-2,.9s-.7,1.4-.6,2.1l4.7,26c0,.3,0,.7-.2.9l-3.2,3.7c-.8,1-.8,2.4,0,3.4l5.8,6.7.2.5,2,15.7c0,.8.5,1.5,1.2,1.9l15,9.2c.2.1.4.4.5.6l4.5,14.9v.5l-2.7,15.4c0,.3-.3.6-.6.8l-8.2,4c-.8.4-1.4,1.2-1.5,2.2v2.4c0,.9.2,1.7,1,2.2.7.5,1.6.6,2.5.3l4.9-1.9h.9c.3.2.5.4.5.8l5,28.4c0,.5-.2,1-.6,1.2l-2.9,1.3c-.6.3-1.1.8-1.3,1.4l-1.9,4.7c-.3.7-.2,1.5,0,2.2h0v-.2Z"></path>
</g>
<!-- Region: Leipzig (Stadt) -->

<!-- Chemnitz.Zwickau.Region -->
<!-- Chemnitz-Region (als klickbares DMO-Polygon) -->
<g class="region" data-name="Chemnitz.Zwickau.Region." data-url="https://chemnitz-zwickau-region.de/" id="chemnitz_zwickau_region">
<!-- breite, unsichtbare Klick-/Hover-Fläche -->
<path class="hit" d="M 1365 890 L 1361 883 L 1355 876 L 1332 870 L 1328 867 L 1327 863 L 1325 863 L 1318 855 L 1318 847 L 1323 842 L 1330 841 L 1337 834 L 1322 833 L 1318 830 L 1317 823 L 1308 811 L 1307 793 L 1300 786 L 1298 782 L 1296 773 L 1293 767 L 1293 764 L 1291 762 L 1289 753 L 1284 746 L 1281 746 L 1271 751 L 1259 752 L 1245 760 L 1240 760 L 1238 758 L 1238 753 L 1236 748 L 1231 740 L 1219 727 L 1216 726 L 1215 724 L 1205 721 L 1195 722 L 1189 724 L 1185 729 L 1188 741 L 1188 764 L 1187 765 L 1187 775 L 1186 776 L 1186 788 L 1185 791 L 1177 799 L 1176 811 L 1167 818 L 1165 818 L 1149 828 L 1147 828 L 1143 823 L 1139 824 L 1132 823 L 1129 820 L 1128 817 L 1122 812 L 1119 807 L 1119 803 L 1124 797 L 1124 795 L 1113 777 L 1110 764 L 1107 761 L 1093 754 L 1089 749 L 1088 732 L 1082 727 L 1081 723 L 1082 715 L 1072 715 L 1070 713 L 1072 704 L 1078 692 L 1086 684 L 1092 683 L 1098 675 L 1093 676 L 1090 678 L 1079 678 L 1071 671 L 1069 667 L 1068 657 L 1070 651 L 1080 636 L 1078 634 L 1077 630 L 1074 628 L 1065 626 L 1052 620 L 1045 610 L 1043 609 L 1031 610 L 1025 613 L 1012 623 L 1003 626 L 989 627 L 978 630 L 968 643 L 959 647 L 958 646 L 954 651 L 950 651 L 951 661 L 952 662 L 952 674 L 949 679 L 942 686 L 939 691 L 938 696 L 939 708 L 941 714 L 941 729 L 938 732 L 932 732 L 929 735 L 929 738 L 927 742 L 915 753 L 914 756 L 915 762 L 914 763 L 899 765 L 897 767 L 895 767 L 891 773 L 891 776 L 894 783 L 903 795 L 903 799 L 899 803 L 892 805 L 894 810 L 897 811 L 901 815 L 902 821 L 898 824 L 894 822 L 893 820 L 883 819 L 878 821 L 869 828 L 858 828 L 846 823 L 842 835 L 847 839 L 847 846 L 833 872 L 829 887 L 825 887 L 823 885 L 821 885 L 810 879 L 810 887 L 808 891 L 794 902 L 788 902 L 784 899 L 782 899 L 779 905 L 780 911 L 776 914 L 765 914 L 754 909 L 746 900 L 745 895 L 735 897 L 732 895 L 732 892 L 746 881 L 744 875 L 737 878 L 733 878 L 732 877 L 732 869 L 733 868 L 723 864 L 715 859 L 708 863 L 708 866 L 704 870 L 696 871 L 692 873 L 679 873 L 677 871 L 672 883 L 666 887 L 662 887 L 655 882 L 651 882 L 648 884 L 645 888 L 645 894 L 647 899 L 647 913 L 641 919 L 627 919 L 624 918 L 619 913 L 618 905 L 608 907 L 613 920 L 614 931 L 612 933 L 600 932 L 599 935 L 606 941 L 621 949 L 635 949 L 639 954 L 639 960 L 643 961 L 645 963 L 646 969 L 640 988 L 635 989 L 633 991 L 634 995 L 640 997 L 643 1001 L 644 1004 L 643 1007 L 638 1011 L 637 1016 L 631 1020 L 628 1020 L 625 1025 L 620 1025 L 608 1017 L 599 1017 L 593 1023 L 592 1033 L 587 1038 L 572 1038 L 569 1041 L 571 1057 L 563 1061 L 561 1064 L 561 1067 L 568 1071 L 578 1072 L 582 1076 L 583 1084 L 580 1091 L 574 1096 L 569 1097 L 564 1100 L 557 1100 L 545 1093 L 538 1094 L 529 1104 L 527 1112 L 523 1113 L 517 1121 L 496 1128 L 493 1132 L 497 1137 L 497 1141 L 487 1145 L 490 1151 L 494 1155 L 499 1157 L 505 1155 L 509 1160 L 509 1173 L 508 1174 L 525 1192 L 530 1195 L 531 1197 L 536 1199 L 537 1201 L 539 1201 L 542 1204 L 557 1212 L 564 1218 L 566 1223 L 566 1231 L 565 1232 L 566 1235 L 572 1235 L 582 1226 L 589 1226 L 600 1230 L 606 1230 L 611 1228 L 614 1225 L 617 1225 L 632 1239 L 636 1241 L 637 1233 L 649 1221 L 650 1216 L 654 1209 L 666 1204 L 668 1202 L 673 1201 L 675 1199 L 683 1197 L 689 1194 L 693 1194 L 697 1198 L 701 1195 L 704 1190 L 704 1186 L 706 1183 L 715 1185 L 716 1187 L 719 1188 L 720 1190 L 730 1197 L 735 1199 L 736 1201 L 738 1201 L 741 1204 L 746 1206 L 758 1214 L 769 1219 L 774 1225 L 779 1228 L 796 1225 L 805 1221 L 810 1216 L 811 1211 L 819 1202 L 827 1197 L 830 1191 L 830 1187 L 828 1182 L 828 1165 L 830 1161 L 831 1152 L 834 1143 L 834 1134 L 836 1132 L 840 1131 L 846 1132 L 854 1140 L 857 1141 L 869 1141 L 881 1137 L 894 1125 L 900 1124 L 903 1127 L 904 1134 L 916 1133 L 921 1134 L 924 1136 L 936 1137 L 934 1129 L 937 1125 L 943 1121 L 944 1113 L 954 1096 L 955 1091 L 952 1084 L 952 1080 L 958 1074 L 959 1065 L 965 1055 L 971 1048 L 976 1048 L 978 1050 L 983 1051 L 988 1050 L 992 1055 L 997 1065 L 1004 1064 L 1008 1062 L 1013 1062 L 1014 1061 L 1011 1047 L 1012 1038 L 1015 1034 L 1036 1026 L 1043 1020 L 1044 1012 L 1043 1011 L 1042 995 L 1044 993 L 1050 996 L 1055 996 L 1061 1001 L 1070 1020 L 1076 1027 L 1078 1027 L 1080 1029 L 1090 1031 L 1096 1036 L 1101 1036 L 1108 1029 L 1117 1016 L 1119 1011 L 1123 1007 L 1131 1006 L 1136 1002 L 1135 998 L 1131 996 L 1129 993 L 1129 987 L 1138 976 L 1142 974 L 1145 974 L 1144 969 L 1146 967 L 1147 963 L 1145 957 L 1136 947 L 1135 942 L 1140 937 L 1148 932 L 1154 930 L 1178 930 L 1181 932 L 1190 931 L 1197 927 L 1197 922 L 1199 919 L 1214 910 L 1224 911 L 1235 920 L 1246 925 L 1249 924 L 1249 917 L 1260 909 L 1262 909 L 1270 914 L 1277 907 L 1308 907 L 1321 915 L 1334 914 L 1337 913 L 1341 908 L 1341 901 L 1343 899 L 1346 900 L 1359 899 L 1365 894 Z"/>
  <path class="flaeche" d="M 1365 890 L 1361 883 L 1355 876 L 1332 870 L 1328 867 L 1327 863 L 1325 863 L 1318 855 L 1318 847 L 1323 842 L 1330 841 L 1337 834 L 1322 833 L 1318 830 L 1317 823 L 1308 811 L 1307 793 L 1300 786 L 1298 782 L 1296 773 L 1293 767 L 1293 764 L 1291 762 L 1289 753 L 1284 746 L 1281 746 L 1271 751 L 1259 752 L 1245 760 L 1240 760 L 1238 758 L 1238 753 L 1236 748 L 1231 740 L 1219 727 L 1216 726 L 1215 724 L 1205 721 L 1195 722 L 1189 724 L 1185 729 L 1188 741 L 1188 764 L 1187 765 L 1187 775 L 1186 776 L 1186 788 L 1185 791 L 1177 799 L 1176 811 L 1167 818 L 1165 818 L 1149 828 L 1147 828 L 1143 823 L 1139 824 L 1132 823 L 1129 820 L 1128 817 L 1122 812 L 1119 807 L 1119 803 L 1124 797 L 1124 795 L 1113 777 L 1110 764 L 1107 761 L 1093 754 L 1089 749 L 1088 732 L 1082 727 L 1081 723 L 1082 715 L 1072 715 L 1070 713 L 1072 704 L 1078 692 L 1086 684 L 1092 683 L 1098 675 L 1093 676 L 1090 678 L 1079 678 L 1071 671 L 1069 667 L 1068 657 L 1070 651 L 1080 636 L 1078 634 L 1077 630 L 1074 628 L 1065 626 L 1052 620 L 1045 610 L 1043 609 L 1031 610 L 1025 613 L 1012 623 L 1003 626 L 989 627 L 978 630 L 968 643 L 959 647 L 958 646 L 954 651 L 950 651 L 951 661 L 952 662 L 952 674 L 949 679 L 942 686 L 939 691 L 938 696 L 939 708 L 941 714 L 941 729 L 938 732 L 932 732 L 929 735 L 929 738 L 927 742 L 915 753 L 914 756 L 915 762 L 914 763 L 899 765 L 897 767 L 895 767 L 891 773 L 891 776 L 894 783 L 903 795 L 903 799 L 899 803 L 892 805 L 894 810 L 897 811 L 901 815 L 902 821 L 898 824 L 894 822 L 893 820 L 883 819 L 878 821 L 869 828 L 858 828 L 846 823 L 842 835 L 847 839 L 847 846 L 833 872 L 829 887 L 825 887 L 823 885 L 821 885 L 810 879 L 810 887 L 808 891 L 794 902 L 788 902 L 784 899 L 782 899 L 779 905 L 780 911 L 776 914 L 765 914 L 754 909 L 746 900 L 745 895 L 735 897 L 732 895 L 732 892 L 746 881 L 744 875 L 737 878 L 733 878 L 732 877 L 732 869 L 733 868 L 723 864 L 715 859 L 708 863 L 708 866 L 704 870 L 696 871 L 692 873 L 679 873 L 677 871 L 672 883 L 666 887 L 662 887 L 655 882 L 651 882 L 648 884 L 645 888 L 645 894 L 647 899 L 647 913 L 641 919 L 627 919 L 624 918 L 619 913 L 618 905 L 608 907 L 613 920 L 614 931 L 612 933 L 600 932 L 599 935 L 606 941 L 621 949 L 635 949 L 639 954 L 639 960 L 643 961 L 645 963 L 646 969 L 640 988 L 635 989 L 633 991 L 634 995 L 640 997 L 643 1001 L 644 1004 L 643 1007 L 638 1011 L 637 1016 L 631 1020 L 628 1020 L 625 1025 L 620 1025 L 608 1017 L 599 1017 L 593 1023 L 592 1033 L 587 1038 L 572 1038 L 569 1041 L 571 1057 L 563 1061 L 561 1064 L 561 1067 L 568 1071 L 578 1072 L 582 1076 L 583 1084 L 580 1091 L 574 1096 L 569 1097 L 564 1100 L 557 1100 L 545 1093 L 538 1094 L 529 1104 L 527 1112 L 523 1113 L 517 1121 L 496 1128 L 493 1132 L 497 1137 L 497 1141 L 487 1145 L 490 1151 L 494 1155 L 499 1157 L 505 1155 L 509 1160 L 509 1173 L 508 1174 L 525 1192 L 530 1195 L 531 1197 L 536 1199 L 537 1201 L 539 1201 L 542 1204 L 557 1212 L 564 1218 L 566 1223 L 566 1231 L 565 1232 L 566 1235 L 572 1235 L 582 1226 L 589 1226 L 600 1230 L 606 1230 L 611 1228 L 614 1225 L 617 1225 L 632 1239 L 636 1241 L 637 1233 L 649 1221 L 650 1216 L 654 1209 L 666 1204 L 668 1202 L 673 1201 L 675 1199 L 683 1197 L 689 1194 L 693 1194 L 697 1198 L 701 1195 L 704 1190 L 704 1186 L 706 1183 L 715 1185 L 716 1187 L 719 1188 L 720 1190 L 730 1197 L 735 1199 L 736 1201 L 738 1201 L 741 1204 L 746 1206 L 758 1214 L 769 1219 L 774 1225 L 779 1228 L 796 1225 L 805 1221 L 810 1216 L 811 1211 L 819 1202 L 827 1197 L 830 1191 L 830 1187 L 828 1182 L 828 1165 L 830 1161 L 831 1152 L 834 1143 L 834 1134 L 836 1132 L 840 1131 L 846 1132 L 854 1140 L 857 1141 L 869 1141 L 881 1137 L 894 1125 L 900 1124 L 903 1127 L 904 1134 L 916 1133 L 921 1134 L 924 1136 L 936 1137 L 934 1129 L 937 1125 L 943 1121 L 944 1113 L 954 1096 L 955 1091 L 952 1084 L 952 1080 L 958 1074 L 959 1065 L 965 1055 L 971 1048 L 976 1048 L 978 1050 L 983 1051 L 988 1050 L 992 1055 L 997 1065 L 1004 1064 L 1008 1062 L 1013 1062 L 1014 1061 L 1011 1047 L 1012 1038 L 1015 1034 L 1036 1026 L 1043 1020 L 1044 1012 L 1043 1011 L 1042 995 L 1044 993 L 1050 996 L 1055 996 L 1061 1001 L 1070 1020 L 1076 1027 L 1078 1027 L 1080 1029 L 1090 1031 L 1096 1036 L 1101 1036 L 1108 1029 L 1117 1016 L 1119 1011 L 1123 1007 L 1131 1006 L 1136 1002 L 1135 998 L 1131 996 L 1129 993 L 1129 987 L 1138 976 L 1142 974 L 1145 974 L 1144 969 L 1146 967 L 1147 963 L 1145 957 L 1136 947 L 1135 942 L 1140 937 L 1148 932 L 1154 930 L 1178 930 L 1181 932 L 1190 931 L 1197 927 L 1197 922 L 1199 919 L 1214 910 L 1224 911 L 1235 920 L 1246 925 L 1249 924 L 1249 917 L 1260 909 L 1262 909 L 1270 914 L 1277 907 L 1308 907 L 1321 915 L 1334 914 L 1337 913 L 1341 908 L 1341 901 L 1343 899 L 1346 900 L 1359 899 L 1365 894 Z"/>
</g>
<!-- Region: Chemnitz -->
<g class="region" data-name="Chemnitz" data-url="https://www.chemnitz.travel/" id="chemnitz_stadt">
<path class="hit" d="M 719 764 L 716 774 L 715 775 L 710 774 L 708 780 L 698 789 L 696 793 L 696 810 L 695 812 L 688 817 L 680 830 L 671 836 L 665 836 L 663 838 L 667 841 L 670 841 L 674 843 L 674 849 L 680 859 L 680 865 L 682 868 L 700 865 L 704 858 L 715 852 L 717 852 L 723 857 L 739 864 L 739 870 L 746 868 L 749 870 L 752 883 L 745 889 L 750 891 L 752 899 L 757 904 L 766 908 L 774 908 L 773 907 L 774 900 L 781 893 L 786 893 L 789 896 L 793 896 L 804 886 L 804 876 L 807 872 L 810 872 L 825 880 L 827 871 L 842 842 L 838 840 L 836 837 L 836 833 L 841 818 L 832 810 L 825 812 L 820 809 L 809 808 L 802 804 L 801 798 L 808 784 L 808 782 L 800 767 L 791 766 L 791 768 L 789 770 L 764 773 L 754 768 L 747 768 L 745 766 L 746 759 Z"/>
  <path class="flaeche" d="M 719 764 L 716 774 L 715 775 L 710 774 L 708 780 L 698 789 L 696 793 L 696 810 L 695 812 L 688 817 L 680 830 L 671 836 L 665 836 L 663 838 L 667 841 L 670 841 L 674 843 L 674 849 L 680 859 L 680 865 L 682 868 L 700 865 L 704 858 L 715 852 L 717 852 L 723 857 L 739 864 L 739 870 L 746 868 L 749 870 L 752 883 L 745 889 L 750 891 L 752 899 L 757 904 L 766 908 L 774 908 L 773 907 L 774 900 L 781 893 L 786 893 L 789 896 L 793 896 L 804 886 L 804 876 L 807 872 L 810 872 L 825 880 L 827 871 L 842 842 L 838 840 L 836 837 L 836 833 L 841 818 L 832 810 L 825 812 L 820 809 L 809 808 L 802 804 L 801 798 L 808 784 L 808 782 L 800 767 L 791 766 L 791 768 L 789 770 L 764 773 L 754 768 L 747 768 L 745 766 L 746 759 Z"/>
</g>
<!-- Region: Vogtland -->
<!-- Vogtland-Region (als klickbares DMO-Polygon) -->
<g class="region" data-name="Vogtland" data-url="https://www.vogtland-tourismus.de/de/" id="vogtland">
<!-- Klick-/Hover-Hitarea (breiter Stroke) -->
<path class="hit" d="M 223 753 L 214 757 L 214 769 L 212 771 L 207 770 L 205 768 L 197 765 L 188 764 L 189 767 L 189 781 L 186 787 L 181 792 L 177 794 L 172 795 L 169 793 L 165 793 L 162 795 L 156 803 L 151 805 L 148 808 L 144 816 L 140 820 L 140 822 L 157 825 L 162 828 L 160 833 L 161 854 L 159 857 L 151 857 L 150 858 L 156 869 L 154 875 L 151 878 L 153 883 L 152 889 L 148 893 L 144 894 L 143 893 L 133 892 L 133 896 L 146 904 L 166 907 L 171 913 L 171 927 L 169 932 L 166 935 L 155 938 L 153 940 L 151 946 L 149 948 L 142 950 L 138 953 L 136 957 L 131 974 L 131 986 L 130 987 L 131 1011 L 138 1040 L 140 1042 L 141 1048 L 143 1049 L 150 1048 L 154 1051 L 157 1051 L 167 1058 L 167 1060 L 165 1061 L 163 1065 L 156 1066 L 158 1070 L 158 1072 L 156 1074 L 154 1073 L 152 1069 L 152 1066 L 141 1065 L 129 1061 L 120 1063 L 120 1066 L 116 1069 L 112 1067 L 108 1069 L 100 1069 L 99 1068 L 89 1069 L 83 1063 L 77 1069 L 66 1073 L 60 1082 L 56 1082 L 51 1078 L 51 1058 L 52 1057 L 49 1055 L 48 1051 L 46 1050 L 35 1049 L 26 1055 L 21 1055 L 20 1060 L 14 1068 L 7 1067 L 13 1074 L 18 1070 L 22 1071 L 24 1073 L 24 1077 L 16 1087 L 13 1087 L 7 1090 L 8 1099 L 5 1103 L 6 1110 L 12 1116 L 19 1115 L 25 1120 L 36 1119 L 37 1118 L 46 1119 L 49 1124 L 53 1126 L 60 1120 L 61 1116 L 65 1110 L 72 1111 L 80 1117 L 80 1128 L 82 1130 L 82 1133 L 79 1135 L 81 1138 L 81 1141 L 78 1144 L 75 1144 L 75 1152 L 72 1155 L 59 1155 L 57 1157 L 53 1157 L 53 1160 L 44 1167 L 38 1166 L 39 1170 L 37 1172 L 36 1178 L 37 1179 L 47 1174 L 52 1167 L 55 1167 L 69 1175 L 71 1179 L 73 1177 L 88 1178 L 92 1174 L 101 1173 L 109 1181 L 123 1181 L 125 1182 L 126 1187 L 129 1190 L 135 1193 L 143 1191 L 144 1195 L 138 1197 L 138 1207 L 156 1211 L 158 1213 L 157 1221 L 162 1222 L 167 1227 L 171 1235 L 175 1238 L 175 1241 L 172 1246 L 179 1245 L 183 1247 L 186 1251 L 192 1255 L 192 1283 L 188 1289 L 189 1291 L 199 1289 L 201 1291 L 201 1294 L 211 1294 L 216 1301 L 220 1301 L 222 1303 L 222 1310 L 225 1307 L 228 1307 L 233 1310 L 249 1312 L 256 1308 L 260 1308 L 262 1310 L 261 1318 L 271 1319 L 275 1323 L 275 1325 L 291 1318 L 315 1318 L 317 1327 L 326 1333 L 325 1349 L 329 1359 L 329 1367 L 358 1367 L 364 1375 L 368 1378 L 367 1390 L 366 1391 L 356 1389 L 352 1392 L 367 1405 L 371 1404 L 374 1406 L 384 1418 L 381 1424 L 381 1436 L 374 1443 L 383 1452 L 385 1461 L 388 1459 L 391 1459 L 397 1462 L 402 1462 L 401 1455 L 407 1447 L 407 1444 L 403 1438 L 401 1432 L 402 1421 L 404 1418 L 406 1418 L 404 1412 L 403 1401 L 404 1398 L 407 1395 L 419 1398 L 417 1388 L 417 1378 L 424 1360 L 431 1353 L 437 1351 L 447 1345 L 448 1339 L 446 1330 L 446 1319 L 451 1317 L 458 1317 L 468 1315 L 469 1314 L 469 1306 L 471 1302 L 486 1288 L 494 1287 L 500 1292 L 502 1291 L 503 1285 L 500 1277 L 500 1269 L 513 1253 L 517 1245 L 524 1245 L 533 1242 L 549 1242 L 555 1239 L 560 1232 L 560 1223 L 554 1217 L 528 1202 L 512 1188 L 503 1178 L 503 1162 L 494 1162 L 492 1161 L 485 1154 L 481 1145 L 482 1140 L 489 1138 L 488 1128 L 493 1123 L 503 1119 L 512 1117 L 515 1115 L 518 1109 L 522 1108 L 523 1104 L 508 1094 L 492 1099 L 484 1090 L 478 1092 L 469 1090 L 464 1085 L 462 1081 L 462 1067 L 464 1061 L 465 1051 L 469 1046 L 470 1041 L 467 1039 L 455 1037 L 450 1034 L 450 1029 L 455 1020 L 455 1017 L 451 1015 L 443 1006 L 439 1004 L 430 995 L 428 990 L 429 986 L 428 983 L 424 984 L 421 989 L 415 994 L 411 994 L 406 991 L 400 991 L 398 989 L 398 982 L 396 981 L 395 989 L 392 990 L 390 988 L 392 980 L 394 979 L 392 974 L 375 973 L 367 970 L 361 964 L 359 959 L 359 953 L 356 950 L 353 944 L 353 939 L 361 929 L 361 924 L 355 926 L 345 926 L 338 920 L 336 908 L 338 898 L 347 888 L 363 891 L 368 885 L 374 874 L 355 873 L 352 867 L 351 857 L 345 846 L 336 845 L 333 847 L 329 847 L 321 841 L 310 835 L 313 819 L 316 816 L 322 814 L 322 806 L 325 804 L 328 804 L 331 800 L 332 787 L 330 782 L 328 781 L 318 782 L 315 779 L 313 767 L 306 753 L 302 750 L 295 751 L 294 757 L 292 759 L 273 762 L 253 750 L 237 758 L 232 758 L 225 753 Z"/>
  <path class="flaeche" d="M 223 753 L 214 757 L 214 769 L 212 771 L 207 770 L 205 768 L 197 765 L 188 764 L 189 767 L 189 781 L 186 787 L 181 792 L 177 794 L 172 795 L 169 793 L 165 793 L 162 795 L 156 803 L 151 805 L 148 808 L 144 816 L 140 820 L 140 822 L 157 825 L 162 828 L 160 833 L 161 854 L 159 857 L 151 857 L 150 858 L 156 869 L 154 875 L 151 878 L 153 883 L 152 889 L 148 893 L 144 894 L 143 893 L 133 892 L 133 896 L 146 904 L 166 907 L 171 913 L 171 927 L 169 932 L 166 935 L 155 938 L 153 940 L 151 946 L 149 948 L 142 950 L 138 953 L 136 957 L 131 974 L 131 986 L 130 987 L 131 1011 L 138 1040 L 140 1042 L 141 1048 L 143 1049 L 150 1048 L 154 1051 L 157 1051 L 167 1058 L 167 1060 L 165 1061 L 163 1065 L 156 1066 L 158 1070 L 158 1072 L 156 1074 L 154 1073 L 152 1069 L 152 1066 L 141 1065 L 129 1061 L 120 1063 L 120 1066 L 116 1069 L 112 1067 L 108 1069 L 100 1069 L 99 1068 L 89 1069 L 83 1063 L 77 1069 L 66 1073 L 60 1082 L 56 1082 L 51 1078 L 51 1058 L 52 1057 L 49 1055 L 48 1051 L 46 1050 L 35 1049 L 26 1055 L 21 1055 L 20 1060 L 14 1068 L 7 1067 L 13 1074 L 18 1070 L 22 1071 L 24 1073 L 24 1077 L 16 1087 L 13 1087 L 7 1090 L 8 1099 L 5 1103 L 6 1110 L 12 1116 L 19 1115 L 25 1120 L 36 1119 L 37 1118 L 46 1119 L 49 1124 L 53 1126 L 60 1120 L 61 1116 L 65 1110 L 72 1111 L 80 1117 L 80 1128 L 82 1130 L 82 1133 L 79 1135 L 81 1138 L 81 1141 L 78 1144 L 75 1144 L 75 1152 L 72 1155 L 59 1155 L 57 1157 L 53 1157 L 53 1160 L 44 1167 L 38 1166 L 39 1170 L 37 1172 L 36 1178 L 37 1179 L 47 1174 L 52 1167 L 55 1167 L 69 1175 L 71 1179 L 73 1177 L 88 1178 L 92 1174 L 101 1173 L 109 1181 L 123 1181 L 125 1182 L 126 1187 L 129 1190 L 135 1193 L 143 1191 L 144 1195 L 138 1197 L 138 1207 L 156 1211 L 158 1213 L 157 1221 L 162 1222 L 167 1227 L 171 1235 L 175 1238 L 175 1241 L 172 1246 L 179 1245 L 183 1247 L 186 1251 L 192 1255 L 192 1283 L 188 1289 L 189 1291 L 199 1289 L 201 1291 L 201 1294 L 211 1294 L 216 1301 L 220 1301 L 222 1303 L 222 1310 L 225 1307 L 228 1307 L 233 1310 L 249 1312 L 256 1308 L 260 1308 L 262 1310 L 261 1318 L 271 1319 L 275 1323 L 275 1325 L 291 1318 L 315 1318 L 317 1327 L 326 1333 L 325 1349 L 329 1359 L 329 1367 L 358 1367 L 364 1375 L 368 1378 L 367 1390 L 366 1391 L 356 1389 L 352 1392 L 367 1405 L 371 1404 L 374 1406 L 384 1418 L 381 1424 L 381 1436 L 374 1443 L 383 1452 L 385 1461 L 388 1459 L 391 1459 L 397 1462 L 402 1462 L 401 1455 L 407 1447 L 407 1444 L 403 1438 L 401 1432 L 402 1421 L 404 1418 L 406 1418 L 404 1412 L 403 1401 L 404 1398 L 407 1395 L 419 1398 L 417 1388 L 417 1378 L 424 1360 L 431 1353 L 437 1351 L 447 1345 L 448 1339 L 446 1330 L 446 1319 L 451 1317 L 458 1317 L 468 1315 L 469 1314 L 469 1306 L 471 1302 L 486 1288 L 494 1287 L 500 1292 L 502 1291 L 503 1285 L 500 1277 L 500 1269 L 513 1253 L 517 1245 L 524 1245 L 533 1242 L 549 1242 L 555 1239 L 560 1232 L 560 1223 L 554 1217 L 528 1202 L 512 1188 L 503 1178 L 503 1162 L 494 1162 L 492 1161 L 485 1154 L 481 1145 L 482 1140 L 489 1138 L 488 1128 L 493 1123 L 503 1119 L 512 1117 L 515 1115 L 518 1109 L 522 1108 L 523 1104 L 508 1094 L 492 1099 L 484 1090 L 478 1092 L 469 1090 L 464 1085 L 462 1081 L 462 1067 L 464 1061 L 465 1051 L 469 1046 L 470 1041 L 467 1039 L 455 1037 L 450 1034 L 450 1029 L 455 1020 L 455 1017 L 451 1015 L 443 1006 L 439 1004 L 430 995 L 428 990 L 429 986 L 428 983 L 424 984 L 421 989 L 415 994 L 411 994 L 406 991 L 400 991 L 398 989 L 398 982 L 396 981 L 395 989 L 392 990 L 390 988 L 392 980 L 394 979 L 392 974 L 375 973 L 367 970 L 361 964 L 359 959 L 359 953 L 356 950 L 353 944 L 353 939 L 361 929 L 361 924 L 355 926 L 345 926 L 338 920 L 336 908 L 338 898 L 347 888 L 363 891 L 368 885 L 374 874 L 355 873 L 352 867 L 351 857 L 345 846 L 336 845 L 333 847 L 329 847 L 321 841 L 310 835 L 313 819 L 316 816 L 322 814 L 322 806 L 325 804 L 328 804 L 331 800 L 332 787 L 330 782 L 328 781 L 318 782 L 315 779 L 313 767 L 306 753 L 302 750 L 295 751 L 294 757 L 292 759 L 273 762 L 253 750 L 237 758 L 232 758 L 225 753 Z"/>
</g>
<!-- Region: Dresden -->
<!-- Dresden-Region (als klickbares DMO-Polygon) -->
<g class="region" data-name="Dresden Elbland" data-url="https://www.visit-dresden-elbland.de/" id="dresden">
<!-- Klick-/Hover-Hitarea (breiter Stroke) -->
<path class="hit" d="M 1047 222 L 1042 227 L 1037 236 L 1038 245 L 1036 247 L 1033 248 L 1024 241 L 1018 240 L 1009 246 L 1005 247 L 989 257 L 982 260 L 979 274 L 967 274 L 965 273 L 972 280 L 972 284 L 969 288 L 966 288 L 959 281 L 943 279 L 937 277 L 933 274 L 931 274 L 924 281 L 922 286 L 921 294 L 930 299 L 933 304 L 931 320 L 939 328 L 938 332 L 935 336 L 933 345 L 934 346 L 935 356 L 940 371 L 940 377 L 936 386 L 940 397 L 939 405 L 934 412 L 929 412 L 931 415 L 932 420 L 934 422 L 934 430 L 931 433 L 931 436 L 935 442 L 937 451 L 931 457 L 938 463 L 941 472 L 941 485 L 949 489 L 958 498 L 964 500 L 968 508 L 964 524 L 963 546 L 961 548 L 951 552 L 951 555 L 962 548 L 965 551 L 969 560 L 968 582 L 971 589 L 971 595 L 968 599 L 966 599 L 966 601 L 975 609 L 972 622 L 963 631 L 961 635 L 961 639 L 967 635 L 975 625 L 979 623 L 991 622 L 1009 618 L 1024 607 L 1035 603 L 1044 603 L 1048 605 L 1051 608 L 1052 611 L 1060 618 L 1068 620 L 1071 622 L 1074 622 L 1080 625 L 1082 627 L 1083 631 L 1087 634 L 1087 637 L 1082 644 L 1080 645 L 1076 652 L 1074 658 L 1075 666 L 1079 671 L 1083 673 L 1086 673 L 1096 669 L 1100 669 L 1103 672 L 1103 678 L 1097 685 L 1096 688 L 1089 689 L 1083 695 L 1079 702 L 1077 710 L 1088 710 L 1091 712 L 1091 715 L 1087 719 L 1087 723 L 1093 729 L 1095 747 L 1099 751 L 1112 757 L 1115 761 L 1119 776 L 1130 794 L 1130 798 L 1125 804 L 1126 807 L 1131 811 L 1135 818 L 1146 817 L 1148 821 L 1150 821 L 1155 817 L 1157 817 L 1170 809 L 1171 807 L 1171 797 L 1180 788 L 1181 763 L 1182 762 L 1182 742 L 1180 735 L 1180 726 L 1181 723 L 1186 719 L 1200 715 L 1211 716 L 1217 719 L 1224 724 L 1236 737 L 1243 749 L 1243 754 L 1249 752 L 1250 750 L 1258 746 L 1269 746 L 1280 740 L 1288 740 L 1287 732 L 1289 730 L 1294 730 L 1294 723 L 1296 718 L 1289 716 L 1287 713 L 1287 709 L 1291 702 L 1296 697 L 1297 694 L 1297 679 L 1291 677 L 1289 668 L 1277 665 L 1274 655 L 1268 655 L 1261 651 L 1254 645 L 1236 652 L 1227 652 L 1225 651 L 1224 646 L 1209 634 L 1208 632 L 1208 622 L 1204 626 L 1199 628 L 1184 623 L 1174 623 L 1171 619 L 1170 614 L 1169 615 L 1162 614 L 1157 608 L 1156 598 L 1155 597 L 1155 587 L 1159 584 L 1160 574 L 1166 566 L 1166 564 L 1163 561 L 1163 558 L 1167 553 L 1171 553 L 1179 547 L 1188 547 L 1205 557 L 1208 557 L 1212 554 L 1217 554 L 1227 559 L 1224 553 L 1225 536 L 1226 535 L 1233 535 L 1235 530 L 1236 521 L 1239 514 L 1244 509 L 1251 509 L 1257 513 L 1260 510 L 1265 511 L 1270 505 L 1260 489 L 1257 482 L 1257 475 L 1261 470 L 1267 470 L 1272 472 L 1275 468 L 1286 462 L 1286 461 L 1280 458 L 1277 452 L 1274 452 L 1270 448 L 1270 442 L 1273 438 L 1279 437 L 1280 429 L 1282 427 L 1284 427 L 1290 431 L 1296 425 L 1286 417 L 1287 413 L 1290 413 L 1297 410 L 1296 400 L 1300 397 L 1300 396 L 1294 395 L 1290 392 L 1297 382 L 1297 377 L 1293 372 L 1290 365 L 1290 355 L 1294 346 L 1303 332 L 1304 328 L 1303 323 L 1304 321 L 1307 319 L 1313 319 L 1321 321 L 1321 319 L 1315 301 L 1308 294 L 1287 294 L 1283 295 L 1280 298 L 1279 301 L 1275 305 L 1272 306 L 1267 305 L 1266 295 L 1264 295 L 1263 300 L 1257 304 L 1242 304 L 1231 301 L 1225 295 L 1220 298 L 1216 298 L 1211 294 L 1206 299 L 1171 299 L 1166 300 L 1163 296 L 1160 284 L 1153 284 L 1145 288 L 1140 293 L 1140 295 L 1137 299 L 1134 299 L 1132 297 L 1132 294 L 1129 291 L 1123 290 L 1121 288 L 1120 273 L 1118 268 L 1109 268 L 1092 261 L 1086 261 L 1084 259 L 1084 251 L 1082 251 L 1074 246 L 1068 246 L 1064 251 L 1062 251 L 1060 249 L 1061 247 L 1060 239 L 1051 230 L 1049 224 Z"/>
  <path class="st1 flaeche" d="M 1047 222 L 1042 227 L 1037 236 L 1038 245 L 1036 247 L 1033 248 L 1024 241 L 1018 240 L 1009 246 L 1005 247 L 989 257 L 982 260 L 979 274 L 967 274 L 965 273 L 972 280 L 972 284 L 969 288 L 966 288 L 959 281 L 943 279 L 937 277 L 933 274 L 931 274 L 924 281 L 922 286 L 921 294 L 930 299 L 933 304 L 931 320 L 939 328 L 938 332 L 935 336 L 933 345 L 934 346 L 935 356 L 940 371 L 940 377 L 936 386 L 940 397 L 939 405 L 934 412 L 929 412 L 931 415 L 932 420 L 934 422 L 934 430 L 931 433 L 931 436 L 935 442 L 937 451 L 931 457 L 938 463 L 941 472 L 941 485 L 949 489 L 958 498 L 964 500 L 968 508 L 964 524 L 963 546 L 961 548 L 951 552 L 951 555 L 962 548 L 965 551 L 969 560 L 968 582 L 971 589 L 971 595 L 968 599 L 966 599 L 966 601 L 975 609 L 972 622 L 963 631 L 961 635 L 961 639 L 967 635 L 975 625 L 979 623 L 991 622 L 1009 618 L 1024 607 L 1035 603 L 1044 603 L 1048 605 L 1051 608 L 1052 611 L 1060 618 L 1068 620 L 1071 622 L 1074 622 L 1080 625 L 1082 627 L 1083 631 L 1087 634 L 1087 637 L 1082 644 L 1080 645 L 1076 652 L 1074 658 L 1075 666 L 1079 671 L 1083 673 L 1086 673 L 1096 669 L 1100 669 L 1103 672 L 1103 678 L 1097 685 L 1096 688 L 1089 689 L 1083 695 L 1079 702 L 1077 710 L 1088 710 L 1091 712 L 1091 715 L 1087 719 L 1087 723 L 1093 729 L 1095 747 L 1099 751 L 1112 757 L 1115 761 L 1119 776 L 1130 794 L 1130 798 L 1125 804 L 1126 807 L 1131 811 L 1135 818 L 1146 817 L 1148 821 L 1150 821 L 1155 817 L 1157 817 L 1170 809 L 1171 807 L 1171 797 L 1180 788 L 1181 763 L 1182 762 L 1182 742 L 1180 735 L 1180 726 L 1181 723 L 1186 719 L 1200 715 L 1211 716 L 1217 719 L 1224 724 L 1236 737 L 1243 749 L 1243 754 L 1249 752 L 1250 750 L 1258 746 L 1269 746 L 1280 740 L 1288 740 L 1287 732 L 1289 730 L 1294 730 L 1294 723 L 1296 718 L 1289 716 L 1287 713 L 1287 709 L 1291 702 L 1296 697 L 1297 694 L 1297 679 L 1291 677 L 1289 668 L 1277 665 L 1274 655 L 1268 655 L 1261 651 L 1254 645 L 1236 652 L 1227 652 L 1225 651 L 1224 646 L 1209 634 L 1208 632 L 1208 622 L 1204 626 L 1199 628 L 1184 623 L 1174 623 L 1171 619 L 1170 614 L 1169 615 L 1162 614 L 1157 608 L 1156 598 L 1155 597 L 1155 587 L 1159 584 L 1160 574 L 1166 566 L 1166 564 L 1163 561 L 1163 558 L 1167 553 L 1171 553 L 1179 547 L 1188 547 L 1205 557 L 1208 557 L 1212 554 L 1217 554 L 1227 559 L 1224 553 L 1225 536 L 1226 535 L 1233 535 L 1235 530 L 1236 521 L 1239 514 L 1244 509 L 1251 509 L 1257 513 L 1260 510 L 1265 511 L 1270 505 L 1260 489 L 1257 482 L 1257 475 L 1261 470 L 1267 470 L 1272 472 L 1275 468 L 1286 462 L 1286 461 L 1280 458 L 1277 452 L 1274 452 L 1270 448 L 1270 442 L 1273 438 L 1279 437 L 1280 429 L 1282 427 L 1284 427 L 1290 431 L 1296 425 L 1286 417 L 1287 413 L 1290 413 L 1297 410 L 1296 400 L 1300 397 L 1300 396 L 1294 395 L 1290 392 L 1297 382 L 1297 377 L 1293 372 L 1290 365 L 1290 355 L 1294 346 L 1303 332 L 1304 328 L 1303 323 L 1304 321 L 1307 319 L 1313 319 L 1321 321 L 1321 319 L 1315 301 L 1308 294 L 1287 294 L 1283 295 L 1280 298 L 1279 301 L 1275 305 L 1272 306 L 1267 305 L 1266 295 L 1264 295 L 1263 300 L 1257 304 L 1242 304 L 1231 301 L 1225 295 L 1220 298 L 1216 298 L 1211 294 L 1206 299 L 1171 299 L 1166 300 L 1163 296 L 1160 284 L 1153 284 L 1145 288 L 1140 293 L 1140 295 L 1137 299 L 1134 299 L 1132 297 L 1132 294 L 1129 291 L 1123 290 L 1121 288 L 1120 273 L 1118 268 L 1109 268 L 1092 261 L 1086 261 L 1084 259 L 1084 251 L 1082 251 L 1074 246 L 1068 246 L 1064 251 L 1062 251 L 1060 249 L 1061 247 L 1060 239 L 1051 230 L 1049 224 Z"/>
</g>
<g class="region" data-name="Dresden" data-url="https://www.visit-dresden-elbland.de/" id="dresden_stadt">
<path class="hit" d="M 1169 559 L 1171 561 L 1172 567 L 1165 577 L 1165 586 L 1161 589 L 1161 599 L 1162 604 L 1165 609 L 1174 609 L 1177 617 L 1188 618 L 1198 622 L 1206 616 L 1213 615 L 1215 617 L 1215 623 L 1213 628 L 1214 631 L 1222 636 L 1229 643 L 1229 647 L 1236 646 L 1239 644 L 1248 642 L 1250 640 L 1257 640 L 1269 649 L 1272 650 L 1277 649 L 1280 653 L 1281 660 L 1292 662 L 1294 664 L 1295 671 L 1299 670 L 1309 672 L 1314 671 L 1318 669 L 1326 659 L 1329 659 L 1333 657 L 1339 657 L 1346 664 L 1349 663 L 1365 648 L 1365 635 L 1367 632 L 1369 631 L 1374 633 L 1379 632 L 1388 621 L 1395 620 L 1398 615 L 1396 597 L 1399 594 L 1399 589 L 1392 582 L 1390 586 L 1386 589 L 1374 591 L 1370 590 L 1368 588 L 1368 586 L 1363 583 L 1353 583 L 1350 582 L 1346 578 L 1347 573 L 1351 570 L 1352 562 L 1356 558 L 1362 557 L 1362 556 L 1356 550 L 1351 541 L 1346 536 L 1335 517 L 1336 511 L 1346 505 L 1345 501 L 1339 497 L 1334 497 L 1319 506 L 1312 507 L 1310 504 L 1297 495 L 1293 486 L 1285 488 L 1280 487 L 1272 479 L 1266 476 L 1263 476 L 1263 480 L 1268 491 L 1273 498 L 1276 506 L 1268 517 L 1261 517 L 1258 520 L 1248 514 L 1244 517 L 1240 530 L 1239 539 L 1237 541 L 1231 541 L 1230 552 L 1234 557 L 1234 561 L 1231 564 L 1226 565 L 1215 560 L 1209 563 L 1205 563 L 1185 552 L 1182 552 L 1174 558 Z"/>
  <path class="st0 flaeche" d="M 1169 559 L 1171 561 L 1172 567 L 1165 577 L 1165 586 L 1161 589 L 1161 599 L 1162 604 L 1165 609 L 1174 609 L 1177 617 L 1188 618 L 1198 622 L 1206 616 L 1213 615 L 1215 617 L 1215 623 L 1213 628 L 1214 631 L 1222 636 L 1229 643 L 1229 647 L 1236 646 L 1239 644 L 1248 642 L 1250 640 L 1257 640 L 1269 649 L 1272 650 L 1277 649 L 1280 653 L 1281 660 L 1292 662 L 1294 664 L 1295 671 L 1299 670 L 1309 672 L 1314 671 L 1318 669 L 1326 659 L 1329 659 L 1333 657 L 1339 657 L 1346 664 L 1349 663 L 1365 648 L 1365 635 L 1367 632 L 1369 631 L 1374 633 L 1379 632 L 1388 621 L 1395 620 L 1398 615 L 1396 597 L 1399 594 L 1399 589 L 1392 582 L 1390 586 L 1386 589 L 1374 591 L 1370 590 L 1368 588 L 1368 586 L 1363 583 L 1353 583 L 1350 582 L 1346 578 L 1347 573 L 1351 570 L 1352 562 L 1356 558 L 1362 557 L 1362 556 L 1356 550 L 1351 541 L 1346 536 L 1335 517 L 1336 511 L 1346 505 L 1345 501 L 1339 497 L 1334 497 L 1319 506 L 1312 507 L 1310 504 L 1297 495 L 1293 486 L 1285 488 L 1280 487 L 1272 479 L 1266 476 L 1263 476 L 1263 480 L 1268 491 L 1273 498 L 1276 506 L 1268 517 L 1261 517 L 1258 520 L 1248 514 L 1244 517 L 1240 530 L 1239 539 L 1237 541 L 1231 541 L 1230 552 L 1234 557 L 1234 561 L 1231 564 L 1226 565 L 1215 560 L 1209 563 L 1205 563 L 1185 552 L 1182 552 L 1174 558 Z"/>
</g>



<!-- ========================================================= -->
<!-- Leipzig (Stadt) – separat anklickbar                       -->
<!-- ========================================================= -->
<g class="region" id="leipzig_stadt" data-name="Leipzig" data-url="https://www.leipzig.travel/">

  <!-- Hit-Area (transparent, für bessere Klickbarkeit) -->
  <path class="hit" d="M 484 237 L 468 234 L 468 248 L 462 251 L 447 251 L 443 257 L 443 259 L 440 262 L 431 257 L 425 256 L 417 261 L 394 260 L 391 261 L 387 265 L 379 263 L 367 263 L 365 266 L 361 267 L 362 275 L 360 279 L 363 281 L 363 283 L 358 289 L 357 297 L 350 301 L 347 305 L 347 315 L 348 316 L 349 328 L 353 336 L 357 340 L 357 343 L 355 345 L 350 346 L 345 352 L 353 375 L 355 377 L 358 377 L 360 379 L 360 383 L 362 384 L 362 387 L 360 389 L 355 388 L 353 390 L 352 395 L 353 405 L 356 412 L 356 417 L 357 418 L 357 423 L 354 430 L 355 433 L 360 434 L 372 429 L 382 430 L 383 431 L 392 430 L 391 420 L 397 414 L 397 405 L 399 403 L 402 403 L 407 406 L 409 404 L 414 390 L 414 381 L 416 379 L 421 381 L 422 386 L 428 384 L 434 393 L 438 393 L 445 390 L 452 393 L 452 391 L 456 388 L 463 388 L 471 390 L 473 393 L 472 394 L 472 399 L 475 406 L 485 411 L 489 410 L 494 414 L 499 414 L 494 410 L 494 407 L 502 389 L 503 384 L 505 382 L 507 371 L 509 369 L 526 368 L 523 359 L 528 351 L 524 349 L 522 345 L 527 338 L 520 331 L 519 327 L 510 328 L 503 316 L 496 316 L 485 310 L 488 294 L 485 294 L 482 292 L 482 287 L 485 280 L 485 277 L 479 271 L 477 267 L 477 262 L 481 258 L 491 259 L 492 260 L 496 259 L 496 256 L 499 249 L 491 249 L 487 245 L 486 240 Z"/>
  <path class="st4 flaeche" d="M 484 237 L 468 234 L 468 248 L 462 251 L 447 251 L 443 257 L 443 259 L 440 262 L 431 257 L 425 256 L 417 261 L 394 260 L 391 261 L 387 265 L 379 263 L 367 263 L 365 266 L 361 267 L 362 275 L 360 279 L 363 281 L 363 283 L 358 289 L 357 297 L 350 301 L 347 305 L 347 315 L 348 316 L 349 328 L 353 336 L 357 340 L 357 343 L 355 345 L 350 346 L 345 352 L 353 375 L 355 377 L 358 377 L 360 379 L 360 383 L 362 384 L 362 387 L 360 389 L 355 388 L 353 390 L 352 395 L 353 405 L 356 412 L 356 417 L 357 418 L 357 423 L 354 430 L 355 433 L 360 434 L 372 429 L 382 430 L 383 431 L 392 430 L 391 420 L 397 414 L 397 405 L 399 403 L 402 403 L 407 406 L 409 404 L 414 390 L 414 381 L 416 379 L 421 381 L 422 386 L 428 384 L 434 393 L 438 393 L 445 390 L 452 393 L 452 391 L 456 388 L 463 388 L 471 390 L 473 393 L 472 394 L 472 399 L 475 406 L 485 411 L 489 410 L 494 414 L 499 414 L 494 410 L 494 407 L 502 389 L 503 384 L 505 382 L 507 371 L 509 369 L 526 368 L 523 359 L 528 351 L 524 349 L 522 345 L 527 338 L 520 331 L 519 327 L 510 328 L 503 316 L 496 316 L 485 310 L 488 294 L 485 294 L 482 292 L 482 287 L 485 280 L 485 277 L 479 271 L 477 267 L 477 262 L 481 258 L 491 259 L 492 260 L 496 259 L 496 256 L 499 249 L 491 249 L 487 245 L 486 240 Z"/>
</g>
</svg>
