<svg xmlns="http://www.w3.org/2000/svg" aria-label="Sachsenkarte mit DMO-Regionen" id="sachsenMap" role="img" viewBox="0 0 1400 1100">
<defs>
<filter height="160%" id="softGlow" width="160%" x="-30%" y="-30%">
<feGaussianBlur result="blur" stdDeviation="3"></feGaussianBlur>
<feColorMatrix in="blur" result="glow" type="matrix" values="1 0 0 0 0
                    0 1 0 0 0
                    0 0 1 0 0
                    0 0 0 0.45 0"></feColorMatrix>
<feMerge>
<feMergeNode in="glow"></feMergeNode>
<feMergeNode in="SourceGraphic"></feMergeNode>
</feMerge>
</filter>
</defs>
<!-- Region: Sächsische Schweiz (aus deinem Snippet) -->
<g class="region" data-name="Sächsische Schweiz" data-url="https://verband.saechsische-schweiz.de/" id="saechsisch">
<path class="hit" d="M1110,442.3c-1.1,0-2,.6-2.5,1.6l-4.2,9c-.2.4-.7.7-1.1.7h-3.1c-1,0-2,.6-2.4,1.5s-.4,2,.2,2.8l3.9,5.6c.2.2.2.5.2.8l-.5,8.1c0,.7-.6,1.2-1.2,1.2h-6.3c-1.5,0-2.8,1.2-2.8,2.8v18.9c0,1.1.6,2,1.6,2.5l11.6,5.3c.7.3,1.5.3,2.2,0l12.7-5.4h1.1c.3.2.6.5.7.8l.7,3c0,.5,0,1-.5,1.3l-6.5,4.7c-.6.4-1,1.1-1.1,1.8s0,1.5.6,2.1l7.6,9.8c.3.5.8.8,1.4,1l30.3,9.1c.6.2,1,.8.9,1.4l-3.4,21c0,.6-.6,1-1.2,1h-13.2c-1.5,0-2.7,1.2-2.8,2.7v4.3c0,.5-.5,1-1,1.2l-20.9,6c-.4,0-.8,0-1.1-.2l-8.8-7.2c-.8-.7-2-.8-2.9-.3l-15.7,7.5c-.9.5-1.6,1.4-1.6,2.5v14.6c0,.4-.2.8-.5,1l-13.1,9.2c-.2.2-.5.2-.7.2h-17.9c-.8,0-1.6.4-2.1,1-3,3.6-14,15.7-30.2,18.3-.8,0-1.6.6-2,1.3l-6,10.6c-.2.3-.5.6-.9.6l-17.7,2.7h-.8l-15.8-8.5c-.8-.4-1.7-.4-2.4,0l-14.4,6.5c-.8.4-1.4,1.1-1.6,2l-1.9,10c0,.5-.5.9-.9,1l-19.1,4.8c-.4,0-.7,0-1-.2l-16.6-12c-.5-.4-1.2-.6-1.8-.5l-16.7,1.4c-.4,0-.8,0-1-.4s-.4-.7-.3-1l3.1-21.1c0-.9-.2-1.7-.8-2.3l-4.4-4.4c-.2-.2-.3-.5-.4-.8l-4.2-41.1c0-.7-.4-1.3-.9-1.8l-13.4-12.2c-.3-.2-.4-.6-.4-.9v-6.1c0-.4.2-.7.4-1s.6-.3,1-.3l3,.5c.9,0,1.8-.2,2.4-.8l4.2-4.4c.5-.5.8-1.2.8-2s-.3-1.4-.9-1.9l-12.9-12.1c-.5-.4-.5-1.1-.2-1.6l8-12.1c.3-.4.8-.6,1.3-.5l11,2.5c.8.2,1.6,0,2.2-.5l16.3-12.2c.5-.4,1.3-.3,1.8.2l3.7,4.9c.5.6,1.2,1,2,1.1.8,0,1.6-.2,2.1-.8l11.5-11.8c.5-.5.7-1.1.8-1.8l.5-9.3c0-.7.6-1.2,1.3-1.2l8.9.2c1.2,0,2.3-.7,2.7-1.9l1.3-4c0-.2.2-.5.5-.6l5.6-4c.7-.5,1.1-1.3,1.2-2.2l.3-13.6v-.4l2.7-7.5c0-.2.2-.4.4-.6l7.6-5.9c.3-.3.8-.3,1.2-.2l5.5,2.1c.9.4,2,.2,2.7-.4l2.1-1.7c.3-.2.6-.3,1-.3l8.5,1.3c1.3.2,2.5-.5,3-1.7l3.9-9.4,9.2,6.2c.5.3,1,.5,1.5.5h13.7c.8,0,1.6-.4,2.1-1l10.2-12.5c.2-.3.6-.5.9-.5s.7,0,1,.4l10.3,11.3c.5.6,1.2.9,2,.9s1.5-.3,2-.9l9.9-10.5c.3-.4.8-.5,1.3-.3l25.2,8.3c.3,0,.6.4.8.7l3.6,8.1c.3.8,1,1.4,1.9,1.6.8.2,1.7,0,2.4-.5l10.8-8.7c.3-.3.8-.3,1.2-.2l13.2,4.2c.5.2.9.6.9,1.2v6.6h0l-7.7.4h0v-.2h.1Z"></path>
<path class="flaeche" d="M1110,442.3c-1.1,0-2,.6-2.5,1.6l-4.2,9c-.2.4-.7.7-1.1.7h-3.1c-1,0-2,.6-2.4,1.5s-.4,2,.2,2.8l3.9,5.6c.2.2.2.5.2.8l-.5,8.1c0,.7-.6,1.2-1.2,1.2h-6.3c-1.5,0-2.8,1.2-2.8,2.8v18.9c0,1.1.6,2,1.6,2.5l11.6,5.3c.7.3,1.5.3,2.2,0l12.7-5.4h1.1c.3.2.6.5.7.8l.7,3c0,.5,0,1-.5,1.3l-6.5,4.7c-.6.4-1,1.1-1.1,1.8s0,1.5.6,2.1l7.6,9.8c.3.5.8.8,1.4,1l30.3,9.1c.6.2,1,.8.9,1.4l-3.4,21c0,.6-.6,1-1.2,1h-13.2c-1.5,0-2.7,1.2-2.8,2.7v4.3c0,.5-.5,1-1,1.2l-20.9,6c-.4,0-.8,0-1.1-.2l-8.8-7.2c-.8-.7-2-.8-2.9-.3l-15.7,7.5c-.9.5-1.6,1.4-1.6,2.5v14.6c0,.4-.2.8-.5,1l-13.1,9.2c-.2.2-.5.2-.7.2h-17.9c-.8,0-1.6.4-2.1,1-3,3.6-14,15.7-30.2,18.3-.8,0-1.6.6-2,1.3l-6,10.6c-.2.3-.5.6-.9.6l-17.7,2.7h-.8l-15.8-8.5c-.8-.4-1.7-.4-2.4,0l-14.4,6.5c-.8.4-1.4,1.1-1.6,2l-1.9,10c0,.5-.5.9-.9,1l-19.1,4.8c-.4,0-.7,0-1-.2l-16.6-12c-.5-.4-1.2-.6-1.8-.5l-16.7,1.4c-.4,0-.8,0-1-.4s-.4-.7-.3-1l3.1-21.1c0-.9-.2-1.7-.8-2.3l-4.4-4.4c-.2-.2-.3-.5-.4-.8l-4.2-41.1c0-.7-.4-1.3-.9-1.8l-13.4-12.2c-.3-.2-.4-.6-.4-.9v-6.1c0-.4.2-.7.4-1s.6-.3,1-.3l3,.5c.9,0,1.8-.2,2.4-.8l4.2-4.4c.5-.5.8-1.2.8-2s-.3-1.4-.9-1.9l-12.9-12.1c-.5-.4-.5-1.1-.2-1.6l8-12.1c.3-.4.8-.6,1.3-.5l11,2.5c.8.2,1.6,0,2.2-.5l16.3-12.2c.5-.4,1.3-.3,1.8.2l3.7,4.9c.5.6,1.2,1,2,1.1.8,0,1.6-.2,2.1-.8l11.5-11.8c.5-.5.7-1.1.8-1.8l.5-9.3c0-.7.6-1.2,1.3-1.2l8.9.2c1.2,0,2.3-.7,2.7-1.9l1.3-4c0-.2.2-.5.5-.6l5.6-4c.7-.5,1.1-1.3,1.2-2.2l.3-13.6v-.4l2.7-7.5c0-.2.2-.4.4-.6l7.6-5.9c.3-.3.8-.3,1.2-.2l5.5,2.1c.9.4,2,.2,2.7-.4l2.1-1.7c.3-.2.6-.3,1-.3l8.5,1.3c1.3.2,2.5-.5,3-1.7l3.9-9.4,9.2,6.2c.5.3,1,.5,1.5.5h13.7c.8,0,1.6-.4,2.1-1l10.2-12.5c.2-.3.6-.5.9-.5s.7,0,1,.4l10.3,11.3c.5.6,1.2.9,2,.9s1.5-.3,2-.9l9.9-10.5c.3-.4.8-.5,1.3-.3l25.2,8.3c.3,0,.6.4.8.7l3.6,8.1c.3.8,1,1.4,1.9,1.6.8.2,1.7,0,2.4-.5l10.8-8.7c.3-.3.8-.3,1.2-.2l13.2,4.2c.5.2.9.6.9,1.2v6.6h0l-7.7.4h0v-.2h.1Z"></path>
</g>
<!-- Region: Erzgebirge -->
<g class="region" data-name="Erzgebirge" data-url="https://www.erzgebirge-tourismus.de/" id="erzgebirge">
<path class="hit" d="M340.7,825c-.3.5-.8.8-1.3,1.1l-9.2,4.4h-.7l-17.5-1.7c-.8,0-1.6.2-2.2.8l-6.2,6.2c-.3.3-.6.6-.9.8l-6.5,5.2h0c-.3.2-.6.5-.8.8-.8,1.2-3,4.4-3.5,4.5s-9,3-11.6,3.9-1,.5-1.4.9l-5.3,5.5c-.5.5-.8,1.2-.9,1.9-.4,3-1.6,11.2-1.3,11.9s4.7,5.3,6.6,7.2,1.1.9,1.8,1l4.6.9c1.5.3,2.7,1.6,2.8,3.2l.6,7.4v.5l1.1,4.5c.3,1.2,1,2.2,2,2.9h0c.2.2.5.3.7.6l16.9,16.7s.2.2.3.2l19.6,10.9c.9.5,1.4,1.4,1.4,2.4v12c0,.6.5,1.2,1.2,1.2l5.1.2c.4,0,.8-.2,1-.5l6.7-8.5c.8-1.1,2.2-1.4,3.4-.8l11.2,5.7c.3.2.8,0,1.2,0l7.9-5c.9-.7,2.2-.6,3.1,0l12.4,9.5c.3.2.6.3,1,.2.3,0,.6-.3.8-.6l11.4-19.8c.3-.5.6-.9,1.1-1.1l25.3-13.5c.4-.2.8-.3,1.3-.3h21.1c.5,0,.9,0,1.3.3l47.9,24.8c.3.2.7.2,1,0l17.1-6.5c.2,0,.4-.2.5-.4l16.3-19c.2-.2.3-.5.3-.8v-30.3c0-.4,0-.8.3-1.2l6.6-14c.4-.8,1.2-1.4,2.1-1.5l45.5-5.7c.8,0,1.6.2,2.2.7.6.6.9,1.3.9,2.1v5.5c0,.6.5,1.2,1.2,1.2h20.2c.5,0,.9-.3,1.1-.7l15.7-30.8c.2-.4.2-.8,0-1.2l-3.6-5.9c-.5-.8-.6-1.9,0-2.7l13.1-24.7c.4-.9,1.4-1.5,2.4-1.5h9.7c1.1,0,2.1.7,2.5,1.7l4.6,11.1c.2.3.4.6.7.7s.7,0,1,0l10.1-4.3c.5-.2.8-.6.8-1.1l1-15.5c0-.9.6-1.7,1.4-2.2l22.9-12.7c.4-.2.6-.6.6-1.1v-14.8c0-.9.5-1.8,1.3-2.3s1.8-.5,2.7,0l4.6,2.4c.4.3.8.6,1.1,1.1l9.7,17.3c0,.2.3.4.6.5l18.5,7.6c.4.2.9,0,1.3-.2l27.1-25.3c.2-.2.4-.6.4-.9s-.2-.7-.4-.9l-5.6-5.6c-1-1-1.1-2.6-.2-3.7l12.9-16.1c.3-.4.4-.9.2-1.3l-6.4-15.4c-.5-1.3,0-2.8,1.2-3.5l10.2-5.8c.5-.2,1.1-.3,1.6-.3l21.1,1.5c.4,0,.9,0,1.1-.5l4-6c.2-.4.7-.8,1.2-1l22.5-9.2c.8-.3,1.7-.2,2.4.2l15.6,8.8c.3,0,.7.2,1.1,0l29-12.9c.7-.3,1.4-.3,2.1,0l15.7,5.8h.4l19.8,1c.6,0,1.1-.3,1.3-.9l3.4-13.4c.4-1.3,1.4-2.1,2.7-2.1h5.3c.3,0,.7-.2.9-.4s.3-.6.3-.9h0c-.4-17.5,5.2-26.3,6.5-28.7l-16-11.5c-.2,0-.5-.2-.8-.2l-16.7,1.4c-.8,0-1.6-.3-2.2-.9s-.8-1.5-.7-2.3l3.1-21.1c0-.4,0-.8-.3-1.1l-4.4-4.4c-.5-.5-.7-1.1-.8-1.7l-4.2-41.1c0-.3-.2-.6-.4-.8l-13.4-12.2c-.3-.3-.5-.6-.7-1l-5.5,2.2c-.7.3-1.5.3-2.2,0l-15.3-8.5c-.5-.3-1.1,0-1.4.3l-2.5,3.3c-.8,1.1-2.2,1.4-3.4.7l-2-1.2c-.5-.3-1.2-.2-1.5.3l-4,5.4c-.2.3-.5.6-.9.8-4.3,2.2-7.4,2.4-8.9,2.3-1,0-1.8-.7-2.2-1.6l-6.8-16.3c0-.2-.3-.4-.5-.5l-11.3-5.8h-.9c-.3.2-.5.4-.6.7-1.6,4.6-5.1,16.1-3.7,24.1,1.4,7.9,1.2,11,.9,12.2,0,.3-.3.6-.5.9l-13.2,17.4c-.2.3-.2.5-.2.8l1.7,16.5c0,.9-.2,1.8-.9,2.3l-4.8,4c-.7.6-1.6.8-2.4.5l-5.3-1.6h-.9l-15.6,10.7c-.5.3-1,.5-1.5.5-.8,0-1.6-.4-2.1-1.1l-6.8-9.8c-.6-.8-.6-1.9,0-2.8l3.2-5.3c.2-.2.2-.6,0-.9l-8.9-24.5c0-.3-.3-.5-.6-.6l-14.9-6.3c-1-.4-1.6-1.4-1.6-2.4v-11.8c0-.2,0-.5-.3-.7l-4.5-5.1c-.5-.7-.7-1.6-.5-2.4l2.1-7.5c0-.4,0-.8-.2-1s-.6-.4-.9-.4h-6.1c-.9,0-1.7-.4-2.2-1.2s-.6-1.7-.2-2.5l5.6-12.2c.2-.3.4-.7.7-.9l11-9.1c.5-.4.3-1,.3-1.2s-.3-.7-1-.7h-11.4c-.9,0-1.7-.5-2.2-1.3-1.2-2.2-4.2-7.9-4.2-13.6,0-8.5,5.7-14.4,9.1-17.2.3-.2.4-.5.4-.9s-.2-.7-.5-.9l-11.9-6.7s-.2,0-.3-.2l-14.6-11.4c-.2-.2-.5-.2-.8-.2l-17.5,1.7c-.3,0-.5.2-.7.4l-8,9.3c-.4.5-1,.8-1.6.9l-19.6,2.5c-.2,0-.4,0-.6.2l-17.3,14.5c-.5.4-1.1.6-1.7.6h-.5l-5.7.9c-.6,0-1.1.6-1.1,1.2l.2,16.9c0,.5,0,1-.4,1.5l-12.1,18.7c-.2.3-.2.5-.2.8l1.3,16.2c0,.9-.3,1.7-1,2.3l-6.4,5.5c-.2.2-.4.5-.4.8l-2.2,19.2c0,1.4-1.3,2.4-2.7,2.4h-8.3c-.3,0-.5,0-.7.2l-8.1,5.2c-.9.6-1.7,1.5-2.1,2.5l-.8,2.2c-.6,1.6-.4,3.4.6,4.8l4.7,6.9c.2.3.4.6.5.9l1.6,3.8c1,2.3.2,4.9-1.8,6.3l-.4.3c-1.7,1.2-2.6,3.4-2.1,5.4h0c.7,2.9-1.3,5.8-4.3,6.3l-5,.8c-.7,0-1.5.4-2.1.8l-6.3,4.2c-.9.6-1.8.9-2.9.9h-10.5c-.7,0-1.3,0-1.9.4l-5,2h0l2.1,12.5c0,.6,0,1.3-.3,1.8l-14.3,25.8c-.4.6-1,1.1-1.7,1.3s-1.4,0-2.1-.3l-6.8-4.1c-.3-.2-.8-.2-1.2,0s-.7.6-.7,1l-.3,6.7c0,.8-.4,1.5-1,2l-8.6,7.2c-1,.9-2.6.8-3.6,0l-1.8-1.7c-.3-.3-.7-.4-1.1-.3l-5.8,1.4c-.4.2-.8.5-.9,1l-1,4.5c-.2.8-.7,1.5-1.4,1.9l-2.8,1.5c-.5.3-1,.4-1.6.3l-8.2-.9c-.8,0-1.5-.5-2-1.2l-4.1-6.3v-.2l-4.4-4.8c-1-1-1-2.8,0-3.8l2.9-2.7c.3-.2.4-.6.4-1l-.5-5c0-.6-.6-1.1-1.3-1.1l-5.5.2c-.7,0-1.5-.3-2-.8s-.8-1.3-.8-2.1v-2.4c0-.5,0-.9-.4-1.1l-12.3-9.4c-.5-.3-1-.3-1.5,0l-9.8,6.6h0c-7.5,7.3-14.1,6.1-17.3,4.8-.3-.2-.7-.2-1.1,0-.3,0-.5.4-.6.8-2.1,11.1-8.9,16.1-11.7,17.7-1.1.6-2.4.4-3.3-.5l-2.6-2.6c-.2-.3-.5-.4-.9-.4l-9,.2c-.5,0-.9.3-1.1.8l-2.8,7c-.2.3,0,.8,0,1.1l4.2,6.4c.4.6.6,1.4.4,2.1s-.6,1.3-1.2,1.7l-5.1,3.3c-1.1.7-2.5.6-3.4-.3l-6.8-6.3c-.2,0-.4-.3-.7-.3l-16.6-2.2c-.3,0-.6,0-.9.3s-.5.5-.5.8l-1,9.8c0,.5,0,1,.6,1.2l5,2.7c.8.4,1.4,1.3,1.4,2.3s-.4,1.9-1.3,2.4l-2.2,1.3c-.5.3-.7.9-.6,1.4l.8,3.3c0,.3.3.6.6.8l14.4,8.5c.2.2.5.2.7.2l9.4-.5c.9,0,1.9.4,2.4,1.2l5.8,8.6c.5.6.6,1.5.4,2.3l-3.9,13c-.2.7-.8,1.4-1.5,1.7l-2.9,1.3c-.4.2-.7.7-.7,1.2l.4,5.3c0,.3.2.6.4.8l3.2,2.9c1.1,1,1.2,2.8.2,3.9l-10.9,12.3c-.9,1-2.4,1.2-3.5.5l-11.2-7.1c-.3-.2-.6-.3-1-.2s-.6.3-.8.6l-7.8,14.8c-.4.7-1.1,1.2-1.9,1.4l-14.1,3c-.7.2-1.1.8-1,1.5l1.6,7.5c.2,1-.1,2-.9,2.7l-5.2,4.4c-.3.3-.4.7-.4,1.1l1.1,8.6c0,.6.5,1,1,1.1l10,1.7c1.5.3,2.5,1.6,2.3,3.1l-.3,2.4c0,.6-.3,1.1-.6,1.5h0l-.3-.2h0Z"></path>
<path class="flaeche" d="M340.7,825c-.3.5-.8.8-1.3,1.1l-9.2,4.4h-.7l-17.5-1.7c-.8,0-1.6.2-2.2.8l-6.2,6.2c-.3.3-.6.6-.9.8l-6.5,5.2h0c-.3.2-.6.5-.8.8-.8,1.2-3,4.4-3.5,4.5s-9,3-11.6,3.9-1,.5-1.4.9l-5.3,5.5c-.5.5-.8,1.2-.9,1.9-.4,3-1.6,11.2-1.3,11.9s4.7,5.3,6.6,7.2,1.1.9,1.8,1l4.6.9c1.5.3,2.7,1.6,2.8,3.2l.6,7.4v.5l1.1,4.5c.3,1.2,1,2.2,2,2.9h0c.2.2.5.3.7.6l16.9,16.7s.2.2.3.2l19.6,10.9c.9.5,1.4,1.4,1.4,2.4v12c0,.6.5,1.2,1.2,1.2l5.1.2c.4,0,.8-.2,1-.5l6.7-8.5c.8-1.1,2.2-1.4,3.4-.8l11.2,5.7c.3.2.8,0,1.2,0l7.9-5c.9-.7,2.2-.6,3.1,0l12.4,9.5c.3.2.6.3,1,.2.3,0,.6-.3.8-.6l11.4-19.8c.3-.5.6-.9,1.1-1.1l25.3-13.5c.4-.2.8-.3,1.3-.3h21.1c.5,0,.9,0,1.3.3l47.9,24.8c.3.2.7.2,1,0l17.1-6.5c.2,0,.4-.2.5-.4l16.3-19c.2-.2.3-.5.3-.8v-30.3c0-.4,0-.8.3-1.2l6.6-14c.4-.8,1.2-1.4,2.1-1.5l45.5-5.7c.8,0,1.6.2,2.2.7.6.6.9,1.3.9,2.1v5.5c0,.6.5,1.2,1.2,1.2h20.2c.5,0,.9-.3,1.1-.7l15.7-30.8c.2-.4.2-.8,0-1.2l-3.6-5.9c-.5-.8-.6-1.9,0-2.7l13.1-24.7c.4-.9,1.4-1.5,2.4-1.5h9.7c1.1,0,2.1.7,2.5,1.7l4.6,11.1c.2.3.4.6.7.7s.7,0,1,0l10.1-4.3c.5-.2.8-.6.8-1.1l1-15.5c0-.9.6-1.7,1.4-2.2l22.9-12.7c.4-.2.6-.6.6-1.1v-14.8c0-.9.5-1.8,1.3-2.3s1.8-.5,2.7,0l4.6,2.4c.4.3.8.6,1.1,1.1l9.7,17.3c0,.2.3.4.6.5l18.5,7.6c.4.2.9,0,1.3-.2l27.1-25.3c.2-.2.4-.6.4-.9s-.2-.7-.4-.9l-5.6-5.6c-1-1-1.1-2.6-.2-3.7l12.9-16.1c.3-.4.4-.9.2-1.3l-6.4-15.4c-.5-1.3,0-2.8,1.2-3.5l10.2-5.8c.5-.2,1.1-.3,1.6-.3l21.1,1.5c.4,0,.9,0,1.1-.5l4-6c.2-.4.7-.8,1.2-1l22.5-9.2c.8-.3,1.7-.2,2.4.2l15.6,8.8c.3,0,.7.2,1.1,0l29-12.9c.7-.3,1.4-.3,2.1,0l15.7,5.8h.4l19.8,1c.6,0,1.1-.3,1.3-.9l3.4-13.4c.4-1.3,1.4-2.1,2.7-2.1h5.3c.3,0,.7-.2.9-.4s.3-.6.3-.9h0c-.4-17.5,5.2-26.3,6.5-28.7l-16-11.5c-.2,0-.5-.2-.8-.2l-16.7,1.4c-.8,0-1.6-.3-2.2-.9s-.8-1.5-.7-2.3l3.1-21.1c0-.4,0-.8-.3-1.1l-4.4-4.4c-.5-.5-.7-1.1-.8-1.7l-4.2-41.1c0-.3-.2-.6-.4-.8l-13.4-12.2c-.3-.3-.5-.6-.7-1l-5.5,2.2c-.7.3-1.5.3-2.2,0l-15.3-8.5c-.5-.3-1.1,0-1.4.3l-2.5,3.3c-.8,1.1-2.2,1.4-3.4.7l-2-1.2c-.5-.3-1.2-.2-1.5.3l-4,5.4c-.2.3-.5.6-.9.8-4.3,2.2-7.4,2.4-8.9,2.3-1,0-1.8-.7-2.2-1.6l-6.8-16.3c0-.2-.3-.4-.5-.5l-11.3-5.8h-.9c-.3.2-.5.4-.6.7-1.6,4.6-5.1,16.1-3.7,24.1,1.4,7.9,1.2,11,.9,12.2,0,.3-.3.6-.5.9l-13.2,17.4c-.2.3-.2.5-.2.8l1.7,16.5c0,.9-.2,1.8-.9,2.3l-4.8,4c-.7.6-1.6.8-2.4.5l-5.3-1.6h-.9l-15.6,10.7c-.5.3-1,.5-1.5.5-.8,0-1.6-.4-2.1-1.1l-6.8-9.8c-.6-.8-.6-1.9,0-2.8l3.2-5.3c.2-.2.2-.6,0-.9l-8.9-24.5c0-.3-.3-.5-.6-.6l-14.9-6.3c-1-.4-1.6-1.4-1.6-2.4v-11.8c0-.2,0-.5-.3-.7l-4.5-5.1c-.5-.7-.7-1.6-.5-2.4l2.1-7.5c0-.4,0-.8-.2-1s-.6-.4-.9-.4h-6.1c-.9,0-1.7-.4-2.2-1.2s-.6-1.7-.2-2.5l5.6-12.2c.2-.3.4-.7.7-.9l11-9.1c.5-.4.3-1,.3-1.2s-.3-.7-1-.7h-11.4c-.9,0-1.7-.5-2.2-1.3-1.2-2.2-4.2-7.9-4.2-13.6,0-8.5,5.7-14.4,9.1-17.2.3-.2.4-.5.4-.9s-.2-.7-.5-.9l-11.9-6.7s-.2,0-.3-.2l-14.6-11.4c-.2-.2-.5-.2-.8-.2l-17.5,1.7c-.3,0-.5.2-.7.4l-8,9.3c-.4.5-1,.8-1.6.9l-19.6,2.5c-.2,0-.4,0-.6.2l-17.3,14.5c-.5.4-1.1.6-1.7.6h-.5l-5.7.9c-.6,0-1.1.6-1.1,1.2l.2,16.9c0,.5,0,1-.4,1.5l-12.1,18.7c-.2.3-.2.5-.2.8l1.3,16.2c0,.9-.3,1.7-1,2.3l-6.4,5.5c-.2.2-.4.5-.4.8l-2.2,19.2c0,1.4-1.3,2.4-2.7,2.4h-8.3c-.3,0-.5,0-.7.2l-8.1,5.2c-.9.6-1.7,1.5-2.1,2.5l-.8,2.2c-.6,1.6-.4,3.4.6,4.8l4.7,6.9c.2.3.4.6.5.9l1.6,3.8c1,2.3.2,4.9-1.8,6.3l-.4.3c-1.7,1.2-2.6,3.4-2.1,5.4h0c.7,2.9-1.3,5.8-4.3,6.3l-5,.8c-.7,0-1.5.4-2.1.8l-6.3,4.2c-.9.6-1.8.9-2.9.9h-10.5c-.7,0-1.3,0-1.9.4l-5,2h0l2.1,12.5c0,.6,0,1.3-.3,1.8l-14.3,25.8c-.4.6-1,1.1-1.7,1.3s-1.4,0-2.1-.3l-6.8-4.1c-.3-.2-.8-.2-1.2,0s-.7.6-.7,1l-.3,6.7c0,.8-.4,1.5-1,2l-8.6,7.2c-1,.9-2.6.8-3.6,0l-1.8-1.7c-.3-.3-.7-.4-1.1-.3l-5.8,1.4c-.4.2-.8.5-.9,1l-1,4.5c-.2.8-.7,1.5-1.4,1.9l-2.8,1.5c-.5.3-1,.4-1.6.3l-8.2-.9c-.8,0-1.5-.5-2-1.2l-4.1-6.3v-.2l-4.4-4.8c-1-1-1-2.8,0-3.8l2.9-2.7c.3-.2.4-.6.4-1l-.5-5c0-.6-.6-1.1-1.3-1.1l-5.5.2c-.7,0-1.5-.3-2-.8s-.8-1.3-.8-2.1v-2.4c0-.5,0-.9-.4-1.1l-12.3-9.4c-.5-.3-1-.3-1.5,0l-9.8,6.6h0c-7.5,7.3-14.1,6.1-17.3,4.8-.3-.2-.7-.2-1.1,0-.3,0-.5.4-.6.8-2.1,11.1-8.9,16.1-11.7,17.7-1.1.6-2.4.4-3.3-.5l-2.6-2.6c-.2-.3-.5-.4-.9-.4l-9,.2c-.5,0-.9.3-1.1.8l-2.8,7c-.2.3,0,.8,0,1.1l4.2,6.4c.4.6.6,1.4.4,2.1s-.6,1.3-1.2,1.7l-5.1,3.3c-1.1.7-2.5.6-3.4-.3l-6.8-6.3c-.2,0-.4-.3-.7-.3l-16.6-2.2c-.3,0-.6,0-.9.3s-.5.5-.5.8l-1,9.8c0,.5,0,1,.6,1.2l5,2.7c.8.4,1.4,1.3,1.4,2.3s-.4,1.9-1.3,2.4l-2.2,1.3c-.5.3-.7.9-.6,1.4l.8,3.3c0,.3.3.6.6.8l14.4,8.5c.2.2.5.2.7.2l9.4-.5c.9,0,1.9.4,2.4,1.2l5.8,8.6c.5.6.6,1.5.4,2.3l-3.9,13c-.2.7-.8,1.4-1.5,1.7l-2.9,1.3c-.4.2-.7.7-.7,1.2l.4,5.3c0,.3.2.6.4.8l3.2,2.9c1.1,1,1.2,2.8.2,3.9l-10.9,12.3c-.9,1-2.4,1.2-3.5.5l-11.2-7.1c-.3-.2-.6-.3-1-.2s-.6.3-.8.6l-7.8,14.8c-.4.7-1.1,1.2-1.9,1.4l-14.1,3c-.7.2-1.1.8-1,1.5l1.6,7.5c.2,1-.1,2-.9,2.7l-5.2,4.4c-.3.3-.4.7-.4,1.1l1.1,8.6c0,.6.5,1,1,1.1l10,1.7c1.5.3,2.5,1.6,2.3,3.1l-.3,2.4c0,.6-.3,1.1-.6,1.5h0l-.3-.2h0Z"></path>
</g>
<!-- Region: Oberlausitz (aus deinem Snippet) -->
<g class="region" data-name="Oberlausitz" data-url="https://www.oberlausitz.com/" id="oberlausitz">
<!-- Klick-/Hover-Hitarea (breiter Stroke) -->
<path class="hit" d="M872.1,370.9c.5.2,1,.4,1.5.4l16.4,1.9,21.1,1.6c.8,0,1.5.4,2,1.1l4.1,5.6c.5.6.6,1.3.5,2.1,0,.7-.6,1.4-1.2,1.8l-5.5,3.6c-.4.2-.6.6-.6,1,0,1.4.2,4.2,1.7,6.2.3.3.7.5,1.1.5h1.9c1.1-.1,2.1.4,2.6,1.3l9.2,15.9c.3.5,6.4,12-.2,17.1l-5.7,4.6c-.4.3-.5.8-.4,1.3.2.4.5.8,1,.9l9.6,2.1c.5,0,.9.4,1.3.7l3.5,3.3c.2.2.5.3.8.3h7c.5,0,1-.3,1.2-.8l1.4-3.9c.3-.8,1-1.5,1.8-1.7.9-.3,1.8,0,2.5.4l5.4,4.1c.2.2.4.3.7.4h0c.8.3,1.7,0,2.4-.4l6.5-5c.3-.3.8-.3,1.2-.2l5.5,2.1c.9.4,2,.2,2.7-.4l2.1-1.7c.3-.2.6-.3,1-.3l8.5,1.3c1.3.2,2.5-.5,3-1.7l3.9-9.4,9.2,6.2h0c.6-.4,1.3-.6,2-.6h12.6c.4,0,.8-.2,1-.5l10.2-12.5c.5-.6,1.3-1,2.1-1s1.6.3,2.1.9l10.3,11.3c.2.3.6.4.9.4s.7-.2.9-.4l9.9-10.5c.7-.7,1.8-1,2.8-.7l25.2,8.3c.8.2,1.4.8,1.7,1.5l3.6,8.1c0,.3.4.6.8.7s.8,0,1.1-.2l10.8-8.7c.8-.6,1.7-.8,2.6-.5l13.2,4.2c1.1.4,1.9,1.4,1.9,2.6v6.9c0,.3,0,.7.4.9l8,7.2c.5.4,1.2.4,1.7,0l4.8-4.3c1-.9,2.4-1,3.5-.2l9,6.6c.6.4,1,1,1.1,1.7l1,4.7c0,.3.3.6.6.8l12,6.6c.5.2,1,.2,1.4,0l17.4-13.3c1-.7,2.3-.7,3.3,0l11.6,8.4c.4.3.9.3,1.3,0s.7-.6.7-1.1v-11.7c0-1.6,1.3-2.8,2.8-2.8h3.3c1.6,0,2.8,1.3,2.8,2.8v13.3c0,.6.3,1,.8,1.2l9.1,3.6c.5.2,1,.6,1.3,1.1l4.7,7.2c.3.5,1,.7,1.6.4l5.3-2.8c1.1-.6,2.5-.4,3.3.6l16.2,18.4c.6.7.8,1.8.5,2.7l-14,41.6c-.2.6,0,1.2.6,1.5l6.9,3.5h1l28.8-11.9c.8-.3,1.7-.3,2.5.2s1.2,1.3,1.3,2.2l.8,11.8c0,.6,0,1.3-.5,1.8l-4.7,6.5s-.2.2-.2.3l-6.1,18v14.5c0,.5.4,1,.9,1.2l35.7,10c.7.2,1.2.6,1.6,1.2l5.3,8.6c.2.3.5.6.9.6s.7,0,1-.3l4.2-3.8c.5-.5,1.1-.7,1.8-.7s.7,0,1.1.2l12.4,5.6h9.9c.5,0,1-.3,1.2-.8l8.4-25.2v-.4l-.3-16.9c0-.7.2-1.3.6-1.8l33.1-42.2c.2-.2.3-.4.3-.7l.9-19.1c0-.8.4-1.5,1-2l5.9-5c.2-.3.4-.6.4-1l-.3-12.9c0-.6.2-1.2.5-1.7l8-11s.2-.3.2-.5l3.2-21.8c0-.3.2-.5.3-.8l11.6-23.2v-.6l-.6-25.1c0-.7.2-1.3.6-1.8l8.5-10.9c.2-.3.3-.5.3-.8l.7-42.8v-.4l8.3-52.5c0-.2,0-.4.2-.6l5.6-14.1h0c0-.2,0-.5.2-.9l-5-15.7v-.3l-29.5-47.3c-.6-.9-.6-2.1,0-3l4.1-6.3c.3-.5.3-1.1,0-1.5l-4-4.7c-.3-.4-.5-.9-.6-1.4l-4.8-38.4c0-1,.3-2,1.2-2.6l2.6-1.7c.5-.3.6-.9.4-1.5l-9.8-22.2c-.2-.5-.6-.8-1.1-.8h-8.1c-.5,0-1.1,0-1.5-.4l-13.4-8.7c-.2,0-.4-.2-.6-.2l-20.6-1.9c-.5,0-1-.2-1.4-.5l-24.5-18.1s-.2-.2-.4-.2l-27.9-7.5c-1.1-.3-1.8-1.2-2-2.3l-1.2-8.9c0-.3-.2-.6-.4-.8-2.3-2-9.3-9.2-2.7-18.5,2.5-3.5,3.5-6.5,2.9-8.9-.6-2.1-2.3-3.1-2.8-3.4-.2,0-.3-.2-.5-.3l-5.7-4.5c-.6-.4-1.1-.3-1.5,0-.3.3-.7.7-.5,1.4l2.4,8.8c.2.8,0,1.6-.4,2.3s-1.1,1.1-1.9,1.2l-1.8.2c-.4,0-.8.3-1,.8l-4.5,13.9c-.3,1.1-1.2,1.8-2.3,1.9l-31.3,3.3c-1.3,0-2.5-.7-2.9-2l-2.7-9.2c0-.2,0-.3-.3-.5l-10.2-9.9c-.4-.4-1-.5-1.5-.2l-6.4,3.7c-.3.2-.6.6-.6,1l-.5,8.7c0,1-.7,1.9-1.6,2.3l-13.8,6.5c-.7.3-1.5.3-2.2,0-.7-.4-1.3-1-1.5-1.7l-.2-.6c-.2-.4-.6-.8-1.1-.8l-27.2-2.1c-.3,0-.7,0-.9.3s-.4.6-.4.9l-.5,9.4c0,1.1-.7,2-1.6,2.4l-10.8,4.8c-.7.3-1.4.3-2.1,0l-10.4-3.8c-.4-.2-.7,0-1.1,0s-.6.5-.6.9l-.4,4.3c0,.9-.7,1.8-1.5,2.2l-16.5,8.6c-.5.3-.7.7-.7,1.2l.2,7.1c0,1.5-1.1,2.7-2.6,2.8h-2.7c-.7.2-1.4,0-2-.6s-.9-1.2-.9-1.9l-.2-6c0-.5-.3-.9-.8-1.1l-24.4-9.9c-.5-.2-1.1,0-1.4.4l-1.5,1.9c-.5.6-1.2.9-1.9,1l-6.6.6c-.5,0-1,0-1.5-.3l-9.5-4.9h-.4l-37.4-4.4c-.4,0-.7,0-1,.3-.2.2-.4.6-.4.9l-.2,4.2c0,.3,0,.6.2.8l4.4,6.4c.6.9.6,2,0,2.9s-1.4,1.5-2.5,1.4l-8.5-.4c-.5,0-.9.2-1.1.5l-15.8,22.2c-.3.5-.3,1.1,0,1.5l4.8,6.5c.6.9.7,2,.2,2.9l-1.2,2.4c-.5,1-1.5,1.6-2.6,1.5l-15.8-.8c-.4,0-.9.2-1.1.6-.3.4-.2.9,0,1.3l9.1,14.6c.7,1.1.5,2.6-.5,3.5l-5.8,5.3c-.2.2-.4.5-.4.9v12.9c0,.7-.3,1.4-.8,1.9l-11.2,11.2-.2.3-8.7,21c-.5,1-1.4,1.7-2.5,1.7l-8.5.2c-1.4,0-2.6-1-2.8-2.4l-1.1-8.7c0-.4-.3-.7-.6-.9s-.7-.2-1.1-.1l-35.2,13.4c-.9.4-1.8.2-2.6-.3l-8.4-5.9c-.3-.3-.9-.3-1.3-.1l-10.8,6.3c-.3.2-.5.5-.6.8s0,.6,0,.9l7.5,12.4c.4.7.5,1.5.2,2.3l-7.6,21.8v.4l-.3,11.9c0,.7-.3,1.3-.8,1.8l-4.5,4.7c-.4.4-.5,1-.2,1.5l4.7,8.7c.4.9.4,2,0,2.8l-11.4,18.5c0,.2-.2.5-.2.7v36.8c0,1.4-.6,2.8-1.7,3.6l-2.2,1.8c-1.9,1.6-2.3,4.3-.9,6.4h0c1.6,2.3.9,5.4-1.5,6.8l-3.3,1.9c-1.1.6-1.8,1.6-2.2,2.8l-.5,1.7c-.7,2.2.4,4.6,2.5,5.6l5.1,2.5h-.1Z"></path>
<path class="flaeche" d="M872.1,370.9c.5.2,1,.4,1.5.4l16.4,1.9,21.1,1.6c.8,0,1.5.4,2,1.1l4.1,5.6c.5.6.6,1.3.5,2.1,0,.7-.6,1.4-1.2,1.8l-5.5,3.6c-.4.2-.6.6-.6,1,0,1.4.2,4.2,1.7,6.2.3.3.7.5,1.1.5h1.9c1.1-.1,2.1.4,2.6,1.3l9.2,15.9c.3.5,6.4,12-.2,17.1l-5.7,4.6c-.4.3-.5.8-.4,1.3.2.4.5.8,1,.9l9.6,2.1c.5,0,.9.4,1.3.7l3.5,3.3c.2.2.5.3.8.3h7c.5,0,1-.3,1.2-.8l1.4-3.9c.3-.8,1-1.5,1.8-1.7.9-.3,1.8,0,2.5.4l5.4,4.1c.2.2.4.3.7.4h0c.8.3,1.7,0,2.4-.4l6.5-5c.3-.3.8-.3,1.2-.2l5.5,2.1c.9.4,2,.2,2.7-.4l2.1-1.7c.3-.2.6-.3,1-.3l8.5,1.3c1.3.2,2.5-.5,3-1.7l3.9-9.4,9.2,6.2h0c.6-.4,1.3-.6,2-.6h12.6c.4,0,.8-.2,1-.5l10.2-12.5c.5-.6,1.3-1,2.1-1s1.6.3,2.1.9l10.3,11.3c.2.3.6.4.9.4s.7-.2.9-.4l9.9-10.5c.7-.7,1.8-1,2.8-.7l25.2,8.3c.8.2,1.4.8,1.7,1.5l3.6,8.1c0,.3.4.6.8.7s.8,0,1.1-.2l10.8-8.7c.8-.6,1.7-.8,2.6-.5l13.2,4.2c1.1.4,1.9,1.4,1.9,2.6v6.9c0,.3,0,.7.4.9l8,7.2c.5.4,1.2.4,1.7,0l4.8-4.3c1-.9,2.4-1,3.5-.2l9,6.6c.6.4,1,1,1.1,1.7l1,4.7c0,.3.3.6.6.8l12,6.6c.5.2,1,.2,1.4,0l17.4-13.3c1-.7,2.3-.7,3.3,0l11.6,8.4c.4.3.9.3,1.3,0s.7-.6.7-1.1v-11.7c0-1.6,1.3-2.8,2.8-2.8h3.3c1.6,0,2.8,1.3,2.8,2.8v13.3c0,.6.3,1,.8,1.2l9.1,3.6c.5.2,1,.6,1.3,1.1l4.7,7.2c.3.5,1,.7,1.6.4l5.3-2.8c1.1-.6,2.5-.4,3.3.6l16.2,18.4c.6.7.8,1.8.5,2.7l-14,41.6c-.2.6,0,1.2.6,1.5l6.9,3.5h1l28.8-11.9c.8-.3,1.7-.3,2.5.2s1.2,1.3,1.3,2.2l.8,11.8c0,.6,0,1.3-.5,1.8l-4.7,6.5s-.2.2-.2.3l-6.1,18v14.5c0,.5.4,1,.9,1.2l35.7,10c.7.2,1.2.6,1.6,1.2l5.3,8.6c.2.3.5.6.9.6s.7,0,1-.3l4.2-3.8c.5-.5,1.1-.7,1.8-.7s.7,0,1.1.2l12.4,5.6h9.9c.5,0,1-.3,1.2-.8l8.4-25.2v-.4l-.3-16.9c0-.7.2-1.3.6-1.8l33.1-42.2c.2-.2.3-.4.3-.7l.9-19.1c0-.8.4-1.5,1-2l5.9-5c.2-.3.4-.6.4-1l-.3-12.9c0-.6.2-1.2.5-1.7l8-11s.2-.3.2-.5l3.2-21.8c0-.3.2-.5.3-.8l11.6-23.2v-.6l-.6-25.1c0-.7.2-1.3.6-1.8l8.5-10.9c.2-.3.3-.5.3-.8l.7-42.8v-.4l8.3-52.5c0-.2,0-.4.2-.6l5.6-14.1h0c0-.2,0-.5.2-.9l-5-15.7v-.3l-29.5-47.3c-.6-.9-.6-2.1,0-3l4.1-6.3c.3-.5.3-1.1,0-1.5l-4-4.7c-.3-.4-.5-.9-.6-1.4l-4.8-38.4c0-1,.3-2,1.2-2.6l2.6-1.7c.5-.3.6-.9.4-1.5l-9.8-22.2c-.2-.5-.6-.8-1.1-.8h-8.1c-.5,0-1.1,0-1.5-.4l-13.4-8.7c-.2,0-.4-.2-.6-.2l-20.6-1.9c-.5,0-1-.2-1.4-.5l-24.5-18.1s-.2-.2-.4-.2l-27.9-7.5c-1.1-.3-1.8-1.2-2-2.3l-1.2-8.9c0-.3-.2-.6-.4-.8-2.3-2-9.3-9.2-2.7-18.5,2.5-3.5,3.5-6.5,2.9-8.9-.6-2.1-2.3-3.1-2.8-3.4-.2,0-.3-.2-.5-.3l-5.7-4.5c-.6-.4-1.1-.3-1.5,0-.3.3-.7.7-.5,1.4l2.4,8.8c.2.8,0,1.6-.4,2.3s-1.1,1.1-1.9,1.2l-1.8.2c-.4,0-.8.3-1,.8l-4.5,13.9c-.3,1.1-1.2,1.8-2.3,1.9l-31.3,3.3c-1.3,0-2.5-.7-2.9-2l-2.7-9.2c0-.2,0-.3-.3-.5l-10.2-9.9c-.4-.4-1-.5-1.5-.2l-6.4,3.7c-.3.2-.6.6-.6,1l-.5,8.7c0,1-.7,1.9-1.6,2.3l-13.8,6.5c-.7.3-1.5.3-2.2,0-.7-.4-1.3-1-1.5-1.7l-.2-.6c-.2-.4-.6-.8-1.1-.8l-27.2-2.1c-.3,0-.7,0-.9.3s-.4.6-.4.9l-.5,9.4c0,1.1-.7,2-1.6,2.4l-10.8,4.8c-.7.3-1.4.3-2.1,0l-10.4-3.8c-.4-.2-.7,0-1.1,0s-.6.5-.6.9l-.4,4.3c0,.9-.7,1.8-1.5,2.2l-16.5,8.6c-.5.3-.7.7-.7,1.2l.2,7.1c0,1.5-1.1,2.7-2.6,2.8h-2.7c-.7.2-1.4,0-2-.6s-.9-1.2-.9-1.9l-.2-6c0-.5-.3-.9-.8-1.1l-24.4-9.9c-.5-.2-1.1,0-1.4.4l-1.5,1.9c-.5.6-1.2.9-1.9,1l-6.6.6c-.5,0-1,0-1.5-.3l-9.5-4.9h-.4l-37.4-4.4c-.4,0-.7,0-1,.3-.2.2-.4.6-.4.9l-.2,4.2c0,.3,0,.6.2.8l4.4,6.4c.6.9.6,2,0,2.9s-1.4,1.5-2.5,1.4l-8.5-.4c-.5,0-.9.2-1.1.5l-15.8,22.2c-.3.5-.3,1.1,0,1.5l4.8,6.5c.6.9.7,2,.2,2.9l-1.2,2.4c-.5,1-1.5,1.6-2.6,1.5l-15.8-.8c-.4,0-.9.2-1.1.6-.3.4-.2.9,0,1.3l9.1,14.6c.7,1.1.5,2.6-.5,3.5l-5.8,5.3c-.2.2-.4.5-.4.9v12.9c0,.7-.3,1.4-.8,1.9l-11.2,11.2-.2.3-8.7,21c-.5,1-1.4,1.7-2.5,1.7l-8.5.2c-1.4,0-2.6-1-2.8-2.4l-1.1-8.7c0-.4-.3-.7-.6-.9s-.7-.2-1.1-.1l-35.2,13.4c-.9.4-1.8.2-2.6-.3l-8.4-5.9c-.3-.3-.9-.3-1.3-.1l-10.8,6.3c-.3.2-.5.5-.6.8s0,.6,0,.9l7.5,12.4c.4.7.5,1.5.2,2.3l-7.6,21.8v.4l-.3,11.9c0,.7-.3,1.3-.8,1.8l-4.5,4.7c-.4.4-.5,1-.2,1.5l4.7,8.7c.4.9.4,2,0,2.8l-11.4,18.5c0,.2-.2.5-.2.7v36.8c0,1.4-.6,2.8-1.7,3.6l-2.2,1.8c-1.9,1.6-2.3,4.3-.9,6.4h0c1.6,2.3.9,5.4-1.5,6.8l-3.3,1.9c-1.1.6-1.8,1.6-2.2,2.8l-.5,1.7c-.7,2.2.4,4.6,2.5,5.6l5.1,2.5h-.1Z"></path>
</g>


<!-- Region: Leipzig -->
<g class="region" data-name="Leipzig Region" data-url="https://www.leipzig.travel/" id="leipzig">
<!-- breite unsichtbare Klickfläche -->
<path class="hit" d="M626,455.7l-4.6-3.8c-.9-.8-2.2-1-3.3-.6l-1.4.5c-.6.2-1.3.2-1.9,0l-4-1c-.9-.2-1.8,0-2.6.4l-3.3,1.9c-1,.6-1.6,1.5-1.7,2.6h0c-.2,2.2-2.5,3.6-4.6,2.9l-3.3-1.2c-1-.3-2.1-.2-3,.3l-6.3,3.8c-1.1.6-2.4.7-3.5,0l-6.1-3.4c-.7-.4-1.5-.5-2.2-.4l-10.1,1.6h-.4l-12,.5h-.3l-27.3,3.5-14.8,2.5c-.6,0-1.3,0-1.8-.2l-10.8-4.2c-1.2-.5-2-1.6-2.2-2.8l-1.9-16.6c0-.3,0-.6-.2-.9l-4.4-11.5c-.4-1.1-1.5-2-2.7-2.2l-7.8-1.3c-.7,0-1.4,0-2,.3l-15.2,6.9c-.6.3-1.3.4-2,.3l-13.2-2.2c-.6,0-1.2,0-1.8.2l-6.9,2.6c-.9.3-1.9.3-2.7,0l-7.4-3.5c-.5-.2-.9-.5-1.2-.9l-2.9-3.5c-.8-1-2-1.4-3.3-1.2l-10.3,1.8h-.7l-13.3-.5h-.9l-8.8,2c-1.2.3-2.2,1.1-2.5,2.3l-1.9,5.6c-.3,1-.2,2,.3,2.9l2.4,4c1.2,1.9.2,4.5-2,5.1-3.5,1.1-7.8,2.4-8.2,2.4-.6,0-11.4.7-13.6.8s-.5,0-.8,0l-5.7-.9c-1.2-.2-2.4.2-3.2,1.1l-5.3,6.1c-.8,1-1.1,2.3-.6,3.5l2.7,7.1c.5,1.2.2,2.5-.6,3.5l-1.8,2.1c-1.3,1.5-1.1,3.9.6,5.1l2.7,2c.8.6,1.9.8,2.9.6l10.8-2.5h.9l11.1.3c.9,0,1.7.4,2.4,1,1.8,1.8,5.4,5.5,5.5,5.8s1.5,5,2.4,7.7,0,2.7-1,3.6l-5,4.6c-.3.3-.5.6-.7.9l-4.3,8c-.6,1.2-1.9,1.9-3.3,1.8l-5.1-.3c-.6,0-1.3,0-1.9.4l-6.1,3.3c-.9.5-1.9.5-2.9.2l-1.8-.7c-.8-.3-1.7-.3-2.4,0h0c-2,.7-4.2,0-5.2-1.8l-6.4-10.9c-.4-1-1.3-1.7-2.4-1.8l-27.9-2c-.3,0-.6-.2-.9-.4s-.3-.6-.3-.9l1.2-12.9c.1-.6-.1-1.2-.4-1.8l-18.2-27.8c-.4-.5-.9-1-1.5-1.1l-13.7-4c-.4,0-.6-.4-.8-.7l-4.8-10.8c-.6-1.4-2.2-2-3.6-1.4l-16.1,6.8h-.9l-22.3-7.8c-.2,0-.3,0-.4-.2l-13.7-12.3c-.8-.7-1.9-.9-2.9-.5l-17.6,7h-1.2l-25.4-17c-.4-.2-.6-.7-.6-1.1l.6-12.5c.1-1.1-.5-2.1-1.5-2.6l-11.1-5.9c-.4-.2-.7-.7-.7-1.2l2.5-48.5c0-.4-.1-.9-.2-1.2l-4.9-11.1c-.1-.1-.1-.3-.1-.4l-.7-14.6c0-.6-.2-1.1-.6-1.6l-7.5-9.2-.2-.5-3.2-18.7c0-.1-.1-.3-.1-.4l-5.4-16.4c-.2-.6.1-1.2.7-1.5,8.6-4.5,15.2-17.8,16.4-20.4.2-.4.3-.8.3-1.2l-.4-25.2c0-.7-.3-1.3-.7-1.8l-7.1-7.8c-.4-.4-.4-.9-.2-1.4l7.7-16.4c.5-1.1.2-2.4-.7-3.2l-10.8-9.5c-.1-.1-.2-.3-.3-.4l-8.6-19.5c-.2-.5,0-1,.3-1.4l12.9-12.6c.2-.2.6-.4.9-.4l8.6.6c.7.1,1.4-.2,2-.7s.9-1.2.9-1.9l.6-12.4c0-.4-.1-.9-.2-1.2l-3.7-8.5c-.1-.2-.1-.3-.1-.5v-14.8c0-.3.1-.6.4-.9l20-20.3c.3-.3.6-.4,1-.4l20.2,1.4c.8,0,1.5-.2,2.1-.7l18.2-16.8c.2-.2.4-.3.7-.3l20.9-2.8h.6l15.8,5.6c1.3.5,2.7,0,3.3-1.3l9-16.8c.3-.6,1.1-.8,1.7-.5l13.3,6.8c.9.4,1.9.4,2.7,0l9.9-6c.3-.2.6-.2,1-.2l13.2,3.3c.7.2,1.5,0,2.1-.3l24.3-15.8c.2,0,.4-.2.6-.2l21.1-.3c.9,0,1.7-.5,2.2-1.2l19-27.6c.3-.5,1-.7,1.5-.4l27.3,10.9c.9.4,1.9.2,2.6-.3l24.7-17.8c.3-.2.7-.3,1.1-.2l46.2,14.4c.2,0,.4.2.6.4l5.6,6.4c.5.6,1.3.9,2.1,1h0c.8,0,1.5-.3,2.1-.9l17.6-20.2c.5-.5,1.2-.6,1.8,0l8.2,7c.3.2.4.6.4.9v6c0,.8.3,1.6,1,2.1l6.2,5.4c1,.9,2.5.9,3.5.1l5.9-4.6c.3-.2.6-.3,1-.2s.7.3.8.6l16,25.8c.8,1.3,2.5,1.7,3.8.9l10-6c.5-.3,1.1-.2,1.5.2l14.7,15c.4.4.5,1,.2,1.4l-5.3,10.6c-.4.8-.4,1.7,0,2.5l4.9,9.2c.5.9,1.4,1.5,2.4,1.5h10.3c.7,0,1.2.5,1.2,1.2l.6,11.2c0,.6.3,1.2.6,1.6l10.8,12.9c.2.3.3.7.3,1.1l-4,19.4c0,.5-.4.8-.9,1l-4.5,1.2c-1.2.3-2,1.3-2,2.5l-.6,11.6c0,.9.3,1.8,1.1,2.3l8.6,6.6c.3.2.4.5.5.9l.5,4.8c0,.4,0,.8-.4,1.1l-11.4,9.9c-.6.5-.9,1.2-1,1.9,0,.8.2,1.5.8,2l3.3,3.4c.8.8,2,1.1,3,.6l2.9-1.2c.3-.1.7-.1,1,0,.3.2.6.4.7.8l4.5,17.1s-.2-.1-.3-.1c-.9,0-1.7.4-2.2,1.1l-8.4,12.4c-.6.9-.6,2.2,0,3.1l6.4,8.2c.3.4.3,1,0,1.4l-2.9,3.5c-.5.6-.7,1.3-.6,2.1,0,.7.5,1.4,1.1,1.8,3.3,2.1,8.5,6.8,6.4,14.6l-2.5,17.7c0,.5,0,1,.2,1.4l6.1,13.7c.2.3,0,.7,0,1-.2.3-.5.5-.9.5-.8,0-1.5.4-2,1s-.7,1.5-.5,2.2l3.7,14.2v.7l-2.7,6.5c-.2.4-.6.7-1,.7h-2.9c-.8,0-1.5.3-2,.9s-.7,1.4-.6,2.1l4.7,26c0,.3,0,.7-.2.9l-3.2,3.7c-.8,1-.8,2.4,0,3.4l5.8,6.7.2.5,2,15.7c0,.8.5,1.5,1.2,1.9l15,9.2c.2.1.4.4.5.6l4.5,14.9v.5l-2.7,15.4c0,.3-.3.6-.6.8l-8.2,4c-.8.4-1.4,1.2-1.5,2.2v2.4c0,.9.2,1.7,1,2.2.7.5,1.6.6,2.5.3l4.9-1.9h.9c.3.2.5.4.5.8l5,28.4c0,.5-.2,1-.6,1.2l-2.9,1.3c-.6.3-1.1.8-1.3,1.4l-1.9,4.7c-.3.7-.2,1.5,0,2.2h0v-.2Z"></path>
<!-- sichtbare Fläche -->
<path class="flaeche" d="M626,455.7l-4.6-3.8c-.9-.8-2.2-1-3.3-.6l-1.4.5c-.6.2-1.3.2-1.9,0l-4-1c-.9-.2-1.8,0-2.6.4l-3.3,1.9c-1,.6-1.6,1.5-1.7,2.6h0c-.2,2.2-2.5,3.6-4.6,2.9l-3.3-1.2c-1-.3-2.1-.2-3,.3l-6.3,3.8c-1.1.6-2.4.7-3.5,0l-6.1-3.4c-.7-.4-1.5-.5-2.2-.4l-10.1,1.6h-.4l-12,.5h-.3l-27.3,3.5-14.8,2.5c-.6,0-1.3,0-1.8-.2l-10.8-4.2c-1.2-.5-2-1.6-2.2-2.8l-1.9-16.6c0-.3,0-.6-.2-.9l-4.4-11.5c-.4-1.1-1.5-2-2.7-2.2l-7.8-1.3c-.7,0-1.4,0-2,.3l-15.2,6.9c-.6.3-1.3.4-2,.3l-13.2-2.2c-.6,0-1.2,0-1.8.2l-6.9,2.6c-.9.3-1.9.3-2.7,0l-7.4-3.5c-.5-.2-.9-.5-1.2-.9l-2.9-3.5c-.8-1-2-1.4-3.3-1.2l-10.3,1.8h-.7l-13.3-.5h-.9l-8.8,2c-1.2.3-2.2,1.1-2.5,2.3l-1.9,5.6c-.3,1-.2,2,.3,2.9l2.4,4c1.2,1.9.2,4.5-2,5.1-3.5,1.1-7.8,2.4-8.2,2.4-.6,0-11.4.7-13.6.8s-.5,0-.8,0l-5.7-.9c-1.2-.2-2.4.2-3.2,1.1l-5.3,6.1c-.8,1-1.1,2.3-.6,3.5l2.7,7.1c.5,1.2.2,2.5-.6,3.5l-1.8,2.1c-1.3,1.5-1.1,3.9.6,5.1l2.7,2c.8.6,1.9.8,2.9.6l10.8-2.5h.9l11.1.3c.9,0,1.7.4,2.4,1,1.8,1.8,5.4,5.5,5.5,5.8s1.5,5,2.4,7.7,0,2.7-1,3.6l-5,4.6c-.3.3-.5.6-.7.9l-4.3,8c-.6,1.2-1.9,1.9-3.3,1.8l-5.1-.3c-.6,0-1.3,0-1.9.4l-6.1,3.3c-.9.5-1.9.5-2.9.2l-1.8-.7c-.8-.3-1.7-.3-2.4,0h0c-2,.7-4.2,0-5.2-1.8l-6.4-10.9c-.4-1-1.3-1.7-2.4-1.8l-27.9-2c-.3,0-.6-.2-.9-.4s-.3-.6-.3-.9l1.2-12.9c.1-.6-.1-1.2-.4-1.8l-18.2-27.8c-.4-.5-.9-1-1.5-1.1l-13.7-4c-.4,0-.6-.4-.8-.7l-4.8-10.8c-.6-1.4-2.2-2-3.6-1.4l-16.1,6.8h-.9l-22.3-7.8c-.2,0-.3,0-.4-.2l-13.7-12.3c-.8-.7-1.9-.9-2.9-.5l-17.6,7h-1.2l-25.4-17c-.4-.2-.6-.7-.6-1.1l.6-12.5c.1-1.1-.5-2.1-1.5-2.6l-11.1-5.9c-.4-.2-.7-.7-.7-1.2l2.5-48.5c0-.4-.1-.9-.2-1.2l-4.9-11.1c-.1-.1-.1-.3-.1-.4l-.7-14.6c0-.6-.2-1.1-.6-1.6l-7.5-9.2-.2-.5-3.2-18.7c0-.1-.1-.3-.1-.4l-5.4-16.4c-.2-.6.1-1.2.7-1.5,8.6-4.5,15.2-17.8,16.4-20.4.2-.4.3-.8.3-1.2l-.4-25.2c0-.7-.3-1.3-.7-1.8l-7.1-7.8c-.4-.4-.4-.9-.2-1.4l7.7-16.4c.5-1.1.2-2.4-.7-3.2l-10.8-9.5c-.1-.1-.2-.3-.3-.4l-8.6-19.5c-.2-.5,0-1,.3-1.4l12.9-12.6c.2-.2.6-.4.9-.4l8.6.6c.7.1,1.4-.2,2-.7s.9-1.2.9-1.9l.6-12.4c0-.4-.1-.9-.2-1.2l-3.7-8.5c-.1-.2-.1-.3-.1-.5v-14.8c0-.3.1-.6.4-.9l20-20.3c.3-.3.6-.4,1-.4l20.2,1.4c.8,0,1.5-.2,2.1-.7l18.2-16.8c.2-.2.4-.3.7-.3l20.9-2.8h.6l15.8,5.6c1.3.5,2.7,0,3.3-1.3l9-16.8c.3-.6,1.1-.8,1.7-.5l13.3,6.8c.9.4,1.9.4,2.7,0l9.9-6c.3-.2.6-.2,1-.2l13.2,3.3c.7.2,1.5,0,2.1-.3l24.3-15.8c.2,0,.4-.2.6-.2l21.1-.3c.9,0,1.7-.5,2.2-1.2l19-27.6c.3-.5,1-.7,1.5-.4l27.3,10.9c.9.4,1.9.2,2.6-.3l24.7-17.8c.3-.2.7-.3,1.1-.2l46.2,14.4c.2,0,.4.2.6.4l5.6,6.4c.5.6,1.3.9,2.1,1h0c.8,0,1.5-.3,2.1-.9l17.6-20.2c.5-.5,1.2-.6,1.8,0l8.2,7c.3.2.4.6.4.9v6c0,.8.3,1.6,1,2.1l6.2,5.4c1,.9,2.5.9,3.5.1l5.9-4.6c.3-.2.6-.3,1-.2s.7.3.8.6l16,25.8c.8,1.3,2.5,1.7,3.8.9l10-6c.5-.3,1.1-.2,1.5.2l14.7,15c.4.4.5,1,.2,1.4l-5.3,10.6c-.4.8-.4,1.7,0,2.5l4.9,9.2c.5.9,1.4,1.5,2.4,1.5h10.3c.7,0,1.2.5,1.2,1.2l.6,11.2c0,.6.3,1.2.6,1.6l10.8,12.9c.2.3.3.7.3,1.1l-4,19.4c0,.5-.4.8-.9,1l-4.5,1.2c-1.2.3-2,1.3-2,2.5l-.6,11.6c0,.9.3,1.8,1.1,2.3l8.6,6.6c.3.2.4.5.5.9l.5,4.8c0,.4,0,.8-.4,1.1l-11.4,9.9c-.6.5-.9,1.2-1,1.9,0,.8.2,1.5.8,2l3.3,3.4c.8.8,2,1.1,3,.6l2.9-1.2c.3-.1.7-.1,1,0,.3.2.6.4.7.8l4.5,17.1s-.2-.1-.3-.1c-.9,0-1.7.4-2.2,1.1l-8.4,12.4c-.6.9-.6,2.2,0,3.1l6.4,8.2c.3.4.3,1,0,1.4l-2.9,3.5c-.5.6-.7,1.3-.6,2.1,0,.7.5,1.4,1.1,1.8,3.3,2.1,8.5,6.8,6.4,14.6l-2.5,17.7c0,.5,0,1,.2,1.4l6.1,13.7c.2.3,0,.7,0,1-.2.3-.5.5-.9.5-.8,0-1.5.4-2,1s-.7,1.5-.5,2.2l3.7,14.2v.7l-2.7,6.5c-.2.4-.6.7-1,.7h-2.9c-.8,0-1.5.3-2,.9s-.7,1.4-.6,2.1l4.7,26c0,.3,0,.7-.2.9l-3.2,3.7c-.8,1-.8,2.4,0,3.4l5.8,6.7.2.5,2,15.7c0,.8.5,1.5,1.2,1.9l15,9.2c.2.1.4.4.5.6l4.5,14.9v.5l-2.7,15.4c0,.3-.3.6-.6.8l-8.2,4c-.8.4-1.4,1.2-1.5,2.2v2.4c0,.9.2,1.7,1,2.2.7.5,1.6.6,2.5.3l4.9-1.9h.9c.3.2.5.4.5.8l5,28.4c0,.5-.2,1-.6,1.2l-2.9,1.3c-.6.3-1.1.8-1.3,1.4l-1.9,4.7c-.3.7-.2,1.5,0,2.2h0v-.2Z"></path>
</g>
<!-- Region: Leipzig (Stadt) -->

<!-- Chemnitz.Zwickau.Region -->
<!-- Chemnitz-Region (als klickbares DMO-Polygon) -->
<g class="region" data-name="Chemnitz Zwickau Region" data-url="https://chemnitz-zwickau-region.de/" id="chemnitz_zwickau_region">
<!-- breite, unsichtbare Klick-/Hover-Fläche -->
<path class="hit" d="M514.4,601.4l9,9.5c.3.4.8.6,1.3.8l12.6,3.3c.6.2,1,.7.9,1.3l-1.2,10.8v.8l2.1,12.2v.8l-14.3,25.8c-.2.3-.4.5-.8.6h-1l-6.8-4.1c-.8-.5-1.8-.5-2.7,0s-1.4,1.3-1.5,2.3l-.3,6.7c0,.3-.2.7-.4.9l-8.6,7.2c-.5.4-1.2.4-1.7,0l-1.8-1.7c-.7-.6-1.6-.9-2.5-.7l-5.8,1.4c-1,.2-1.8,1.1-2,2.1l-1,4.5c0,.4-.3.7-.6.8l-2.8,1.5c-.2,0-.5.2-.7,0l-8.2-.9c-.4,0-.7-.2-.9-.6l-4.1-6.3-.3-.3-4.4-4.8c-.5-.5-.4-1.3,0-1.8l2.9-2.7c.6-.6.9-1.4.9-2.3l-.5-5c0-1.4-1.4-2.5-2.8-2.5l-5.5.2c-.4,0-.7,0-.9-.4s-.4-.6-.4-.9v-2.4c0-.9-.3-1.8-1-2.3l-12.3-9.4c-.9-.7-2.2-.8-3.2,0l-9.8,6.6s-.2.2-.4.3c-6.9,6.7-12.8,5.6-15.7,4.4-.8-.3-1.7-.3-2.4,0h0l-1.5-10.8v-.6c-4-10.8-12.6-12.7-16-13-.6,0-1.1-.6-1.1-1.2v-3.9c0-.4.2-.8.5-1s.7-.3,1.1-.2l9.9,3c1,.3,2,0,2.7-.7l17-16.7c.5-.5.8-1.1.8-1.8l.8-13.4c0-.3.2-.7.5-.9l7.3-5.7c.7-.5,1-1.3,1-2.2v-5.3c0-.4.2-.8.6-1.1l14.6-9c.2,0,.4-.2.7-.2h11.8c.7,0,1.2.6,1.2,1.2v4.9c0,.9.5,1.8,1.2,2.3.8.5,1.7.6,2.5.3l4.3-1.7c.5-.2,1,0,1.3.2l3.6,3.4c.7.7,1.7.9,2.7.6l19-5.8h.9l9.9,5,2.7,8.8v.5l-.7,7.1c-.3.9,0,1.6.5,2.2h-.2Z
    M351.4,515.7l1.8.7c.9.3,2,.3,2.9-.2l6.1-3.3c.6-.3,1.2-.4,1.9-.4l5.1.3c1.3,0,2.6-.6,3.3-1.8l4.3-8c.2-.3.4-.6.7-.9l5-4.6c1-.9,1.3-2.3,1-3.6-.8-2.8-2.2-7.4-2.4-7.7s-3.7-4-5.5-5.8-1.5-1-2.4-1l-11.1-.3h-.9l-10.8,2.5c-1,.2-2,0-2.9-.6l-2.7-2c-1.6-1.2-1.9-3.5-.6-5.1l1.8-2.1c.8-1,1.1-2.3.6-3.5l-2.7-7.1c-.5-1.2-.2-2.5.6-3.5l5.3-6.1c.8-.9,2-1.3,3.2-1.1l5.7.9h.8c2.2,0,13-.8,13.6-.8s4.8-1.3,8.2-2.4,3.1-3.2,2-5.1l-2.4-4c-.5-.9-.6-1.9-.3-2.9l1.9-5.6c.4-1.2,1.3-2,2.5-2.3l8.8-2h.9l13.3.5h.7l10.3-1.8c1.2-.2,2.5.3,3.3,1.2l2.9,3.5c.3.4.7.7,1.2.9l7.4,3.5c.9.4,1.8.4,2.7,0l6.9-2.6c.6-.2,1.2-.3,1.8-.2l13.2,2.2c.7,0,1.4,0,2-.3l15.2-6.9c.6-.3,1.3-.4,2-.3l7.8,1.3c1.2.2,2.2,1,2.7,2.2l4.4,11.5c0,.3.2.6.2.9l1.9,16.6c0,1.3,1,2.4,2.2,2.8l10.8,4.2c.6.2,1.2.3,1.8.2l14.8-2.5,27.3-3.5h.3l12-.5h.4l10.1-1.6c.8,0,1.6,0,2.2.4l6.1,3.4c1.1.6,2.4.6,3.5,0l6.3-3.8c.9-.5,2-.7,3-.3l3.3,1.2c2.1.7,4.4-.7,4.6-2.9h0c0-1.1.8-2.1,1.7-2.6l3.3-1.9c.8-.5,1.7-.6,2.6-.4l4,1c.6.2,1.3,0,1.9,0l1.4-.5c1.1-.4,2.4,0,3.3.6l4.6,3.8c.3.7,1,1.1,1.8,1.3l4.7.8c.5,0,1,.6.9,1.2l-.5,6.1c0,.2,0,.3-.2.5l-10.7,17.7c-.5.8-.5,1.8,0,2.6l1.2,1.1c.2.2,0,.6-.2.7l-4.9.8c-.6,0-1.1.6-1.1,1.2l.2,16.9c0,.5,0,1-.4,1.5l-12.1,18.7c-.2.3-.2.5-.2.8l1.3,16.2c0,.9-.3,1.7-1,2.3l-6.4,5.5c-.2.2-.4.5-.4.8l-2.2,19.2c0,1.4-1.3,2.4-2.7,2.4h-8.3c-.3,0-.5,0-.7.2l-8.1,5.2c-.9.6-1.7,1.5-2.1,2.5l-.8,2.2c-.6,1.6-.4,3.4.6,4.8l4.7,6.9c.2.3.4.6.5.9l1.6,3.8c1,2.3.2,4.9-1.8,6.3l-.4.3c-1.7,1.2-2.6,3.4-2.1,5.4h0c.7,2.9-1.3,5.8-4.3,6.3l-5,.8c-.7,0-1.5.4-2.1.8l-6.3,4.2c-.9.6-1.8.9-2.9.9h-10.5c-.7,0-1.3,0-1.9.4l-4.8,1.9s-.3,0-.4.2l-.9.5,2,11.8v.8l-14.3,25.8c-.2.3-.4.5-.8.6h-1l-6.8-4.1c-.8-.5-1.8-.5-2.7,0s-1.4,1.3-1.5,2.3l-.3,6.7c0,.3-.2.7-.4.9l-8.6,7.2c-.5.4-1.2.4-1.7,0l-1.8-1.7c-.7-.6-1.6-.9-2.5-.7l-5.8,1.4c-1,.2-1.8,1.1-2,2.1l-1,4.5c0,.4-.3.7-.6.8l-2.8,1.5c-.2,0-.5.2-.7,0l-8.2-.9c-.4,0-.7-.2-.9-.6l-4.1-6.3-.3-.3-4.4-4.8c-.5-.5-.4-1.3,0-1.8l2.9-2.7c.6-.6.9-1.4.9-2.3l-.5-5c0-1.4-1.4-2.5-2.8-2.5l-5.5.2c-.4,0-.7,0-.9-.4s-.4-.6-.4-.9v-2.4c0-.9-.3-1.8-1-2.3l-12.3-9.4c-.9-.7-2.2-.8-3.2,0l-9.8,6.6s-.2.2-.4.3c-6.9,6.7-12.8,5.6-15.7,4.4-.8-.3-1.7-.3-2.4,0h0c-.9,1.2-1.5,2.5-1.9,3.9-2.4,9-8,13.1-10.5,14.6-.5.3-1.1.2-1.5-.2l-2.6-2.6c-.5-.5-1.3-.8-2-.8l-9,.2c-1.1,0-2.1.7-2.5,1.7l-2.8,7c-.3.8-.2,1.8.3,2.5l4.2,6.4c.2.3.2.6.2.9s-.3.6-.5.8l-5.1,3.3c-.5.3-1.1.3-1.5,0l-6.8-6.1c-.4-.4-1-.6-1.5-.7l-16.6-2.2c-.7,0-1.5,0-2.1.6s-1,1.1-1,1.9l-1,9.8c0,1.1.4,2.2,1.4,2.7l5,2.7c.4.2.6.6.6,1.1s-.2.9-.6,1.1l-2.2,1.3c-1,.6-1.5,1.8-1.2,3l.8,3.3c.2.7.6,1.3,1.3,1.7l14.4,8.5c.5.3,1,.4,1.5.4l9.4-.5c.4,0,.9.2,1.1.5l5.8,8.6c.2.3.3.7.2,1.1l-3.9,13c0,.3-.4.6-.7.8l-2.9,1.3c-1.1.5-1.7,1.6-1.6,2.7l.4,5.3c0,.7.4,1.4.9,1.8l3.2,2.9c.5.5.6,1.2,0,1.8l-10.9,12.3c-.4.5-1.1.6-1.6.2l-11.2-7.1c-.6-.4-1.4-.5-2.2-.3s-1.4.7-1.7,1.4l-7.8,14.8c-.2.3-.5.6-.9.6l-14.1,3c-1.5.3-2.4,1.8-2.1,3.3l1.6,7.5c.1.5-.1.9-.4,1.2l-5.2,4.4c-.7.6-1.1,1.5-1,2.5l1.1,8.6c.1,1.2,1.1,2.2,2.3,2.4l10,1.7c.7,0,1.1.7,1,1.4l-.4,3.2c-.1.5,0,1,.2,1.5l-10,4.8h-.7l-17.5-1.7c-.8,0-1.6.2-2.2.8l-6.6,6.6c-.3.3-.9.5-1.3.3l-8.3-3c-.4,0-.7-.4-.8-.8l-1.2-4.1c-.2-.9-.9-1.5-1.8-1.8s-1.8,0-2.5.4l-3.8,2.8c-.2.2-.5.2-.7.2h-6.7c-.5,0-.9-.2-1.1-.6l-2.1-3.9c-.4-.7-1-1.1-1.7-1.3s-1.5,0-2.1.3l-3.5,2c-.4.2-1,.2-1.4,0l-6.6-4.6c-.4-.2-.6-.7-.5-1.1l.6-10.7c0-.2.1-.4.1-.5l6.4-11.9c.6-1.2.3-2.6-.7-3.4l-13.8-11.2c-.4-.3-.5-.8-.4-1.2l1.8-9.2c.1-.7,0-1.5-.4-2.1l-9.7-14.4c-.5-.8-1.4-1.2-2.3-1.2h-3c-.6,0-1.2-.5-1.2-1.1l-1-9.1c-.1-.9-.6-1.7-1.4-2.1s-1.8-.4-2.6,0l-10.5,5.5c-.4.2-.9.2-1.2,0l-10.2-6.2c-.2,0-.3-.2-.4-.4l-5.5-9h0c-.5-.8-1.4-1.3-2.3-1.3h-11.2c-.4,0-.8-.2-1-.5l-8.4-12.3c-.3-.4-.3-.9-.1-1.3l5.1-10.1c.3-.7.4-1.4.2-2.1l-2.4-7.4c-.3-1-1.1-1.7-2.1-1.9l-8.1-1.4c-.6,0-1-.5-1-1.1l-1.7-16.1c-.1-.4.1-.8.5-1.1s.8-.3,1.2-.2l9.8,3.8c1.3.5,2.8,0,3.4-1.3l8.8-17c.4-.7.4-1.6.1-2.4-.3-.8-1-1.3-1.8-1.6l-13.9-4c-.4,0-.7-.4-.8-.7l-4.1-9.7c-.2-.4-.1-.9.2-1.3.3-.4.8-.5,1.2-.4l15.1,3.2h1.4l25.6-8.5c1.1-.4,1.9-1.4,1.9-2.6v-8.5c0-.4.2-.8.6-1l18-12c.4-.3,1-.3,1.4,0l5,3.7c.2,0,.4.2.5.3l4.9,2.1c.6.3,1.4,0,1.8-.4h0c.2-.2.4-.3.6-.4l13.5-5.9c.5-.2.8-.7.8-1.2l-.3-8c0-1.1.6-2.1,1.6-2.6,9.3-4.3,13.2-12.6,14.4-16,.4-1.1,1.5-1.8,2.6-1.8h10.7c.6,0,1.1-.5,1.2-1.1l1-9.7c.1-.8.6-1.5,1.2-2,.6-.4,1.4-.6,2.2-.4l21.4,5.3h27.5c.5,0,.9-.3,1.1-.7l8-15.2c.2-.3.2-.7,0-1l-13.6-35.5c-.7-1.8.2-3.8,2-4.5l3.4-1.3c.8-.3,1.7-.3,2.4,0v-.3h.1Z"></path>
<!-- sichtbare Fläche(n) -->
<path class="flaeche" d="M351.4,515.7l1.8.7c.9.3,2,.3,2.9-.2l6.1-3.3c.6-.3,1.2-.4,1.9-.4l5.1.3c1.3,0,2.6-.6,3.3-1.8l4.3-8c.2-.3.4-.6.7-.9l5-4.6c1-.9,1.3-2.3,1-3.6-.8-2.8-2.2-7.4-2.4-7.7s-3.7-4-5.5-5.8-1.5-1-2.4-1l-11.1-.3h-.9l-10.8,2.5c-1,.2-2,0-2.9-.6l-2.7-2c-1.6-1.2-1.9-3.5-.6-5.1l1.8-2.1c.8-1,1.1-2.3.6-3.5l-2.7-7.1c-.5-1.2-.2-2.5.6-3.5l5.3-6.1c.8-.9,2-1.3,3.2-1.1l5.7.9h.8c2.2,0,13-.8,13.6-.8s4.8-1.3,8.2-2.4,3.1-3.2,2-5.1l-2.4-4c-.5-.9-.6-1.9-.3-2.9l1.9-5.6c.4-1.2,1.3-2,2.5-2.3l8.8-2h.9l13.3.5h.7l10.3-1.8c1.2-.2,2.5.3,3.3,1.2l2.9,3.5c.3.4.7.7,1.2.9l7.4,3.5c.9.4,1.8.4,2.7,0l6.9-2.6c.6-.2,1.2-.3,1.8-.2l13.2,2.2c.7,0,1.4,0,2-.3l15.2-6.9c.6-.3,1.3-.4,2-.3l7.8,1.3c1.2.2,2.2,1,2.7,2.2l4.4,11.5c0,.3.2.6.2.9l1.9,16.6c0,1.3,1,2.4,2.2,2.8l10.8,4.2c.6.2,1.2.3,1.8.2l14.8-2.5,27.3-3.5h.3l12-.5h.4l10.1-1.6c.8,0,1.6,0,2.2.4l6.1,3.4c1.1.6,2.4.6,3.5,0l6.3-3.8c.9-.5,2-.7,3-.3l3.3,1.2c2.1.7,4.4-.7,4.6-2.9h0c0-1.1.8-2.1,1.7-2.6l3.3-1.9c.8-.5,1.7-.6,2.6-.4l4,1c.6.2,1.3,0,1.9,0l1.4-.5c1.1-.4,2.4,0,3.3.6l4.6,3.8c.3.7,1,1.1,1.8,1.3l4.7.8c.5,0,1,.6.9,1.2l-.5,6.1c0,.2,0,.3-.2.5l-10.7,17.7c-.5.8-.5,1.8,0,2.6l1.2,1.1c.2.2,0,.6-.2.7l-4.9.8c-.6,0-1.1.6-1.1,1.2l.2,16.9c0,.5,0,1-.4,1.5l-12.1,18.7c-.2.3-.2.5-.2.8l1.3,16.2c0,.9-.3,1.7-1,2.3l-6.4,5.5c-.2.2-.4.5-.4.8l-2.2,19.2c0,1.4-1.3,2.4-2.7,2.4h-8.3c-.3,0-.5,0-.7.2l-8.1,5.2c-.9.6-1.7,1.5-2.1,2.5l-.8,2.2c-.6,1.6-.4,3.4.6,4.8l4.7,6.9c.2.3.4.6.5.9l1.6,3.8c1,2.3.2,4.9-1.8,6.3l-.4.3c-1.7,1.2-2.6,3.4-2.1,5.4h0c.7,2.9-1.3,5.8-4.3,6.3l-5,.8c-.7,0-1.5.4-2.1.8l-6.3,4.2c-.9.6-1.8.9-2.9.9h-10.5c-.7,0-1.3,0-1.9.4l-4.8,1.9s-.3,0-.4.2l-.9.5,2,11.8v.8l-14.3,25.8c-.2.3-.4.5-.8.6h-1l-6.8-4.1c-.8-.5-1.8-.5-2.7,0s-1.4,1.3-1.5,2.3l-.3,6.7c0,.3-.2.7-.4.9l-8.6,7.2c-.5.4-1.2.4-1.7,0l-1.8-1.7c-.7-.6-1.6-.9-2.5-.7l-5.8,1.4c-1,.2-1.8,1.1-2,2.1l-1,4.5c0,.4-.3.7-.6.8l-2.8,1.5c-.2,0-.5.2-.7,0l-8.2-.9c-.4,0-.7-.2-.9-.6l-4.1-6.3-.3-.3-4.4-4.8c-.5-.5-.4-1.3,0-1.8l2.9-2.7c.6-.6.9-1.4.9-2.3l-.5-5c0-1.4-1.4-2.5-2.8-2.5l-5.5.2c-.4,0-.7,0-.9-.4s-.4-.6-.4-.9v-2.4c0-.9-.3-1.8-1-2.3l-12.3-9.4c-.9-.7-2.2-.8-3.2,0l-9.8,6.6s-.2.2-.4.3c-6.9,6.7-12.8,5.6-15.7,4.4-.8-.3-1.7-.3-2.4,0h0c-.9,1.2-1.5,2.5-1.9,3.9-2.4,9-8,13.1-10.5,14.6-.5.3-1.1.2-1.5-.2l-2.6-2.6c-.5-.5-1.3-.8-2-.8l-9,.2c-1.1,0-2.1.7-2.5,1.7l-2.8,7c-.3.8-.2,1.8.3,2.5l4.2,6.4c.2.3.2.6.2.9s-.3.6-.5.8l-5.1,3.3c-.5.3-1.1.3-1.5,0l-6.8-6.1c-.4-.4-1-.6-1.5-.7l-16.6-2.2c-.7,0-1.5,0-2.1.6s-1,1.1-1,1.9l-1,9.8c0,1.1.4,2.2,1.4,2.7l5,2.7c.4.2.6.6.6,1.1s-.2.9-.6,1.1l-2.2,1.3c-1,.6-1.5,1.8-1.2,3l.8,3.3c.2.7.6,1.3,1.3,1.7l14.4,8.5c.5.3,1,.4,1.5.4l9.4-.5c.4,0,.9.2,1.1.5l5.8,8.6c.2.3.3.7.2,1.1l-3.9,13c0,.3-.4.6-.7.8l-2.9,1.3c-1.1.5-1.7,1.6-1.6,2.7l.4,5.3c0,.7.4,1.4.9,1.8l3.2,2.9c.5.5.6,1.2,0,1.8l-10.9,12.3c-.4.5-1.1.6-1.6.2l-11.2-7.1c-.6-.4-1.4-.5-2.2-.3s-1.4.7-1.7,1.4l-7.8,14.8c-.2.3-.5.6-.9.6l-14.1,3c-1.5.3-2.4,1.8-2.1,3.3l1.6,7.5c.1.5-.1.9-.4,1.2l-5.2,4.4c-.7.6-1.1,1.5-1,2.5l1.1,8.6c.1,1.2,1.1,2.2,2.3,2.4l10,1.7c.7,0,1.1.7,1,1.4l-.4,3.2c-.1.5,0,1,.2,1.5l-10,4.8h-.7l-17.5-1.7c-.8,0-1.6.2-2.2.8l-6.6,6.6c-.3.3-.9.5-1.3.3l-8.3-3c-.4,0-.7-.4-.8-.8l-1.2-4.1c-.2-.9-.9-1.5-1.8-1.8s-1.8,0-2.5.4l-3.8,2.8c-.2.2-.5.2-.7.2h-6.7c-.5,0-.9-.2-1.1-.6l-2.1-3.9c-.4-.7-1-1.1-1.7-1.3s-1.5,0-2.1.3l-3.5,2c-.4.2-1,.2-1.4,0l-6.6-4.6c-.4-.2-.6-.7-.5-1.1l.6-10.7c0-.2.1-.4.1-.5l6.4-11.9c.6-1.2.3-2.6-.7-3.4l-13.8-11.2c-.4-.3-.5-.8-.4-1.2l1.8-9.2c.1-.7,0-1.5-.4-2.1l-9.7-14.4c-.5-.8-1.4-1.2-2.3-1.2h-3c-.6,0-1.2-.5-1.2-1.1l-1-9.1c-.1-.9-.6-1.7-1.4-2.1s-1.8-.4-2.6,0l-10.5,5.5c-.4.2-.9.2-1.2,0l-10.2-6.2c-.2,0-.3-.2-.4-.4l-5.5-9h0c-.5-.8-1.4-1.3-2.3-1.3h-11.2c-.4,0-.8-.2-1-.5l-8.4-12.3c-.3-.4-.3-.9-.1-1.3l5.1-10.1c.3-.7.4-1.4.2-2.1l-2.4-7.4c-.3-1-1.1-1.7-2.1-1.9l-8.1-1.4c-.6,0-1-.5-1-1.1l-1.7-16.1c-.1-.4.1-.8.5-1.1s.8-.3,1.2-.2l9.8,3.8c1.3.5,2.8,0,3.4-1.3l8.8-17c.4-.7.4-1.6.1-2.4-.3-.8-1-1.3-1.8-1.6l-13.9-4c-.4,0-.7-.4-.8-.7l-4.1-9.7c-.2-.4-.1-.9.2-1.3.3-.4.8-.5,1.2-.4l15.1,3.2h1.4l25.6-8.5c1.1-.4,1.9-1.4,1.9-2.6v-8.5c0-.4.2-.8.6-1l18-12c.4-.3,1-.3,1.4,0l5,3.7c.2,0,.4.2.5.3l4.9,2.1c.6.3,1.4,0,1.8-.4h0c.2-.2.4-.3.6-.4l13.5-5.9c.5-.2.8-.7.8-1.2l-.3-8c0-1.1.6-2.1,1.6-2.6,9.3-4.3,13.2-12.6,14.4-16,.4-1.1,1.5-1.8,2.6-1.8h10.7c.6,0,1.1-.5,1.2-1.1l1-9.7c.1-.8.6-1.5,1.2-2,.6-.4,1.4-.6,2.2-.4l21.4,5.3h27.5c.5,0,.9-.3,1.1-.7l8-15.2c.2-.3.2-.7,0-1l-13.6-35.5c-.7-1.8.2-3.8,2-4.5l3.4-1.3c.8-.3,1.7-.3,2.4,0v-.3h.1Z"></path>
</g>
<!-- Region: Zwickau -->
<g class="region" data-name="Chemnitz" data-url="https://www.visit-dresden-elbland.de/" id="chemnitz_stadt">
<path class="flaeche" d="M514.4,601.4l9,9.5c.3.4.8.6,1.3.8l12.6,3.3c.6.2,1,.7.9,1.3l-1.2,10.8v.8l2.1,12.2v.8l-14.3,25.8c-.2.3-.4.5-.8.6h-1l-6.8-4.1c-.8-.5-1.8-.5-2.7,0s-1.4,1.3-1.5,2.3l-.3,6.7c0,.3-.2.7-.4.9l-8.6,7.2c-.5.4-1.2.4-1.7,0l-1.8-1.7c-.7-.6-1.6-.9-2.5-.7l-5.8,1.4c-1,.2-1.8,1.1-2,2.1l-1,4.5c0,.4-.3.7-.6.8l-2.8,1.5c-.2,0-.5.2-.7,0l-8.2-.9c-.4,0-.7-.2-.9-.6l-4.1-6.3-.3-.3-4.4-4.8c-.5-.5-.4-1.3,0-1.8l2.9-2.7c.6-.6.9-1.4.9-2.3l-.5-5c0-1.4-1.4-2.5-2.8-2.5l-5.5.2c-.4,0-.7,0-.9-.4s-.4-.6-.4-.9v-2.4c0-.9-.3-1.8-1-2.3l-12.3-9.4c-.9-.7-2.2-.8-3.2,0l-9.8,6.6s-.2.2-.4.3c-6.9,6.7-12.8,5.6-15.7,4.4-.8-.3-1.7-.3-2.4,0h0l-1.5-10.8v-.6c-4-10.8-12.6-12.7-16-13-.6,0-1.1-.6-1.1-1.2v-3.9c0-.4.2-.8.5-1s.7-.3,1.1-.2l9.9,3c1,.3,2,0,2.7-.7l17-16.7c.5-.5.8-1.1.8-1.8l.8-13.4c0-.3.2-.7.5-.9l7.3-5.7c.7-.5,1-1.3,1-2.2v-5.3c0-.4.2-.8.6-1.1l14.6-9c.2,0,.4-.2.7-.2h11.8c.7,0,1.2.6,1.2,1.2v4.9c0,.9.5,1.8,1.2,2.3.8.5,1.7.6,2.5.3l4.3-1.7c.5-.2,1,0,1.3.2l3.6,3.4c.7.7,1.7.9,2.7.6l19-5.8h.9l9.9,5,2.7,8.8v.5l-.7,7.1c-.3.9,0,1.6.5,2.2h-.2Z"></path>
</g>
<!-- Region: Vogtland -->
<!-- Vogtland-Region (als klickbares DMO-Polygon) -->
<g class="region" data-name="Vogtland" data-url="https://www.vogtland-tourismus.de/de/" id="vogtland">
<!-- Klick-/Hover-Hitarea (breiter Stroke) -->
<path class="hit" d="M32.1,807.1l19.6-13.8c.6-.4,1-1.1,1.1-1.8l1.6-9.6c0-.3.2-.6.5-.8l5.5-4.4c.4-.3.9-.4,1.3-.2.4.2.7.6.7,1.1v4.6c0,.5,0,1,.4,1.4l9.3,15.8c.2.3.2.7,0,1.1l-7.1,19.4c-.3.8-.2,1.8.3,2.5l7.4,10.9c.5.8,1.4,1.2,2.3,1.2h16.3c1.3,0,2.4-.9,2.7-2.1l3.8-16c0-.5.6-.9,1.1-1l4.8-.5c.5,0,.9.2,1.2.6l5.1,8.2c.7,1.2,2.2,1.6,3.5,1l13.4-6.2c1-.5,1.6-1.5,1.6-2.6s-.7-2.1-1.8-2.5l-12.1-4.6c-.4-.2-.7-.5-.8-.9l-1.2-4.8c-.2-.6.2-1.2.7-1.4l12.9-5.8c1-.5,1.6-1.4,1.6-2.5v-12.6c0-.3,0-.7.4-.9s.6-.3.9-.3l7.9.5c.3,0,.6,0,.8.3l5.4,5.2c.8.8,1.9,1,3,.5s1.7-1.4,1.7-2.5v-3.1c0-.2,0-.3.1-.5l3.4-8c.1-.3.4-.6.7-.7h1l12.7,6.8c1.1.6,2.4.4,3.2-.5l3.8-3.8c.3-.3.7-.4,1.1-.3l6.5,1.5c.8.2,1.7,0,2.3-.5s1-1.3,1-2.1v-5.9c0-.3.1-.7.4-.9l15.1-13.8c.2-.2.5-.3.8-.3h4.1c1.5,0,2.8-1.2,2.8-2.8v-1.2
    M173.3,641.5c-.4,0-.9,0-1.2.4s-.4.9-.2,1.3l4.1,9.7c.1.3.4.6.8.7l13.9,4c.8.3,1.5.8,1.8,1.6s.3,1.7-.1,2.4l-8.8,17c-.6,1.3-2.1,1.8-3.4,1.3l-9.8-3.8c-.4,0-.8,0-1.2.2s-.6.7-.5,1.1l1.7,16.1c0,.6.4,1,1,1.1l8.1,1.4c1,.2,1.8.9,2.1,1.9l2.4,7.4c.2.7.1,1.4-.2,2.1l-5.1,10.1c-.2.4-.2.9.1,1.3l8.4,12.3c.2.3.6.5,1,.5h11.2c.9,0,1.8.5,2.3,1.3h0l5.2,8.5c.2.3.3.7.2,1.1h0c0,.7.2,1.3.8,1.7l8.7,5.3c.8.5,1.9.5,2.7,0l10.5-5.5c.4-.2.8-.2,1.2,0s.6.5.7,1l1,9.1c.1,1.4,1.3,2.5,2.7,2.5h3.1c.4,0,.8.2,1,.5l9.7,14.4c.2.3.2.6.2.9l-1.8,9.2c-.2,1,.2,2,1,2.7l13.8,11.2c.5.4.6,1,.3,1.6l-6.4,11.9c-.2.3-.3.8-.3,1.1l-.6,10.7c-.1,1,.4,1.9,1.2,2.4l6.6,4.6c.9.6,2,.7,3,0l3.5-2c.3-.2.6-.2,1,0,.3,0,.6.3.8.6l2.1,3.9c.5.9,1.4,1.4,2.4,1.4h6.7c.6,0,1.1-.2,1.6-.5l3.8-2.8c.3-.2.8-.3,1.1-.2s.7.4.8.8l1.2,4.1c.2.8.9,1.5,1.7,1.8l2.2.8c2.6.9,3.2,4.4.9,6.1h0c-.3.2-.6.5-.8.8-.8,1.2-3,4.4-3.5,4.5s-9,3-11.6,3.9-1,.5-1.4.9l-5.3,5.5c-.5.5-.8,1.2-.9,1.9-.4,3-1.6,11.2-1.3,11.9s4.7,5.3,6.6,7.2,1.1.9,1.8,1l4.6.9c1.5.3,2.7,1.6,2.8,3.2l.6,7.4v.5l1.5,6.3c0,.8.2,1.7.8,2.3l17.2,17c.2.2.4.3.6.5l19.4,10.7c.4.2.6.6.6,1.1v11.5h0l-10.4,2.7h-.1l-17,2.4c-.6,0-1.2.4-1.7.9l-13.2,14.9c-.7.8-.9,1.9-.5,2.9l3.9,9.4c.2.4.1.8-.1,1.2l-3.8,5.6c-.3.4-.7.6-1.2.5l-4.9-.5c-.5,0-1.1,0-1.6.3l-12.7,6.5c-.5.3-.9.7-1.2,1.2l-4.7,9.1c-.2.4-.6.7-1.1.7h-10.7c-.8,0-1.5.3-2.1.9s-.8,1.4-.7,2.1l1.5,13.8c0,.3,0,.6-.2.8l-4.1,6.2c-.2.2-.4.4-.7.5l-8.5,2.5c-.8.2-1.4.8-1.7,1.5l-5.2,11.4-4.1,8.8c-.4.8-.3,1.7.1,2.4l3.5,6.6c.2.4.2.9-.1,1.3l-1.4,2.2c-.3.5-.9.7-1.5.5l-5.9-2.1c-.9-.3-1.9-.2-2.6.4-.8.6-1.1,1.5-1,2.5l1.4,12.8c0,.3-.1.6-.2.9l-4.3,6c-.7,1-.7,2.3,0,3.2l6.4,8.7c.4.5.3,1.1-.1,1.6l-4.9,5.7c-.7.8-.9,1.9-.4,2.9l1.4,3.4c.2.4.1.9-.2,1.3s-.7.5-1.2.5l-15.2-2.3c-.4,0-.7-.3-.9-.7l-5.3-10c-.2-.4-.2-.9,0-1.2l4-6.4c.2-.4.4-.9.4-1.3l.3-7.9c0-.4-.1-.9-.3-1.3l-4-8.3c-.2-.5-.6-.8-1-1.1l-15.4-9.9c-.5-.3-.7-1.1-.4-1.6l2.2-4.1c.1-.2.4-.4.6-.6l5.8-2.5c.7-.3,1.3-.9,1.5-1.7s.1-1.6-.2-2.2l-3.3-5.6c-.7-1.1-2.1-1.6-3.3-1.2l-3.2,1.1h-.6l-18-2c-.6,0-1.1-.6-1.1-1.2l-1.7-22.6c-.1-.6-.3-1.2-.8-1.7l-5.6-5.9c-.5-.5-1.2-.9-2-.9h-23.4l-33.1-7h-.3l-36.6-17.6c-.4-.2-.7-.7-.7-1.2l.3-20.9c0-.4,0-.9-.3-1.3l-5.9-12.7c0-.2-.2-.4-.4-.6l-13.8-16.1c-.1,0-.1-.2-.2-.2l-13.9-12.6c-.3-.2-.4-.6-.4-.9s.1-.7.4-.9l8.6-8c.4-.3.9-.4,1.4-.2l7.5,3.3c1.1.5,2.3.2,3.1-.6s1-2.1.5-3.1l-3.6-7.2v-.7l.4-3.2c0-.6.6-1.1,1.2-1.1h5c1.4,0,2.5-1,2.7-2.4l1.2-9c0-.7,0-1.5-.6-2.1l-13.5-17c-.2-.2-.3-.5-.3-.8v-3.8c0-.9-.4-1.8-1.2-2.3l-2.1-1.5c-.6-.4-1.5-.6-2.2-.4-.8.2-1.4.7-1.8,1.4l-3.2,5.9c-.2.4-.6.7-1.1.7h-7.2c-.5,0-1-.3-1.2-.8l-6.6-17c-.2-.6,0-1.3.7-1.6l19.4-8.4c.4-.2.7-.4.9-.7l7.8-8.5c.7-.8.9-1.8.5-2.8l-3.3-8.8c-.1-.3-.2-.7-.2-1.1v-.7c0-.6,0-1.1.2-1.6s.1-.8,0-1.1l-1.2-7c-.1-.6-.5-1.2-1-1.5l-3.9-2.6c-.4-.2-.8-.4-1.2-.4h-8c-1,0-1.9-.9-2.2-1.9l-7.2-29.5c0-.4,0-.9,0-1.3l1.2-3.4c0-.3.2-.7,0-1l-1.8-16.4c0-.4,0-.7.1-1.1l3.7-9.2c0-.3.2-.6.2-.9l-.3-6.1c0-.6.2-1.1.5-1.6l6.1-7.4c.1,0,.2-.3.4-.4l8.4-6.5c.2,0,.4-.2.6-.3l6-2.3c.7-.3,1.3-.9,1.4-1.6l3-13.1c.3-1.2-.5-2.4-1.7-2.7l-15-3.7c-.2,0-.4,0-.6-.2-1.9-1.1-13.3-7.5-13-7.9s3.7-2.9,5.3-4,1-.5,1.6-.4l7.1.7c1.1,0,2.1-.6,2.4-1.7l.7-2.5c0-.3.1-.7,0-1.1l-1-4.7c-.2-.7,0-1.5.6-2l2.4-2.5c.8-.8.8-2,.2-2.9l-3.3-4.7c-.5-.7-.6-1.7,0-2.5h0c.6-1.2,2-1.6,3.1-1s2.8,1.5,3,1.2c.2-.4,1.9-8.3,1.9-8.6s-1.4-5.5-2.1-8.1,0-1.7.7-2.3h0c1.4-1.3.7-3.6-1.2-3.9l-12.1-2c-1.1-.2-1.9-1.2-1.9-2.3v-3.2c0-.5.3-1,.6-1.4l7.1-8.5c.1-.2.3-.3.4-.4l11.6-8.1c.3-.2.7-.4,1-.4l6.9-.9c.4,0,.8-.2,1.1-.5,1.9-1.5,8.5-6.7,8.6-7.4s.4-4.8.5-6.3,0-.8-.3-1.2l-1.3-2.5c-.9-1.8.7-3.8,2.6-3.3l11.7,3.3h.3l11,4.7c1.4.6,1.8,2.4.9,3.6l-5.3,6.3c-.2.2-.3.4-.4.7l-12.8,36.4c0,.3-.2.7,0,1l2.6,22.2c0,.9.8,1.7,1.6,1.9l21.6,6.1c.7.2,1.4,0,1.9-.3l3.1-2.1c.5-.4,1.2-.5,1.8-.3l6.6,1.5c.8.2,1.4.7,1.6,1.4l3.6,9.8c.2.5.6,1,1.1,1.3l12.2,6.2c.5.3,1.1.3,1.7.2l.9-.3c1.4-.4,2.1-2.1,1.3-3.4l-2.4-3.9c-.3-.4-.4-1-.3-1.5l2.5-19.8v-1l-3-9c-.2-.7,0-1.5.3-2.1l7.4-10.3c.4-.5.5-1.1.4-1.7l-1.9-11.7c0-.4-.3-.8-.6-1.2-1.3-1.5-5.2-5.7-5.2-6.2s4.3-9.2,5.5-11.7.5-.8,1-1l6.4-3.4c.8-.4,1.3-1.3,1.2-2.2l-.9-13.9c0-.3,0-.6,0-.9l2.9-8.7c.4-1.3,1.9-1.9,3.1-1.4l6.6,2.9c.6.3,1,.7,1.2,1.3l5.5,15.7c.2.6.6,1,1.1,1.3l7.2,3.6c.5.3.9.7,1.1,1.3l3.1,9.6c.1.4.2.9,0,1.3l-1.7,6c0,.3-.3.7-.5.9l-5.5,6.1s-.2.2-.3.3l-6.6,5c-.6.4-.9,1.1-.9,1.8v6.6c-.1.7.2,1.4.7,1.8l5.9,4.7s.2,0,.3.2l5.2,2.9c.6.3,1.3.4,1.9,0l5.1-1.8c.5-.2,1-.2,1.5,0l5.7,2h2.2c.5,0,.9-.2,1.3-.4"></path>
<!-- sichtbare Geometrie (wie geliefert; Linien + Pfade) -->
<g aria-hidden="false">
<line class="grenze" x1="27.6" x2="29.6" y1="810.3" y2="808.8"></line>
<path class="grenze" d="M32.1,807.1l19.6-13.8c.6-.4,1-1.1,1.1-1.8l1.6-9.6c0-.3.2-.6.5-.8l5.5-4.4c.4-.3.9-.4,1.3-.2.4.2.7.6.7,1.1v4.6c0,.5,0,1,.4,1.4l9.3,15.8c.2.3.2.7,0,1.1l-7.1,19.4c-.3.8-.2,1.8.3,2.5l7.4,10.9c.5.8,1.4,1.2,2.3,1.2h16.3c1.3,0,2.4-.9,2.7-2.1l3.8-16c0-.5.6-.9,1.1-1l4.8-.5c.5,0,.9.2,1.2.6l5.1,8.2c.7,1.2,2.2,1.6,3.5,1l13.4-6.2c1-.5,1.6-1.5,1.6-2.6s-.7-2.1-1.8-2.5l-12.1-4.6c-.4-.2-.7-.5-.8-.9l-1.2-4.8c-.2-.6.2-1.2.7-1.4l12.9-5.8c1-.5,1.6-1.4,1.6-2.5v-12.6c0-.3,0-.7.4-.9s.6-.3.9-.3l7.9.5c.3,0,.6,0,.8.3l5.4,5.2c.8.8,1.9,1,3,.5s1.7-1.4,1.7-2.5v-3.1c0-.2,0-.3.1-.5l3.4-8c.1-.3.4-.6.7-.7h1l12.7,6.8c1.1.6,2.4.4,3.2-.5l3.8-3.8c.3-.3.7-.4,1.1-.3l6.5,1.5c.8.2,1.7,0,2.3-.5s1-1.3,1-2.1v-5.9c0-.3.1-.7.4-.9l15.1-13.8c.2-.2.5-.3.8-.3h4.1c1.5,0,2.8-1.2,2.8-2.8v-1.2" fill="none"></path>
<line class="flaeche" x1="207" x2="207" y1="746.1" y2="743.6"></line>
</g>
<path class="flaeche" d="M173.3,641.5c-.4,0-.9,0-1.2.4s-.4.9-.2,1.3l4.1,9.7c.1.3.4.6.8.7l13.9,4c.8.3,1.5.8,1.8,1.6s.3,1.7-.1,2.4l-8.8,17c-.6,1.3-2.1,1.8-3.4,1.3l-9.8-3.8c-.4,0-.8,0-1.2.2s-.6.7-.5,1.1l1.7,16.1c0,.6.4,1,1,1.1l8.1,1.4c1,.2,1.8.9,2.1,1.9l2.4,7.4c.2.7.1,1.4-.2,2.1l-5.1,10.1c-.2.4-.2.9.1,1.3l8.4,12.3c.2.3.6.5,1,.5h11.2c.9,0,1.8.5,2.3,1.3h0l5.2,8.5c.2.3.3.7.2,1.1h0c0,.7.2,1.3.8,1.7l8.7,5.3c.8.5,1.9.5,2.7,0l10.5-5.5c.4-.2.8-.2,1.2,0s.6.5.7,1l1,9.1c.1,1.4,1.3,2.5,2.7,2.5h3.1c.4,0,.8.2,1,.5l9.7,14.4c.2.3.2.6.2.9l-1.8,9.2c-.2,1,.2,2,1,2.7l13.8,11.2c.5.4.6,1,.3,1.6l-6.4,11.9c-.2.3-.3.8-.3,1.1l-.6,10.7c-.1,1,.4,1.9,1.2,2.4l6.6,4.6c.9.6,2,.7,3,0l3.5-2c.3-.2.6-.2,1,0,.3,0,.6.3.8.6l2.1,3.9c.5.9,1.4,1.4,2.4,1.4h6.7c.6,0,1.1-.2,1.6-.5l3.8-2.8c.3-.2.8-.3,1.1-.2s.7.4.8.8l1.2,4.1c.2.8.9,1.5,1.7,1.8l2.2.8c2.6.9,3.2,4.4.9,6.1h0c-.3.2-.6.5-.8.8-.8,1.2-3,4.4-3.5,4.5s-9,3-11.6,3.9-1,.5-1.4.9l-5.3,5.5c-.5.5-.8,1.2-.9,1.9-.4,3-1.6,11.2-1.3,11.9s4.7,5.3,6.6,7.2,1.1.9,1.8,1l4.6.9c1.5.3,2.7,1.6,2.8,3.2l.6,7.4v.5l1.5,6.3c0,.8.2,1.7.8,2.3l17.2,17c.2.2.4.3.6.5l19.4,10.7c.4.2.6.6.6,1.1v11.5h0l-10.4,2.7h-.1l-17,2.4c-.6,0-1.2.4-1.7.9l-13.2,14.9c-.7.8-.9,1.9-.5,2.9l3.9,9.4c.2.4.1.8-.1,1.2l-3.8,5.6c-.3.4-.7.6-1.2.5l-4.9-.5c-.5,0-1.1,0-1.6.3l-12.7,6.5c-.5.3-.9.7-1.2,1.2l-4.7,9.1c-.2.4-.6.7-1.1.7h-10.7c-.8,0-1.5.3-2.1.9s-.8,1.4-.7,2.1l1.5,13.8c0,.3,0,.6-.2.8l-4.1,6.2c-.2.2-.4.4-.7.5l-8.5,2.5c-.8.2-1.4.8-1.7,1.5l-5.2,11.4-4.1,8.8c-.4.8-.3,1.7.1,2.4l3.5,6.6c.2.4.2.9-.1,1.3l-1.4,2.2c-.3.5-.9.7-1.5.5l-5.9-2.1c-.9-.3-1.9-.2-2.6.4-.8.6-1.1,1.5-1,2.5l1.4,12.8c0,.3-.1.6-.2.9l-4.3,6c-.7,1-.7,2.3,0,3.2l6.4,8.7c.4.5.3,1.1-.1,1.6l-4.9,5.7c-.7.8-.9,1.9-.4,2.9l1.4,3.4c.2.4.1.9-.2,1.3s-.7.5-1.2.5l-15.2-2.3c-.4,0-.7-.3-.9-.7l-5.3-10c-.2-.4-.2-.9,0-1.2l4-6.4c.2-.4.4-.9.4-1.3l.3-7.9c0-.4-.1-.9-.3-1.3l-4-8.3c-.2-.5-.6-.8-1-1.1l-15.4-9.9c-.5-.3-.7-1.1-.4-1.6l2.2-4.1c.1-.2.4-.4.6-.6l5.8-2.5c.7-.3,1.3-.9,1.5-1.7s.1-1.6-.2-2.2l-3.3-5.6c-.7-1.1-2.1-1.6-3.3-1.2l-3.2,1.1h-.6l-18-2c-.6,0-1.1-.6-1.1-1.2l-1.7-22.6c-.1-.6-.3-1.2-.8-1.7l-5.6-5.9c-.5-.5-1.2-.9-2-.9h-23.4l-33.1-7h-.3l-36.6-17.6c-.4-.2-.7-.7-.7-1.2l.3-20.9c0-.4,0-.9-.3-1.3l-5.9-12.7c0-.2-.2-.4-.4-.6l-13.8-16.1c-.1,0-.1-.2-.2-.2l-13.9-12.6c-.3-.2-.4-.6-.4-.9s.1-.7.4-.9l8.6-8c.4-.3.9-.4,1.4-.2l7.5,3.3c1.1.5,2.3.2,3.1-.6s1-2.1.5-3.1l-3.6-7.2v-.7l.4-3.2c0-.6.6-1.1,1.2-1.1h5c1.4,0,2.5-1,2.7-2.4l1.2-9c0-.7,0-1.5-.6-2.1l-13.5-17c-.2-.2-.3-.5-.3-.8v-3.8c0-.9-.4-1.8-1.2-2.3l-2.1-1.5c-.6-.4-1.5-.6-2.2-.4-.8.2-1.4.7-1.8,1.4l-3.2,5.9c-.2.4-.6.7-1.1.7h-7.2c-.5,0-1-.3-1.2-.8l-6.6-17c-.2-.6,0-1.3.7-1.6l19.4-8.4c.4-.2.7-.4.9-.7l7.8-8.5c.7-.8.9-1.8.5-2.8l-3.3-8.8c-.1-.3-.2-.7-.2-1.1v-.7c0-.6,0-1.1.2-1.6s.1-.8,0-1.1l-1.2-7c-.1-.6-.5-1.2-1-1.5l-3.9-2.6c-.4-.2-.8-.4-1.2-.4h-8c-1,0-1.9-.9-2.2-1.9l-7.2-29.5c0-.4,0-.9,0-1.3l1.2-3.4c0-.3.2-.7,0-1l-1.8-16.4c0-.4,0-.7.1-1.1l3.7-9.2c0-.3.2-.6.2-.9l-.3-6.1c0-.6.2-1.1.5-1.6l6.1-7.4c.1,0,.2-.3.4-.4l8.4-6.5c.2,0,.4-.2.6-.3l6-2.3c.7-.3,1.3-.9,1.4-1.6l3-13.1c.3-1.2-.5-2.4-1.7-2.7l-15-3.7c-.2,0-.4,0-.6-.2-1.9-1.1-13.3-7.5-13-7.9s3.7-2.9,5.3-4,1-.5,1.6-.4l7.1.7c1.1,0,2.1-.6,2.4-1.7l.7-2.5c0-.3.1-.7,0-1.1l-1-4.7c-.2-.7,0-1.5.6-2l2.4-2.5c.8-.8.8-2,.2-2.9l-3.3-4.7c-.5-.7-.6-1.7,0-2.5h0c.6-1.2,2-1.6,3.1-1s2.8,1.5,3,1.2c.2-.4,1.9-8.3,1.9-8.6s-1.4-5.5-2.1-8.1,0-1.7.7-2.3h0c1.4-1.3.7-3.6-1.2-3.9l-12.1-2c-1.1-.2-1.9-1.2-1.9-2.3v-3.2c0-.5.3-1,.6-1.4l7.1-8.5c.1-.2.3-.3.4-.4l11.6-8.1c.3-.2.7-.4,1-.4l6.9-.9c.4,0,.8-.2,1.1-.5,1.9-1.5,8.5-6.7,8.6-7.4s.4-4.8.5-6.3,0-.8-.3-1.2l-1.3-2.5c-.9-1.8.7-3.8,2.6-3.3l11.7,3.3h.3l11,4.7c1.4.6,1.8,2.4.9,3.6l-5.3,6.3c-.2.2-.3.4-.4.7l-12.8,36.4c0,.3-.2.7,0,1l2.6,22.2c0,.9.8,1.7,1.6,1.9l21.6,6.1c.7.2,1.4,0,1.9-.3l3.1-2.1c.5-.4,1.2-.5,1.8-.3l6.6,1.5c.8.2,1.4.7,1.6,1.4l3.6,9.8c.2.5.6,1,1.1,1.3l12.2,6.2c.5.3,1.1.3,1.7.2l.9-.3c1.4-.4,2.1-2.1,1.3-3.4l-2.4-3.9c-.3-.4-.4-1-.3-1.5l2.5-19.8v-1l-3-9c-.2-.7,0-1.5.3-2.1l7.4-10.3c.4-.5.5-1.1.4-1.7l-1.9-11.7c0-.4-.3-.8-.6-1.2-1.3-1.5-5.2-5.7-5.2-6.2s4.3-9.2,5.5-11.7.5-.8,1-1l6.4-3.4c.8-.4,1.3-1.3,1.2-2.2l-.9-13.9c0-.3,0-.6,0-.9l2.9-8.7c.4-1.3,1.9-1.9,3.1-1.4l6.6,2.9c.6.3,1,.7,1.2,1.3l5.5,15.7c.2.6.6,1,1.1,1.3l7.2,3.6c.5.3.9.7,1.1,1.3l3.1,9.6c.1.4.2.9,0,1.3l-1.7,6c0,.3-.3.7-.5.9l-5.5,6.1s-.2.2-.3.3l-6.6,5c-.6.4-.9,1.1-.9,1.8v6.6c-.1.7.2,1.4.7,1.8l5.9,4.7s.2,0,.3.2l5.2,2.9c.6.3,1.3.4,1.9,0l5.1-1.8c.5-.2,1-.2,1.5,0l5.7,2h2.2c.5,0,.9-.2,1.3-.4"></path>
</g>
<!-- Region: Dresden -->
<!-- Dresden-Region (als klickbares DMO-Polygon) -->
<g class="region" data-name="Dresden Elbland" data-url="https://www.visit-dresden-elbland.de/" id="dresden">
<!-- Klick-/Hover-Hitarea (breiter Stroke) -->
<path class="hit" d="M872.8,371.3c-.8-.1-1.6.2-2.1.7s-.9,1.3-.9,2v3.3c0,.6-.4,1.1-1,1.2l-8.5,1.5c-.9.2-1.7.8-2.1,1.7l-4.8,12.3c0,.4-.4.6-.8.7l-15.1,4.9c-1.1.4-1.9,1.4-1.9,2.5l-.5,15.6c0,.5-.4,1-.9,1.2l-20.9,6.3h-1l-9-5.6c-1.1-.7-2.5-.5-3.4.4l-3.6,3.8c-.2.2-.6.4-.9.4h-5.1c-.9,0-1.8.5-2.3,1.2s-.6,1.7-.3,2.6l1.6,3.9c.2.4,0,.8,0,1.1l-7.1,12.4c-.2.4-.4.9-.4,1.4v8.9c0,.5.2,1.1.5,1.5l8.3,12.4c.5.7,1.3,1.2,2.1,1.2l16.2,1c.6,0,1.2,0,1.7-.4l6.5-4.2c.3-.2.7-.2,1-.2l3.3.9c.4,0,.8.4.9.9l1.2,4v.9l-.9,1.9c-.4.9-.3,2,.3,2.8l8.5,11.8c.7,1,2.1,1.4,3.2,1l12.6-4.9c.4-.2.9,0,1.2.2l6.7,5.1c.5.4,1.1.6,1.7.6h7.8c.5,0,.9.3,1.1.7l3.7,7.5c.5.9,1.4,1.5,2.5,1.5h3.1c.5,0,1,.3,1.2.8l1.9,4.6-7.7,11.7c-.7,1.1-.6,2.6.4,3.5l12.9,12.1c.2.2.4.5.4.9s0,.7-.3.9l-4.2,4.4c-.3.3-.7.4-1.1.4l-3-.5c-.8,0-1.6,0-2.2.6-.6.5-1,1.3-1,2.1v5.6l-5.8,2.4h-.9l-15.3-8.5c-1.1-.6-2.5-.3-3.3.7l-2.5,3.3c-.3.5-1,.6-1.4.3l-2-1.2c-1.1-.7-2.7-.4-3.4.7l-4,5.4s-.2.3-.4.3c-4,2-6.8,2.2-8.1,2.1-.4,0-.8-.3-.9-.7l-6.8-16.3c-.2-.6-.7-1-1.2-1.3l-11.3-5.8c-.7-.3-1.5-.4-2.2,0-.7.3-1.2.8-1.5,1.5-1.6,4.7-5.3,16.5-3.8,24.8,1.4,7.8,1.1,10.7.9,11.5,0,0,0,.2-.2.4l-13.2,17.4c-.4.5-.6,1.2-.5,1.8l1.7,16.5c0,.4,0,.7-.4,1l-4.8,4c-.3.2-.7.3-1,.2l-5.3-1.6c-.8-.2-1.6,0-2.2.3l-15.6,10.3c-.5.3-1.2.2-1.5-.3l-6.8-9.8c-.2-.3-.3-.8,0-1.2l3.2-5.3c.4-.7.5-1.5.2-2.2l-8.9-24.5c-.2-.7-.8-1.2-1.4-1.5l-14.9-6.3c-.4-.2-.7-.6-.7-1v-11.8c0-.6-.2-1.2-.7-1.7l-4.5-5.1c-.2-.3-.3-.7-.2-1l2.1-7.5c.2-.8,0-1.6-.4-2.3s-1.2-1-2.1-1h-6.1c-.4,0-.7-.2-.9-.5s-.2-.7,0-1l5.6-12.2c0-.2.2-.3.3-.4l11-9.1c.8-.7,1.2-1.8.8-2.9-.4-1-1.3-1.7-2.4-1.7h-11.4c-.4,0-.7-.2-.9-.5-1.2-2.1-4-7.5-4-12.9,0-7.9,5.4-13.4,8.6-16,.7-.5,1-1.4.9-2.2,0-.9-.6-1.6-1.3-2l-11.9-6.7h0l-14.6-11.5c-.5-.4-1.2-.6-1.8-.5l-17.5,1.7c-.7,0-1.3.4-1.7.9l-8,9.3c-.2.2-.4.3-.7.4l-19.6,2.5c-.5,0-1,.3-1.3.6l-17.3,14.5c-.2.2-.4.2-.7.2h-.5c-.4,0-.8-.2-1-.5-.2-.4-.2-.8,0-1.1l10.7-17.7c.2-.3.3-.7.4-1.1l.5-6.1c0-1.3-.8-2.6-2.1-2.8l-4.7-.8c-.3,0-.6-.2-.8-.5s-.2-.6,0-.9l1.9-4.7c0-.3.3-.5.6-.6l2.9-1.3c1.1-.5,1.7-1.6,1.5-2.8l-5-28.4c0-.8-.6-1.4-1.3-1.8s-1.5-.4-2.2-.2l-4.9,1.9h-1c-.3,0-.5-.6-.4-.9v-2.4c0-.4.4-.8.7-.9l8.2-4c.8-.4,1.3-1.1,1.4-1.9l2.7-15.4v-1.2l-4.5-14.9c-.2-.6-.6-1.1-1.1-1.5l-15-9.2c-.3-.2-.5-.5-.5-.8l-2-15.7c0-.5-.3-1-.6-1.4l-5.7-6.6c-.3-.4-.3-1,0-1.4l3.2-3.7c.5-.6.7-1.4.6-2.1l-4.7-26c0-.3,0-.6.2-.9s.5-.4.8-.4h2.9c1.1,0,2-.6,2.4-1.6l2.7-6.5c.2-.5.2-1.1,0-1.6l-3.7-14.2c0-.3,0-.7.2-.9s.5-.4.9-.4c.9,0,1.7-.4,2.2-1.2s.5-1.7.2-2.5l-6.1-13.7v-.6l2.5-17.6c2.4-9-4.2-14.3-7.1-16.2-.2-.2-.4-.4-.5-.7,0-.3,0-.6.2-.9l2.9-3.5c.8-.9.8-2.3,0-3.2l-6.4-8.2c-.3-.4-.3-.9,0-1.3l8.4-12.4c.2-.3.5-.5.9-.5.3-.2.6,0,.8.3h0l2.3,3.9c.3.5.8.9,1.3,1.1l18.8,6.9c.9.3,1.8.2,2.5-.4s1.1-1.5.9-2.4l-1.1-7.5c0-.4,0-.7.3-.9s.6-.4.9-.3l6.5,1.1c.7.1,1.4,0,1.9-.4.6-.4.9-1,1-1.7l1.4-8.8c0-.4.3-.6.6-.8l27.5-13.2c.4-.2.8-.1,1.2.1l6.7,5.3c.6.5,1.4.7,2.1.5s1.4-.6,1.8-1.3l8-14.8c.2-.3.4-.5.8-.6.3-.1.6,0,.9.2,7.3,5.8,9.5,12,10,14.4.3,1.2,1.3,2,2.5,2h11.9c.6,0,1.1.5,1.1,1.1v4.6c0,1.1.7,2.1,1.8,2.5l25.3,8.1c.5.1.8.6.8,1v10.6c0,.9.5,1.8,1.3,2.2l11.7,6.8c1,.6,2.2.4,3-.3l9.1-8.1c.2-.2.5-.3.8-.3s.6.2.8.4l8.4,10.2c.5.6,1.2.9,2,.9h.4c11.7,0,33.2-4.6,35.7-5.1h.4l31.1,6.5c.2,0,.4.1.5.3l5.2,5.2c.9.9,2.4,1,3.4.2l16.1-12c.2-.1.4-.2.7-.2h11.6l7.2,12.1c.2.3.2.7,0,1.1l-7.6,21.8c0,.3,0,.6-.2.8l-.3,11.9c0,.3,0,.6-.3.8l-4.5,4.7c-.8.9-1,2.2-.4,3.2l4.7,8.7c.2.4.2.9,0,1.3l-11.2,18.6c-.3.4-.4.9-.4,1.4v39.4h0c-.2.8-.6,1.4-1.2,1.9l-1.3,1c-1.9,1.6-2.3,4.3-.9,6.4h0c1.6,2.3.9,5.4-1.5,6.8l-3.3,1.9c-1.1.6-1.8,1.6-2.2,2.8l-.5,1.7c-.7,2.2.4,4.6,2.5,5.6l5.1,2.5.7.4-.5-.2v-.2Z
    M824.9,472l-1.2-4c-.3-.9-1-1.7-2-1.9l-3.3-.9c-.7-.2-1.5,0-2.2.4l-6.5,4.2c-.2,0-.5.2-.8.2l-16.2-1c-.4,0-.7-.2-1-.5l-8.3-12.4c0-.2-.2-.5-.2-.7v-8.9c0-.2,0-.4.2-.6l7.1-12.4c.4-.7.5-1.6.2-2.4l-1.6-3.9c-.2-.4,0-.8,0-1.2s.6-.5,1-.5h5.1c.8,0,1.5-.3,2-.9l3.6-3.8c.4-.4,1.1-.5,1.6-.2l9,5.6c.7.4,1.5.5,2.2.3l20.9-6.3c1.1-.3,1.9-1.4,2-2.5l.5-15.6c0-.5.4-1,.9-1.1l15.1-4.9c.8-.2,1.4-.8,1.7-1.6l4.8-12.3c.2-.4.5-.7,1-.8l8.5-1.5c1.3-.2,2.3-1.4,2.3-2.7v-3.3c0-.4.2-.7.4-.9s.6-.4,1-.3l17.3,2,21.1,1.6c.4,0,.7.2.9.5l4.1,5.6c.2.3.3.6.2,1,0,.3-.3.6-.5.8l-5.5,3.6c-.8.5-1.2,1.4-1.2,2.3,0,1.6.3,4.8,2,7.1.5.7,1.5,1.2,2.4,1.1h1.9c.5-.1.9.1,1.2.5l9.1,15.9s5.8,10.9.2,15.2l-5.7,4.6c-.8.7-1.2,1.7-.9,2.8s1,1.8,2.1,2l9.6,2.1c.2,0,.4.2.6.3l3.5,3.3c.5.5,1.2.7,1.9.7h7c1.2,0,2.2-.7,2.6-1.8l1.4-3.9c0-.4.4-.7.8-.8s.8,0,1.1.2l5.9,4.4-2.5,6.9c0,.3-.2.6-.2.9l-.3,13.6c0,.4-.2.8-.5,1l-5.6,4c-.5.3-.8.8-1,1.4l-1.3,4c-.2.5-.7.9-1.2.9l-8.9-.2c-1.5,0-2.7,1.1-2.8,2.6l-.5,9.3c0,.3,0,.6-.3.8l-11.5,11.8c-.2.3-.6.4-1,.4s-.7-.2-.9-.5l-3.7-4.9c-.9-1.2-2.6-1.4-3.8-.5l-16.3,12.2c-.3.2-.7.3-1,.2l-11-2.5c-.7-.2-1.4,0-2,.3l-1.6-4c-.4-1-1.4-1.7-2.5-1.7h-3.8c-.5,0-.9-.3-1.1-.7l-3.7-7.5c-.5-1-1.4-1.5-2.5-1.5h-7.8c-.3,0-.5,0-.8-.2l-6.7-5.1c-.8-.6-1.8-.7-2.7-.4l-12.6,4.9c-.5.2-1.1,0-1.5-.4l-8.5-11.8c-.3-.4-.3-.9,0-1.2l.9-1.9c.4-.6.5-1.3.3-2h0Z"></path>
<!-- sichtbare Flächen (deine Originalklassen bleiben) -->
<path class="st1 flaeche" d="M872.8,371.3c-.8-.1-1.6.2-2.1.7s-.9,1.3-.9,2v3.3c0,.6-.4,1.1-1,1.2l-8.5,1.5c-.9.2-1.7.8-2.1,1.7l-4.8,12.3c0,.4-.4.6-.8.7l-15.1,4.9c-1.1.4-1.9,1.4-1.9,2.5l-.5,15.6c0,.5-.4,1-.9,1.2l-20.9,6.3h-1l-9-5.6c-1.1-.7-2.5-.5-3.4.4l-3.6,3.8c-.2.2-.6.4-.9.4h-5.1c-.9,0-1.8.5-2.3,1.2s-.6,1.7-.3,2.6l1.6,3.9c.2.4,0,.8,0,1.1l-7.1,12.4c-.2.4-.4.9-.4,1.4v8.9c0,.5.2,1.1.5,1.5l8.3,12.4c.5.7,1.3,1.2,2.1,1.2l16.2,1c.6,0,1.2,0,1.7-.4l6.5-4.2c.3-.2.7-.2,1-.2l3.3.9c.4,0,.8.4.9.9l1.2,4v.9l-.9,1.9c-.4.9-.3,2,.3,2.8l8.5,11.8c.7,1,2.1,1.4,3.2,1l12.6-4.9c.4-.2.9,0,1.2.2l6.7,5.1c.5.4,1.1.6,1.7.6h7.8c.5,0,.9.3,1.1.7l3.7,7.5c.5.9,1.4,1.5,2.5,1.5h3.1c.5,0,1,.3,1.2.8l1.9,4.6-7.7,11.7c-.7,1.1-.6,2.6.4,3.5l12.9,12.1c.2.2.4.5.4.9s0,.7-.3.9l-4.2,4.4c-.3.3-.7.4-1.1.4l-3-.5c-.8,0-1.6,0-2.2.6-.6.5-1,1.3-1,2.1v5.6l-5.8,2.4h-.9l-15.3-8.5c-1.1-.6-2.5-.3-3.3.7l-2.5,3.3c-.3.5-1,.6-1.4.3l-2-1.2c-1.1-.7-2.7-.4-3.4.7l-4,5.4s-.2.3-.4.3c-4,2-6.8,2.2-8.1,2.1-.4,0-.8-.3-.9-.7l-6.8-16.3c-.2-.6-.7-1-1.2-1.3l-11.3-5.8c-.7-.3-1.5-.4-2.2,0-.7.3-1.2.8-1.5,1.5-1.6,4.7-5.3,16.5-3.8,24.8,1.4,7.8,1.1,10.7.9,11.5,0,0,0,.2-.2.4l-13.2,17.4c-.4.5-.6,1.2-.5,1.8l1.7,16.5c0,.4,0,.7-.4,1l-4.8,4c-.3.2-.7.3-1,.2l-5.3-1.6c-.8-.2-1.6,0-2.2.3l-15.6,10.3c-.5.3-1.2.2-1.5-.3l-6.8-9.8c-.2-.3-.3-.8,0-1.2l3.2-5.3c.4-.7.5-1.5.2-2.2l-8.9-24.5c-.2-.7-.8-1.2-1.4-1.5l-14.9-6.3c-.4-.2-.7-.6-.7-1v-11.8c0-.6-.2-1.2-.7-1.7l-4.5-5.1c-.2-.3-.3-.7-.2-1l2.1-7.5c.2-.8,0-1.6-.4-2.3s-1.2-1-2.1-1h-6.1c-.4,0-.7-.2-.9-.5s-.2-.7,0-1l5.6-12.2c0-.2.2-.3.3-.4l11-9.1c.8-.7,1.2-1.8.8-2.9-.4-1-1.3-1.7-2.4-1.7h-11.4c-.4,0-.7-.2-.9-.5-1.2-2.1-4-7.5-4-12.9,0-7.9,5.4-13.4,8.6-16,.7-.5,1-1.4.9-2.2,0-.9-.6-1.6-1.3-2l-11.9-6.7h0l-14.6-11.5c-.5-.4-1.2-.6-1.8-.5l-17.5,1.7c-.7,0-1.3.4-1.7.9l-8,9.3c-.2.2-.4.3-.7.4l-19.6,2.5c-.5,0-1,.3-1.3.6l-17.3,14.5c-.2.2-.4.2-.7.2h-.5c-.4,0-.8-.2-1-.5-.2-.4-.2-.8,0-1.1l10.7-17.7c.2-.3.3-.7.4-1.1l.5-6.1c0-1.3-.8-2.6-2.1-2.8l-4.7-.8c-.3,0-.6-.2-.8-.5s-.2-.6,0-.9l1.9-4.7c0-.3.3-.5.6-.6l2.9-1.3c1.1-.5,1.7-1.6,1.5-2.8l-5-28.4c0-.8-.6-1.4-1.3-1.8s-1.5-.4-2.2-.2l-4.9,1.9h-1c-.3,0-.5-.6-.4-.9v-2.4c0-.4.4-.8.7-.9l8.2-4c.8-.4,1.3-1.1,1.4-1.9l2.7-15.4v-1.2l-4.5-14.9c-.2-.6-.6-1.1-1.1-1.5l-15-9.2c-.3-.2-.5-.5-.5-.8l-2-15.7c0-.5-.3-1-.6-1.4l-5.7-6.6c-.3-.4-.3-1,0-1.4l3.2-3.7c.5-.6.7-1.4.6-2.1l-4.7-26c0-.3,0-.6.2-.9s.5-.4.8-.4h2.9c1.1,0,2-.6,2.4-1.6l2.7-6.5c.2-.5.2-1.1,0-1.6l-3.7-14.2c0-.3,0-.7.2-.9s.5-.4.9-.4c.9,0,1.7-.4,2.2-1.2s.5-1.7.2-2.5l-6.1-13.7v-.6l2.5-17.6c2.4-9-4.2-14.3-7.1-16.2-.2-.2-.4-.4-.5-.7,0-.3,0-.6.2-.9l2.9-3.5c.8-.9.8-2.3,0-3.2l-6.4-8.2c-.3-.4-.3-.9,0-1.3l8.4-12.4c.2-.3.5-.5.9-.5.3-.2.6,0,.8.3h0l2.3,3.9c.3.5.8.9,1.3,1.1l18.8,6.9c.9.3,1.8.2,2.5-.4s1.1-1.5.9-2.4l-1.1-7.5c0-.4,0-.7.3-.9s.6-.4.9-.3l6.5,1.1c.7.1,1.4,0,1.9-.4.6-.4.9-1,1-1.7l1.4-8.8c0-.4.3-.6.6-.8l27.5-13.2c.4-.2.8-.1,1.2.1l6.7,5.3c.6.5,1.4.7,2.1.5s1.4-.6,1.8-1.3l8-14.8c.2-.3.4-.5.8-.6.3-.1.6,0,.9.2,7.3,5.8,9.5,12,10,14.4.3,1.2,1.3,2,2.5,2h11.9c.6,0,1.1.5,1.1,1.1v4.6c0,1.1.7,2.1,1.8,2.5l25.3,8.1c.5.1.8.6.8,1v10.6c0,.9.5,1.8,1.3,2.2l11.7,6.8c1,.6,2.2.4,3-.3l9.1-8.1c.2-.2.5-.3.8-.3s.6.2.8.4l8.4,10.2c.5.6,1.2.9,2,.9h.4c11.7,0,33.2-4.6,35.7-5.1h.4l31.1,6.5c.2,0,.4.1.5.3l5.2,5.2c.9.9,2.4,1,3.4.2l16.1-12c.2-.1.4-.2.7-.2h11.6l7.2,12.1c.2.3.2.7,0,1.1l-7.6,21.8c0,.3,0,.6-.2.8l-.3,11.9c0,.3,0,.6-.3.8l-4.5,4.7c-.8.9-1,2.2-.4,3.2l4.7,8.7c.2.4.2.9,0,1.3l-11.2,18.6c-.3.4-.4.9-.4,1.4v39.4h0c-.2.8-.6,1.4-1.2,1.9l-1.3,1c-1.9,1.6-2.3,4.3-.9,6.4h0c1.6,2.3.9,5.4-1.5,6.8l-3.3,1.9c-1.1.6-1.8,1.6-2.2,2.8l-.5,1.7c-.7,2.2.4,4.6,2.5,5.6l5.1,2.5.7.4-.5-.2v-.2Z"></path>
</g>
<g class="region" data-name="Dresden" data-url="https://www.visit-dresden-elbland.de/" id="dresden_stadt">
<path class="st0 flaeche" d="M824.9,472l-1.2-4c-.3-.9-1-1.7-2-1.9l-3.3-.9c-.7-.2-1.5,0-2.2.4l-6.5,4.2c-.2,0-.5.2-.8.2l-16.2-1c-.4,0-.7-.2-1-.5l-8.3-12.4c0-.2-.2-.5-.2-.7v-8.9c0-.2,0-.4.2-.6l7.1-12.4c.4-.7.5-1.6.2-2.4l-1.6-3.9c-.2-.4,0-.8,0-1.2s.6-.5,1-.5h5.1c.8,0,1.5-.3,2-.9l3.6-3.8c.4-.4,1.1-.5,1.6-.2l9,5.6c.7.4,1.5.5,2.2.3l20.9-6.3c1.1-.3,1.9-1.4,2-2.5l.5-15.6c0-.5.4-1,.9-1.1l15.1-4.9c.8-.2,1.4-.8,1.7-1.6l4.8-12.3c.2-.4.5-.7,1-.8l8.5-1.5c1.3-.2,2.3-1.4,2.3-2.7v-3.3c0-.4.2-.7.4-.9s.6-.4,1-.3l17.3,2,21.1,1.6c.4,0,.7.2.9.5l4.1,5.6c.2.3.3.6.2,1,0,.3-.3.6-.5.8l-5.5,3.6c-.8.5-1.2,1.4-1.2,2.3,0,1.6.3,4.8,2,7.1.5.7,1.5,1.2,2.4,1.1h1.9c.5-.1.9.1,1.2.5l9.1,15.9s5.8,10.9.2,15.2l-5.7,4.6c-.8.7-1.2,1.7-.9,2.8s1,1.8,2.1,2l9.6,2.1c.2,0,.4.2.6.3l3.5,3.3c.5.5,1.2.7,1.9.7h7c1.2,0,2.2-.7,2.6-1.8l1.4-3.9c0-.4.4-.7.8-.8s.8,0,1.1.2l5.9,4.4-2.5,6.9c0,.3-.2.6-.2.9l-.3,13.6c0,.4-.2.8-.5,1l-5.6,4c-.5.3-.8.8-1,1.4l-1.3,4c-.2.5-.7.9-1.2.9l-8.9-.2c-1.5,0-2.7,1.1-2.8,2.6l-.5,9.3c0,.3,0,.6-.3.8l-11.5,11.8c-.2.3-.6.4-1,.4s-.7-.2-.9-.5l-3.7-4.9c-.9-1.2-2.6-1.4-3.8-.5l-16.3,12.2c-.3.2-.7.3-1,.2l-11-2.5c-.7-.2-1.4,0-2,.3l-1.6-4c-.4-1-1.4-1.7-2.5-1.7h-3.8c-.5,0-.9-.3-1.1-.7l-3.7-7.5c-.5-1-1.4-1.5-2.5-1.5h-7.8c-.3,0-.5,0-.8-.2l-6.7-5.1c-.8-.6-1.8-.7-2.7-.4l-12.6,4.9c-.5.2-1.1,0-1.5-.4l-8.5-11.8c-.3-.4-.3-.9,0-1.2l.9-1.9c.4-.6.5-1.3.3-2h0Z"></path>
</g>



<!-- ========================================================= -->
<!-- Leipzig (Stadt) – separat anklickbar                       -->
<!-- ========================================================= -->
<g class="region" id="leipzig_stadt" data-name="Leipzig" data-url="https://www.leipzig.travel/">

  <!-- Hit-Area (transparent, für bessere Klickbarkeit) -->
  <path class="hit" d="M299.5,253.2c-.4-.4-.4-1-.2-1.4l1.9-3.6c.4-.7.4-1.6.1-2.4s-1-1.3-1.8-1.6l-9.2-2.5c-.3-.1-.5-.2-.7-.5l-6.6-8.9c-.4-.6-1-.9-1.7-1.1l-5.1-1c-.7-.1-1.1-.8-1-1.4l2.1-11.8c.2-1-.2-1.9-.9-2.6l-12.8-10.8c-.3-.3-.5-.7-.4-1.1l1.8-10.9c.1-.6.6-1.1,1.3-1.1l10.5.3c1.2,0,2.3-.8,2.7-1.9l2.4-7.3c.3-.9.1-1.8-.4-2.5s-1.3-1.1-2.2-1.1h-9.4c-.4,0-.7-.1-.9-.4l-10.7-11.4c-.5-.6-1.2-.9-2-.9s-1.4.3-2,.8l-14.1,13.8c-.3.3-.7.4-1.2.3l-15.2-3.6c-.8-.2-1.6,0-2.2.4l-11.8,8.1c-.4.3-.7.7-.9,1.1l-2.2,4.6c-.2.5-.7.7-1.2.7l-14.2-1-14.7-1.7c-1.3-.2-2.6.7-3,2l-1.8,6.5c-.3,1,0,2,.7,2.7l4,4c.4.4.5,1.1.2,1.6l-3.2,4.9c-.3.4-.4.9-.5,1.4l-.3,7.1c0,.5-.3.9-.8,1.1l-5.4,2.3c-1,.4-1.7,1.4-1.7,2.5v19.5c0,1,.5,1.9,1.3,2.4l4.9,2.9c.4.2.6.7.6,1.2s-.3.9-.8,1.1l-4.3,1.7c-1.1.4-1.7,1.4-1.7,2.6v7.5c0,.4.1.9.3,1.2l6.5,13c.3.7.9,1.2,1.6,1.4l3.4,1c.3.1.5.2.7.5l4.4,6.4c.3.4.3.9,0,1.4s-.7.6-1.2.6l-5.4-.8c-.8-.1-1.6.1-2.2.6s-1,1.3-1,2.1v8.8c0,.4.1.8.3,1.2l5,10.3c.1.3.2.7,0,1l-2.3,5.8c-.3.9-.2,1.8.3,2.6.5.8,1.4,1.2,2.3,1.1,7.7-.3,8.8-.1,8.9-.1.2.1.6.2,4.3.2s4.1,0,7.4-.1c1.5,0,2.7-1.2,2.7-2.8v-6.9c0-.2.1-.4.1-.6l5.5-10.1c.3-.6,1.1-.8,1.7-.5l2.3,1.1c.7.3,1.5.4,2.2.1s1.3-.8,1.6-1.5l3.5-8.8c.1-.4.2-.7.2-1.1l-.2-6.6c0-.5.3-1,.7-1.2.5-.2,1-.1,1.4.2l2.4,2.2c.9.9,2.4,1,3.5.3l.4-.3c.3-.2.7-.3,1-.2.4.1.6.3.8.7l2.6,5.4c.3.7.9,1.2,1.6,1.4s1.5.2,2.1-.1l3.9-1.9c.4-.2.9-.2,1.2.1l4.3,2.7c.6.4,1.3.5,2,.4l12.1-2.5c.6-.1,1.2.2,1.4.8l3.9,10.6c.3.7.9,1.3,1.6,1.6l11.9,4.7c1,.4,2,.2,2.8-.5s1.1-1.7.8-2.8l-1.1-4.2c-.1-.2,0-.5,0-.8l8.4-21.7c.1-.3.4-.5.7-.7l11.6-5.2c1.3-.6,1.9-2.1,1.5-3.4-1.6-4.4.4-7.8,1.6-9.4.9-1.1.8-2.6-.1-3.6l-3.2-3.7h0Z"/>

  <!-- Sichtbare Fläche -->
  <path class="st4 flaeche" d="M299.5,253.2c-.4-.4-.4-1-.2-1.4l1.9-3.6c.4-.7.4-1.6.1-2.4s-1-1.3-1.8-1.6l-9.2-2.5c-.3-.1-.5-.2-.7-.5l-6.6-8.9c-.4-.6-1-.9-1.7-1.1l-5.1-1c-.7-.1-1.1-.8-1-1.4l2.1-11.8c.2-1-.2-1.9-.9-2.6l-12.8-10.8c-.3-.3-.5-.7-.4-1.1l1.8-10.9c.1-.6.6-1.1,1.3-1.1l10.5.3c1.2,0,2.3-.8,2.7-1.9l2.4-7.3c.3-.9.1-1.8-.4-2.5s-1.3-1.1-2.2-1.1h-9.4c-.4,0-.7-.1-.9-.4l-10.7-11.4c-.5-.6-1.2-.9-2-.9s-1.4.3-2,.8l-14.1,13.8c-.3.3-.7.4-1.2.3l-15.2-3.6c-.8-.2-1.6,0-2.2.4l-11.8,8.1c-.4.3-.7.7-.9,1.1l-2.2,4.6c-.2.5-.7.7-1.2.7l-14.2-1-14.7-1.7c-1.3-.2-2.6.7-3,2l-1.8,6.5c-.3,1,0,2,.7,2.7l4,4c.4.4.5,1.1.2,1.6l-3.2,4.9c-.3.4-.4.9-.5,1.4l-.3,7.1c0,.5-.3.9-.8,1.1l-5.4,2.3c-1,.4-1.7,1.4-1.7,2.5v19.5c0,1,.5,1.9,1.3,2.4l4.9,2.9c.4.2.6.7.6,1.2s-.3.9-.8,1.1l-4.3,1.7c-1.1.4-1.7,1.4-1.7,2.6v7.5c0,.4.1.9.3,1.2l6.5,13c.3.7.9,1.2,1.6,1.4l3.4,1c.3.1.5.2.7.5l4.4,6.4c.3.4.3.9,0,1.4s-.7.6-1.2.6l-5.4-.8c-.8-.1-1.6.1-2.2.6s-1,1.3-1,2.1v8.8c0,.4.1.8.3,1.2l5,10.3c.1.3.2.7,0,1l-2.3,5.8c-.3.9-.2,1.8.3,2.6.5.8,1.4,1.2,2.3,1.1,7.7-.3,8.8-.1,8.9-.1.2.1.6.2,4.3.2s4.1,0,7.4-.1c1.5,0,2.7-1.2,2.7-2.8v-6.9c0-.2.1-.4.1-.6l5.5-10.1c.3-.6,1.1-.8,1.7-.5l2.3,1.1c.7.3,1.5.4,2.2.1s1.3-.8,1.6-1.5l3.5-8.8c.1-.4.2-.7.2-1.1l-.2-6.6c0-.5.3-1,.7-1.2.5-.2,1-.1,1.4.2l2.4,2.2c.9.9,2.4,1,3.5.3l.4-.3c.3-.2.7-.3,1-.2.4.1.6.3.8.7l2.6,5.4c.3.7.9,1.2,1.6,1.4s1.5.2,2.1-.1l3.9-1.9c.4-.2.9-.2,1.2.1l4.3,2.7c.6.4,1.3.5,2,.4l12.1-2.5c.6-.1,1.2.2,1.4.8l3.9,10.6c.3.7.9,1.3,1.6,1.6l11.9,4.7c1,.4,2,.2,2.8-.5s1.1-1.7.8-2.8l-1.1-4.2c-.1-.2,0-.5,0-.8l8.4-21.7c.1-.3.4-.5.7-.7l11.6-5.2c1.3-.6,1.9-2.1,1.5-3.4-1.6-4.4.4-7.8,1.6-9.4.9-1.1.8-2.6-.1-3.6l-3.2-3.7h0Z"/>
</g>
</svg>
